<svg width="115" height="36" viewBox="0 0 115 36" fill="none" xmlns="http://www.w3.org/2000/svg">
<path d="M18.5001 2L25.0833 10.439L35.1435 14.0922L29.1519 22.961L28.7863 33.6578L18.5001 30.7L8.21382 33.6578L7.84822 22.961L1.85657 14.0922L11.9169 10.439L18.5001 2Z" fill="#E8C547"/>
<path d="M57.5001 2L64.0833 10.439L74.1435 14.0922L68.1519 22.961L67.7863 33.6578L57.5001 30.7L47.2138 33.6578L46.8482 22.961L40.8566 14.0922L50.9169 10.439L57.5001 2Z" fill="#E8C547"/>
<path d="M18.5001 2L25.0833 10.439L35.1435 14.0922L29.1519 22.961L28.7863 33.6578L18.5001 30.7L8.21382 33.6578L7.84822 22.961L1.85657 14.0922L11.9169 10.439L18.5001 2Z" stroke="#E8C547" stroke-width="3" stroke-linejoin="round"/>
<path d="M57.5001 2L64.0833 10.439L74.1435 14.0922L68.1519 22.961L67.7863 33.6578L57.5001 30.7L47.2138 33.6578L46.8482 22.961L40.8566 14.0922L50.9169 10.439L57.5001 2Z" stroke="#E8C547" stroke-width="3" stroke-linejoin="round"/>
<path d="M96.5001 2L103.083 10.439L113.144 14.0922L107.152 22.961L106.786 33.6578L96.5001 30.7L86.2138 33.6578L85.8482 22.961L79.8566 14.0922L89.9169 10.439L96.5001 2Z" stroke="#E8C547" stroke-width="3" stroke-linejoin="round"/>
</svg>
