<svg width="71" height="102" viewBox="0 0 71 102" fill="none" xmlns="http://www.w3.org/2000/svg">
<g id="Marker (NG)">
<path id="Subtract" d="M61.3071 52.6095L61.1405 52.8602L61.0087 53.1308C56.4435 62.5082 49.5061 73.89 43.6401 83.0185C40.9725 87.1699 38.5468 90.8239 36.6993 93.5678C34.9498 91.1445 32.7035 87.992 30.2166 84.4032C24.4357 76.061 17.4314 65.4707 12.3339 56.2283L12.1173 55.8356L11.8275 55.4934C7.25387 50.0928 4.5 43.1154 4.5 35.4831C4.5 18.3716 18.3716 4.5 35.4831 4.5C52.5946 4.5 66.4662 18.3716 66.4662 35.4831C66.4662 41.8229 64.5669 47.7055 61.3071 52.6095ZM35.5 57.5C47.6503 57.5 57.5 47.6503 57.5 35.5C57.5 23.3497 47.6503 13.5 35.5 13.5C23.3497 13.5 13.5 23.3497 13.5 35.5C13.5 47.6503 23.3497 57.5 35.5 57.5Z" fill="#E8C547" stroke="#E8C547" stroke-width="9"/>
</g>
</svg>
