<svg width="352" height="344" viewBox="0 0 352 344" fill="none" xmlns="http://www.w3.org/2000/svg">
<g filter="url(#filter0_d_2695_377)">
<mask id="path-1-inside-1_2695_377" fill="white">
<path d="M192.579 55.078L195.003 57.0955L197.561 59.0555L198.504 61.2652L198.696 63.9552L198.292 65.4924L196.484 65.9728L194.464 65.3771L193.522 63.4172L191.579 61.784L188.829 59.0362L187.271 58.1331L185.001 56.8458L182.577 55.4623H180.904L179.481 57.0187L178.673 58.921L177.673 58.9017L176.384 58.0947L176.865 56.2117L178.019 54.8666L178.153 52.9836L177.596 50.2743L174.96 48.2183L170.633 44.8365L167.997 43.8373L166.132 41.666L165.516 38.4379L164.439 36.0169L163.285 34.9408L161.804 32.5198L159.496 31.2132L158.245 30.0218L155.956 29.4838L155.168 27.5047L153.59 26.0444L151.186 24.6609L149.09 22.7394L148.339 20.8564L148.474 18.9157L150.571 18.1855L152.379 18.3776L154.129 19.8572L156.149 21.4712L158.168 24.2382L159.246 27.1973L161.265 28.1964L165.381 29.8873L167.478 30.7712L170.171 32.1931L172.114 34.3452L175.268 37.189L178.23 40.9551L180.654 43.9142L183.693 46.8156L186.04 49.2367L189.348 52.5416L192.579 55.078ZM141.088 21.1446L141.896 25.3526L141.588 28.5807L140.78 31.6359V34.5373L141.742 36.9584L146.627 39.245L154.668 46.5466L165.978 57.4991L172.922 62.591L182.423 69.1625L180.231 74.2544L169.998 80.4608L170.729 84.8418L173.268 87.9161L178.038 84.4767L187.175 79.3655L193.387 76.4449L199.6 75.7147L204.717 79.3655L209.468 84.1116L213.853 91.0289L217.508 99.0608L221.893 106.362L227.375 108.553L234.319 111.839L240.455 117.814L243.205 120.716L246.764 123.444L250.149 123.598L252.9 126.019L255.323 126.98L257.093 128.594L259.363 130.035L262.267 130.189L265.826 132.129L269.538 131.976L272.289 132.783L273.404 135.684L272.923 137.952L275.02 139.066L275.174 137.625L276.636 134.57H278.559H280.329L281.617 136.491L283.714 135.358L285.157 134.877L287.253 136.011L290.158 136.491H294.678L296.774 134.723L300.006 134.243L302.91 133.436L305.488 132.629L307.911 132.149L310.816 133.129L313.72 135.377L315.586 135.896L318.779 136.357L319.721 132.879V130.093L321.01 127.076L323.588 126.211L324.646 124.367L326.588 123.022L327.473 128.786L329.301 134.262L333.686 139.739L339.533 144.85L343.919 147.405L346.112 153.612L344.65 160.548L338.803 163.469L336.244 166.39L331.859 173.691L324.915 180.628L320.895 185.374L315.778 189.39L309.2 194.501L306.276 196.326L307.373 201.803L310.662 205.453L312.855 213.12L313.586 221.152L312.855 229.549L306.276 232.104L295.678 234.295L290.196 236.85L283.983 241.231L277.405 247.438L271.192 252.184L264.614 258.025L256.574 260.216H250.726L246.341 256.2L240.859 252.549L234.646 252.914L221.509 254.009L211.276 255.104L203.601 253.279L196.657 251.819L190.079 251.089L188.078 256.795L191.079 257.679L195.907 258.14L195.83 259.505L196.638 262.617L199.023 262.983L199.812 266.941L202.62 267.114L204.428 268.574L207.159 271.648L207.544 274.588L208.64 275.472L208.698 277.778L205.794 281.41L200.312 282.87H191.541L186.059 286.156L180.577 290.902L175.826 292.362L171.806 293.092L167.42 297.838L169.979 303.315L166.324 306.235L162.304 312.076L165.958 316.092L169.248 318.283V323.759L168.517 327.41L165.593 330.331L154.995 329.965L145.127 331.061L134.163 332.521L123.93 333.981L118.083 333.251L114.794 328.87L112.601 321.934L116.256 316.092L116.621 310.251L110.408 306.235L107.85 300.394L103.465 293.822L94.6935 285.425L87.0189 279.219L80.0751 270.822L72.4004 267.902L67.2839 263.155L63.2639 258.409L64.3603 252.203L62.533 244.171L58.8783 240.155L46.0872 239.425L39.8743 237.235L34.027 235.044L27.4487 233.584L22.6977 227.377L20.5049 222.996L20.1395 215.695L15.7539 210.219L9.1756 205.473L5.521 198.536V187.564L8.0792 179.533L11.7339 171.501L13.3111 168.791L16.8503 162.739L20.1395 154.361L22.6977 144.504L24.525 136.472L26.3523 129.535L30.0069 122.964L33.3538 117.334L33.6038 114.106L36.6622 112.492L39.1819 109.072L39.355 97.1969L44.0291 94.8527L48.8955 92.8736L53.5696 85.4951L54.6467 80.4608L55.9162 77.4056L57.1857 75.2536L57.8974 65.8959L60.7826 62.4757L65.649 59.2284L71.5926 56.3462L77.1706 52.215L87.0766 37.1121L87.6536 36.5549L89.8079 34.595L90.5581 31.2132L96.4055 28.2925L105.177 25.5832L107.177 23.5657L110.562 23.7194L110.966 21.2022L112.505 19.6842L115.256 19.0309L114.563 15.7836L116.41 13.9006L118.025 12.2673L119.468 10.7878L120.064 7.82869L121.718 6.09935H123.661L128.932 5.75349L130.49 4.23551L132.048 2.71755L134.317 2.23718L136.741 3.37085L138.183 4.65824L138.337 7.40596L137.202 9.02002L135.914 10.1537L135.741 12.2481L137.837 12.4018L138.472 13.8622L139.107 16.1103L140.569 17.8781L141.088 21.1446Z"/>
</mask>
<path d="M192.579 55.078L195.003 57.0955L197.561 59.0555L198.504 61.2652L198.696 63.9552L198.292 65.4924L196.484 65.9728L194.464 65.3771L193.522 63.4172L191.579 61.784L188.829 59.0362L187.271 58.1331L185.001 56.8458L182.577 55.4623H180.904L179.481 57.0187L178.673 58.921L177.673 58.9017L176.384 58.0947L176.865 56.2117L178.019 54.8666L178.153 52.9836L177.596 50.2743L174.96 48.2183L170.633 44.8365L167.997 43.8373L166.132 41.666L165.516 38.4379L164.439 36.0169L163.285 34.9408L161.804 32.5198L159.496 31.2132L158.245 30.0218L155.956 29.4838L155.168 27.5047L153.59 26.0444L151.186 24.6609L149.09 22.7394L148.339 20.8564L148.474 18.9157L150.571 18.1855L152.379 18.3776L154.129 19.8572L156.149 21.4712L158.168 24.2382L159.246 27.1973L161.265 28.1964L165.381 29.8873L167.478 30.7712L170.171 32.1931L172.114 34.3452L175.268 37.189L178.23 40.9551L180.654 43.9142L183.693 46.8156L186.04 49.2367L189.348 52.5416L192.579 55.078ZM141.088 21.1446L141.896 25.3526L141.588 28.5807L140.78 31.6359V34.5373L141.742 36.9584L146.627 39.245L154.668 46.5466L165.978 57.4991L172.922 62.591L182.423 69.1625L180.231 74.2544L169.998 80.4608L170.729 84.8418L173.268 87.9161L178.038 84.4767L187.175 79.3655L193.387 76.4449L199.6 75.7147L204.717 79.3655L209.468 84.1116L213.853 91.0289L217.508 99.0608L221.893 106.362L227.375 108.553L234.319 111.839L240.455 117.814L243.205 120.716L246.764 123.444L250.149 123.598L252.9 126.019L255.323 126.98L257.093 128.594L259.363 130.035L262.267 130.189L265.826 132.129L269.538 131.976L272.289 132.783L273.404 135.684L272.923 137.952L275.02 139.066L275.174 137.625L276.636 134.57H278.559H280.329L281.617 136.491L283.714 135.358L285.157 134.877L287.253 136.011L290.158 136.491H294.678L296.774 134.723L300.006 134.243L302.91 133.436L305.488 132.629L307.911 132.149L310.816 133.129L313.72 135.377L315.586 135.896L318.779 136.357L319.721 132.879V130.093L321.01 127.076L323.588 126.211L324.646 124.367L326.588 123.022L327.473 128.786L329.301 134.262L333.686 139.739L339.533 144.85L343.919 147.405L346.112 153.612L344.65 160.548L338.803 163.469L336.244 166.39L331.859 173.691L324.915 180.628L320.895 185.374L315.778 189.39L309.2 194.501L306.276 196.326L307.373 201.803L310.662 205.453L312.855 213.12L313.586 221.152L312.855 229.549L306.276 232.104L295.678 234.295L290.196 236.85L283.983 241.231L277.405 247.438L271.192 252.184L264.614 258.025L256.574 260.216H250.726L246.341 256.2L240.859 252.549L234.646 252.914L221.509 254.009L211.276 255.104L203.601 253.279L196.657 251.819L190.079 251.089L188.078 256.795L191.079 257.679L195.907 258.14L195.83 259.505L196.638 262.617L199.023 262.983L199.812 266.941L202.62 267.114L204.428 268.574L207.159 271.648L207.544 274.588L208.64 275.472L208.698 277.778L205.794 281.41L200.312 282.87H191.541L186.059 286.156L180.577 290.902L175.826 292.362L171.806 293.092L167.42 297.838L169.979 303.315L166.324 306.235L162.304 312.076L165.958 316.092L169.248 318.283V323.759L168.517 327.41L165.593 330.331L154.995 329.965L145.127 331.061L134.163 332.521L123.93 333.981L118.083 333.251L114.794 328.87L112.601 321.934L116.256 316.092L116.621 310.251L110.408 306.235L107.85 300.394L103.465 293.822L94.6935 285.425L87.0189 279.219L80.0751 270.822L72.4004 267.902L67.2839 263.155L63.2639 258.409L64.3603 252.203L62.533 244.171L58.8783 240.155L46.0872 239.425L39.8743 237.235L34.027 235.044L27.4487 233.584L22.6977 227.377L20.5049 222.996L20.1395 215.695L15.7539 210.219L9.1756 205.473L5.521 198.536V187.564L8.0792 179.533L11.7339 171.501L13.3111 168.791L16.8503 162.739L20.1395 154.361L22.6977 144.504L24.525 136.472L26.3523 129.535L30.0069 122.964L33.3538 117.334L33.6038 114.106L36.6622 112.492L39.1819 109.072L39.355 97.1969L44.0291 94.8527L48.8955 92.8736L53.5696 85.4951L54.6467 80.4608L55.9162 77.4056L57.1857 75.2536L57.8974 65.8959L60.7826 62.4757L65.649 59.2284L71.5926 56.3462L77.1706 52.215L87.0766 37.1121L87.6536 36.5549L89.8079 34.595L90.5581 31.2132L96.4055 28.2925L105.177 25.5832L107.177 23.5657L110.562 23.7194L110.966 21.2022L112.505 19.6842L115.256 19.0309L114.563 15.7836L116.41 13.9006L118.025 12.2673L119.468 10.7878L120.064 7.82869L121.718 6.09935H123.661L128.932 5.75349L130.49 4.23551L132.048 2.71755L134.317 2.23718L136.741 3.37085L138.183 4.65824L138.337 7.40596L137.202 9.02002L135.914 10.1537L135.741 12.2481L137.837 12.4018L138.472 13.8622L139.107 16.1103L140.569 17.8781L141.088 21.1446Z" fill="#F5F5F5"/>
<path d="M192.579 55.078L195.003 57.0955L197.561 59.0555L198.504 61.2652L198.696 63.9552L198.292 65.4924L196.484 65.9728L194.464 65.3771L193.522 63.4172L191.579 61.784L188.829 59.0362L187.271 58.1331L185.001 56.8458L182.577 55.4623H180.904L179.481 57.0187L178.673 58.921L177.673 58.9017L176.384 58.0947L176.865 56.2117L178.019 54.8666L178.153 52.9836L177.596 50.2743L174.96 48.2183L170.633 44.8365L167.997 43.8373L166.132 41.666L165.516 38.4379L164.439 36.0169L163.285 34.9408L161.804 32.5198L159.496 31.2132L158.245 30.0218L155.956 29.4838L155.168 27.5047L153.59 26.0444L151.186 24.6609L149.09 22.7394L148.339 20.8564L148.474 18.9157L150.571 18.1855L152.379 18.3776L154.129 19.8572L156.149 21.4712L158.168 24.2382L159.246 27.1973L161.265 28.1964L165.381 29.8873L167.478 30.7712L170.171 32.1931L172.114 34.3452L175.268 37.189L178.23 40.9551L180.654 43.9142L183.693 46.8156L186.04 49.2367L189.348 52.5416L192.579 55.078ZM141.088 21.1446L141.896 25.3526L141.588 28.5807L140.78 31.6359V34.5373L141.742 36.9584L146.627 39.245L154.668 46.5466L165.978 57.4991L172.922 62.591L182.423 69.1625L180.231 74.2544L169.998 80.4608L170.729 84.8418L173.268 87.9161L178.038 84.4767L187.175 79.3655L193.387 76.4449L199.6 75.7147L204.717 79.3655L209.468 84.1116L213.853 91.0289L217.508 99.0608L221.893 106.362L227.375 108.553L234.319 111.839L240.455 117.814L243.205 120.716L246.764 123.444L250.149 123.598L252.9 126.019L255.323 126.98L257.093 128.594L259.363 130.035L262.267 130.189L265.826 132.129L269.538 131.976L272.289 132.783L273.404 135.684L272.923 137.952L275.02 139.066L275.174 137.625L276.636 134.57H278.559H280.329L281.617 136.491L283.714 135.358L285.157 134.877L287.253 136.011L290.158 136.491H294.678L296.774 134.723L300.006 134.243L302.91 133.436L305.488 132.629L307.911 132.149L310.816 133.129L313.72 135.377L315.586 135.896L318.779 136.357L319.721 132.879V130.093L321.01 127.076L323.588 126.211L324.646 124.367L326.588 123.022L327.473 128.786L329.301 134.262L333.686 139.739L339.533 144.85L343.919 147.405L346.112 153.612L344.65 160.548L338.803 163.469L336.244 166.39L331.859 173.691L324.915 180.628L320.895 185.374L315.778 189.39L309.2 194.501L306.276 196.326L307.373 201.803L310.662 205.453L312.855 213.12L313.586 221.152L312.855 229.549L306.276 232.104L295.678 234.295L290.196 236.85L283.983 241.231L277.405 247.438L271.192 252.184L264.614 258.025L256.574 260.216H250.726L246.341 256.2L240.859 252.549L234.646 252.914L221.509 254.009L211.276 255.104L203.601 253.279L196.657 251.819L190.079 251.089L188.078 256.795L191.079 257.679L195.907 258.14L195.83 259.505L196.638 262.617L199.023 262.983L199.812 266.941L202.62 267.114L204.428 268.574L207.159 271.648L207.544 274.588L208.64 275.472L208.698 277.778L205.794 281.41L200.312 282.87H191.541L186.059 286.156L180.577 290.902L175.826 292.362L171.806 293.092L167.42 297.838L169.979 303.315L166.324 306.235L162.304 312.076L165.958 316.092L169.248 318.283V323.759L168.517 327.41L165.593 330.331L154.995 329.965L145.127 331.061L134.163 332.521L123.93 333.981L118.083 333.251L114.794 328.87L112.601 321.934L116.256 316.092L116.621 310.251L110.408 306.235L107.85 300.394L103.465 293.822L94.6935 285.425L87.0189 279.219L80.0751 270.822L72.4004 267.902L67.2839 263.155L63.2639 258.409L64.3603 252.203L62.533 244.171L58.8783 240.155L46.0872 239.425L39.8743 237.235L34.027 235.044L27.4487 233.584L22.6977 227.377L20.5049 222.996L20.1395 215.695L15.7539 210.219L9.1756 205.473L5.521 198.536V187.564L8.0792 179.533L11.7339 171.501L13.3111 168.791L16.8503 162.739L20.1395 154.361L22.6977 144.504L24.525 136.472L26.3523 129.535L30.0069 122.964L33.3538 117.334L33.6038 114.106L36.6622 112.492L39.1819 109.072L39.355 97.1969L44.0291 94.8527L48.8955 92.8736L53.5696 85.4951L54.6467 80.4608L55.9162 77.4056L57.1857 75.2536L57.8974 65.8959L60.7826 62.4757L65.649 59.2284L71.5926 56.3462L77.1706 52.215L87.0766 37.1121L87.6536 36.5549L89.8079 34.595L90.5581 31.2132L96.4055 28.2925L105.177 25.5832L107.177 23.5657L110.562 23.7194L110.966 21.2022L112.505 19.6842L115.256 19.0309L114.563 15.7836L116.41 13.9006L118.025 12.2673L119.468 10.7878L120.064 7.82869L121.718 6.09935H123.661L128.932 5.75349L130.49 4.23551L132.048 2.71755L134.317 2.23718L136.741 3.37085L138.183 4.65824L138.337 7.40596L137.202 9.02002L135.914 10.1537L135.741 12.2481L137.837 12.4018L138.472 13.8622L139.107 16.1103L140.569 17.8781L141.088 21.1446Z" stroke="#4B0082" stroke-width="2" mask="url(#path-1-inside-1_2695_377)"/>
</g>
<defs>
<filter id="filter0_d_2695_377" x="0.120996" y="0.837183" width="351.391" height="342.544" filterUnits="userSpaceOnUse" color-interpolation-filters="sRGB">
<feFlood flood-opacity="0" result="BackgroundImageFix"/>
<feColorMatrix in="SourceAlpha" type="matrix" values="0 0 0 0 0 0 0 0 0 0 0 0 0 0 0 0 0 0 127 0" result="hardAlpha"/>
<feOffset dy="4"/>
<feGaussianBlur stdDeviation="2.7"/>
<feComposite in2="hardAlpha" operator="out"/>
<feColorMatrix type="matrix" values="0 0 0 0 0.4608 0 0 0 0 0.2592 0 0 0 0 0.4104 0 0 0 0.56 0"/>
<feBlend mode="hard-light" in2="BackgroundImageFix" result="effect1_dropShadow_2695_377"/>
<feBlend mode="normal" in="SourceGraphic" in2="effect1_dropShadow_2695_377" result="shape"/>
</filter>
</defs>
</svg>
