<svg width="356" height="573" viewBox="0 0 356 573" fill="none" xmlns="http://www.w3.org/2000/svg">
<g filter="url(#filter0_d_2695_376)">
<mask id="path-1-inside-1_2695_376" fill="white">
<path d="M257.742 26.087L260.001 26.8911L263.677 27.8674L266.435 30.9113L269.977 33.4765L272.064 36.5204L273.499 39.1431L273.672 41.5935L275.567 44.5607L279.473 48.4661L281.905 50.7633L284.623 52.1034L287.036 53.9986L290.252 54.9941L292.014 55.1472L292.646 56.583L294.407 57.387L296.571 57.5593L297.853 55.1472L300.591 52.5819H302.525L306.373 52.7351L308.939 53.3668L313.285 56.2576L316.329 58.1911L319.431 59.244L322.456 60.1437L326.113 61.0435L331.455 61.1009L335.208 61.9432L337.62 62.1155L339.745 63.3024L341.43 64.8148L343.402 66.5569L345.432 67.8012L348.457 70.3665L347.882 70.9216L344.819 75.5927L338.022 85.9686L332.47 90.0845L326.553 92.9561L321.71 96.1914L318.838 99.5989L318.129 108.922L316.866 111.066L315.602 114.11L314.836 117.632L314.511 119.126L309.858 126.477L305.014 128.449L300.362 130.784L300.189 142.615L297.681 146.022L294.637 147.631L294.388 150.847L291.056 156.456L287.419 163.003L285.6 169.914L283.781 177.916L281.234 187.737L277.961 196.083L274.438 202.114L267.775 201.712L259.006 200.065L252.707 198.974L245.852 198.419L239.553 201.424L234.633 209.35L231.34 217.85L228.334 229.623L223.413 238.372L218.205 246.872L217.937 258.109L222.054 262.474L225.883 270.686L227.798 278.076L228.066 283.838L224.504 287.399L214.644 287.954L208.345 290.672V297.794L216.291 298.062L226.151 299.708L233.273 301.355L234.652 306.83L234.92 315.33L238.481 324.078L242.846 331.468L246.14 333.114L254.909 335.852L261.208 338.589L266.128 345.979L274.342 351.722L275.433 361.045L278.707 365.984L277.98 368.568L277.061 371.746L272.408 373.661L269.67 375.307L267.2 379.691L260.078 385.434L258.163 392L258.987 394.738L260.901 398.03L262.261 401.036L263.62 406.243L262.663 408.311L262.835 409.746L263.103 412.714L262.72 414.8L261.686 417.787L260.25 420.524L257.378 423.166L253.97 425.827L251.941 427.014L250.467 427.895L250.199 429.024L248.839 432.068L246.58 433.293L243.325 436.873L240.185 439.898L239.553 443.727L238.807 449.967L239.496 455.749L240.415 459.903L242.004 465.033L241.87 468.422L241.736 472.71L237.447 473.878L234.326 473.782L229.77 473.648L224.83 473.38L220.924 472.729L217.152 472.997L210.26 472.48L208.441 478.989L207.503 481.038L206.871 485.632L206.488 488.485L206.986 494.898L208.23 496.027L210.643 502.115L214.548 502.498L216.731 497.386L220.024 492.466L222.475 487.815L224.16 485.077L224.811 481.574L227.664 481.44L231.435 481.708L234.173 482.741L236.643 484.177L240.587 485.288L246.829 488.063L253.3 492.218L258.163 496.602L262.797 501.923L265.113 505.159L264.654 508.853L232.105 534.449H228.468L225.577 533.549L221.02 532.171L216.003 530.352L214.548 529.127L213.246 528.61L213.38 526.791L214.548 526.006V524.054L212.864 523.02L209.915 523.288L209.341 522.924L206.756 521.546L204.018 520.78L201.28 519.555L196.436 523.441L196.8 525.336L196.857 554.99L194.77 556.675L195.153 559.144L198.676 562.839L197.604 563.605L195.938 562.092L193.2 558.895L190.003 555.545L186.978 552.52L183.474 548.577L179.817 545.227L177.692 545.38L176.486 546.452L175.356 548.94L173.288 550.836L176.026 553.956L178.228 556.694L180.047 559.029L180.315 560.982H179.013L173.595 554.798L170.704 552.539L167.966 550.721L166.396 548.251L164.443 546.299L162.758 544.997L160.709 542.757L153.262 542.278L135.073 542.049L133.79 542.987L130.439 544.825L126.495 547.103L119.354 551.506L116.137 553.746L113.303 554.205L109.934 556.215H94.4445L93.985 553.937L92.3001 553.784L91.0939 552.884L88.3368 552.635L87.7816 553.841L86.6903 553.612L86.6329 552.52L88.8729 550.874L84.814 548.194L83.9907 550.549L81.7889 553.784L79.8551 553.037L77.5767 550.912L75.7578 549.094L76.5428 547.754L78.9552 545.073L76.8683 543.676L75.3749 543.542L72.12 541.953L67.3909 537.952L64.1169 531.769L62.298 525.949L63.7532 520.129L68.1185 513.946L71.7563 510.308L77.5767 505.216L76.8491 498.669L73.9389 494.304L65.2083 494.668L57.5689 494.304L52.1123 492.122L44.1092 491.758L39.7439 494.668L31.7408 492.122L23.7377 485.23L20.4637 479.047L19.0086 468.518L17.5535 459.061L16.0984 452.514L13.5519 445.966L8.45902 442.329L5.54883 434.691L8.09524 428.871L11.7331 422.324L12.8243 415.796L17.228 419.203L20.9615 422.477L23.776 425.291L27.05 424.832L28.4476 418.285L29.3858 414.551L30.7835 409.402V404.252L30.324 399.103L31.7216 393.953L36.3933 386.468L41.5436 378.982L45.7558 374.311L49.0298 370.1L53.2419 369.162L59.3304 366.826L64.0021 360.739V355.129L66.3379 347.644L65.3998 340.618L67.7356 335.947L71.9477 333.133L75.2217 328.922L74.2836 322.834L69.6119 321.896H64.0021L57.9136 318.163L50.4275 310.218L42.9413 303.671L38.2696 298.521L30.7835 293.372L28.9072 285.427L31.7216 277.004L37.3315 269.978L42.9413 266.705L47.613 260.157L49.9488 252.213L59.7708 243.789L67.2569 238.18L73.3454 233.509L77.098 224.627L80.8316 213.408L86.2116 204.736L88.9878 193.633L85.9819 188.617L82.7079 184.406L80.8316 177.859L79.4339 169.435L80.372 158.676V146.042L77.5575 134.823L71.9477 127.338L67.2761 118.915L64.9402 114.703L68.2143 110.492L75.7004 109.094L84.1247 108.156L90.6727 103.007L97.2207 94.1238L102.831 82.9056L107.502 71.2088L110.317 61.8475L113.591 51.0887L119.2 43.6035L126.687 40.33L138.844 41.7275L144.454 44.063L150.543 50.6101L154.276 56.6979L160.365 63.7236L169.249 64.6616L177.194 60.45L186.767 60.2203L189.716 58.8802L193.737 57.253L196.417 56.985L199.442 57.0233L198.542 59.5311L197.815 61.5029L196.206 64.2022L193.507 68.1458L190.635 70.6536L185.963 74.7887L181.119 77.2965L178.056 78.3685L173.748 81.0678L167.104 82.6759L160.46 85.1837L155.061 86.2558L149.164 87.5192L140.874 88.419L138.002 90.5823L134.594 92.2095L133.694 96.3445L130.095 98.68L128.831 100.843L130.439 104.079L131.511 106.586L131.684 110.185L132.048 111.985L133.656 112.885L135.819 111.985L138.73 108.807L140.951 106.184L143.784 102.049L145.201 97.206L146.254 94.9279H150.83L161.609 95.2916L172.58 94.3919L178.515 91.884L182.459 88.6487L183.187 88.3424L189.371 85.7006L196.034 84.3031L198.542 81.2593L202.984 79.6512L204.746 77.4879L206.89 74.1569L208.364 71.6682L210.547 69.8113L211.983 68.5287L214.185 65.772L217.018 63.2067L217.956 60.2394L218.358 56.0661L219.565 52.8308L221.326 50.5336L223.624 47.9683L225.921 46.7623L226.993 46.2262V43.929L229.023 40.5597L231.052 34.8357L234.422 31.0644L236.184 30.2604L239.477 29.1692L240.606 28.5566H243.019L243.114 28.3843L244.665 27.2931L247.652 26.6996L249.892 26.3933L253.147 26.7571L255.674 25.8956L257.742 26.087ZM347.116 53.788L344.915 55.6832L343.651 55.8364L342.081 55.0515L338.922 54.8983L334.193 55.2238L327.875 54.592L322.514 53.8071L319.201 52.3905L316.042 50.4953L313.84 49.0787L310.203 48.2938L306.89 47.3557L306.565 46.0922L307.829 43.7184L310.662 41.67L312.864 38.8368L315.698 34.4146L319.163 30.7772L322.169 26.0487L325.175 25.8956L327.855 27.6377L333.848 31.1027L337.639 33.3042L341.583 35.9843L346.159 38.9899L348.993 41.3637L350.563 44.0438L350.237 45.7859L349.28 47.528L348.648 50.6867L347.116 53.788ZM303.559 42.2635L300.553 45.7285L290.922 45.5754L287.61 43.3738L283.513 40.2151L280.507 36.9032L278.611 34.5294L277.195 32.1556L274.667 30.2604L270.57 27.2548L264.884 22.6795L261.093 20.4779L259.197 19.2144L259.35 15.7494L261.246 12.7439L265.822 10.0637L271.03 5.79469L274.495 3.59316L277.176 2.32967L286.481 1.85107L290.425 3.74631L299.73 8.80026L307.139 14.3328L315.027 19.693L316.77 21.2628L316.617 23.4643L310.298 32.4619L306.201 37.669L303.559 42.2635Z"/>
</mask>
<path d="M257.742 26.087L260.001 26.8911L263.677 27.8674L266.435 30.9113L269.977 33.4765L272.064 36.5204L273.499 39.1431L273.672 41.5935L275.567 44.5607L279.473 48.4661L281.905 50.7633L284.623 52.1034L287.036 53.9986L290.252 54.9941L292.014 55.1472L292.646 56.583L294.407 57.387L296.571 57.5593L297.853 55.1472L300.591 52.5819H302.525L306.373 52.7351L308.939 53.3668L313.285 56.2576L316.329 58.1911L319.431 59.244L322.456 60.1437L326.113 61.0435L331.455 61.1009L335.208 61.9432L337.62 62.1155L339.745 63.3024L341.43 64.8148L343.402 66.5569L345.432 67.8012L348.457 70.3665L347.882 70.9216L344.819 75.5927L338.022 85.9686L332.47 90.0845L326.553 92.9561L321.71 96.1914L318.838 99.5989L318.129 108.922L316.866 111.066L315.602 114.11L314.836 117.632L314.511 119.126L309.858 126.477L305.014 128.449L300.362 130.784L300.189 142.615L297.681 146.022L294.637 147.631L294.388 150.847L291.056 156.456L287.419 163.003L285.6 169.914L283.781 177.916L281.234 187.737L277.961 196.083L274.438 202.114L267.775 201.712L259.006 200.065L252.707 198.974L245.852 198.419L239.553 201.424L234.633 209.35L231.34 217.85L228.334 229.623L223.413 238.372L218.205 246.872L217.937 258.109L222.054 262.474L225.883 270.686L227.798 278.076L228.066 283.838L224.504 287.399L214.644 287.954L208.345 290.672V297.794L216.291 298.062L226.151 299.708L233.273 301.355L234.652 306.83L234.92 315.33L238.481 324.078L242.846 331.468L246.14 333.114L254.909 335.852L261.208 338.589L266.128 345.979L274.342 351.722L275.433 361.045L278.707 365.984L277.98 368.568L277.061 371.746L272.408 373.661L269.67 375.307L267.2 379.691L260.078 385.434L258.163 392L258.987 394.738L260.901 398.03L262.261 401.036L263.62 406.243L262.663 408.311L262.835 409.746L263.103 412.714L262.72 414.8L261.686 417.787L260.25 420.524L257.378 423.166L253.97 425.827L251.941 427.014L250.467 427.895L250.199 429.024L248.839 432.068L246.58 433.293L243.325 436.873L240.185 439.898L239.553 443.727L238.807 449.967L239.496 455.749L240.415 459.903L242.004 465.033L241.87 468.422L241.736 472.71L237.447 473.878L234.326 473.782L229.77 473.648L224.83 473.38L220.924 472.729L217.152 472.997L210.26 472.48L208.441 478.989L207.503 481.038L206.871 485.632L206.488 488.485L206.986 494.898L208.23 496.027L210.643 502.115L214.548 502.498L216.731 497.386L220.024 492.466L222.475 487.815L224.16 485.077L224.811 481.574L227.664 481.44L231.435 481.708L234.173 482.741L236.643 484.177L240.587 485.288L246.829 488.063L253.3 492.218L258.163 496.602L262.797 501.923L265.113 505.159L264.654 508.853L232.105 534.449H228.468L225.577 533.549L221.02 532.171L216.003 530.352L214.548 529.127L213.246 528.61L213.38 526.791L214.548 526.006V524.054L212.864 523.02L209.915 523.288L209.341 522.924L206.756 521.546L204.018 520.78L201.28 519.555L196.436 523.441L196.8 525.336L196.857 554.99L194.77 556.675L195.153 559.144L198.676 562.839L197.604 563.605L195.938 562.092L193.2 558.895L190.003 555.545L186.978 552.52L183.474 548.577L179.817 545.227L177.692 545.38L176.486 546.452L175.356 548.94L173.288 550.836L176.026 553.956L178.228 556.694L180.047 559.029L180.315 560.982H179.013L173.595 554.798L170.704 552.539L167.966 550.721L166.396 548.251L164.443 546.299L162.758 544.997L160.709 542.757L153.262 542.278L135.073 542.049L133.79 542.987L130.439 544.825L126.495 547.103L119.354 551.506L116.137 553.746L113.303 554.205L109.934 556.215H94.4445L93.985 553.937L92.3001 553.784L91.0939 552.884L88.3368 552.635L87.7816 553.841L86.6903 553.612L86.6329 552.52L88.8729 550.874L84.814 548.194L83.9907 550.549L81.7889 553.784L79.8551 553.037L77.5767 550.912L75.7578 549.094L76.5428 547.754L78.9552 545.073L76.8683 543.676L75.3749 543.542L72.12 541.953L67.3909 537.952L64.1169 531.769L62.298 525.949L63.7532 520.129L68.1185 513.946L71.7563 510.308L77.5767 505.216L76.8491 498.669L73.9389 494.304L65.2083 494.668L57.5689 494.304L52.1123 492.122L44.1092 491.758L39.7439 494.668L31.7408 492.122L23.7377 485.23L20.4637 479.047L19.0086 468.518L17.5535 459.061L16.0984 452.514L13.5519 445.966L8.45902 442.329L5.54883 434.691L8.09524 428.871L11.7331 422.324L12.8243 415.796L17.228 419.203L20.9615 422.477L23.776 425.291L27.05 424.832L28.4476 418.285L29.3858 414.551L30.7835 409.402V404.252L30.324 399.103L31.7216 393.953L36.3933 386.468L41.5436 378.982L45.7558 374.311L49.0298 370.1L53.2419 369.162L59.3304 366.826L64.0021 360.739V355.129L66.3379 347.644L65.3998 340.618L67.7356 335.947L71.9477 333.133L75.2217 328.922L74.2836 322.834L69.6119 321.896H64.0021L57.9136 318.163L50.4275 310.218L42.9413 303.671L38.2696 298.521L30.7835 293.372L28.9072 285.427L31.7216 277.004L37.3315 269.978L42.9413 266.705L47.613 260.157L49.9488 252.213L59.7708 243.789L67.2569 238.18L73.3454 233.509L77.098 224.627L80.8316 213.408L86.2116 204.736L88.9878 193.633L85.9819 188.617L82.7079 184.406L80.8316 177.859L79.4339 169.435L80.372 158.676V146.042L77.5575 134.823L71.9477 127.338L67.2761 118.915L64.9402 114.703L68.2143 110.492L75.7004 109.094L84.1247 108.156L90.6727 103.007L97.2207 94.1238L102.831 82.9056L107.502 71.2088L110.317 61.8475L113.591 51.0887L119.2 43.6035L126.687 40.33L138.844 41.7275L144.454 44.063L150.543 50.6101L154.276 56.6979L160.365 63.7236L169.249 64.6616L177.194 60.45L186.767 60.2203L189.716 58.8802L193.737 57.253L196.417 56.985L199.442 57.0233L198.542 59.5311L197.815 61.5029L196.206 64.2022L193.507 68.1458L190.635 70.6536L185.963 74.7887L181.119 77.2965L178.056 78.3685L173.748 81.0678L167.104 82.6759L160.46 85.1837L155.061 86.2558L149.164 87.5192L140.874 88.419L138.002 90.5823L134.594 92.2095L133.694 96.3445L130.095 98.68L128.831 100.843L130.439 104.079L131.511 106.586L131.684 110.185L132.048 111.985L133.656 112.885L135.819 111.985L138.73 108.807L140.951 106.184L143.784 102.049L145.201 97.206L146.254 94.9279H150.83L161.609 95.2916L172.58 94.3919L178.515 91.884L182.459 88.6487L183.187 88.3424L189.371 85.7006L196.034 84.3031L198.542 81.2593L202.984 79.6512L204.746 77.4879L206.89 74.1569L208.364 71.6682L210.547 69.8113L211.983 68.5287L214.185 65.772L217.018 63.2067L217.956 60.2394L218.358 56.0661L219.565 52.8308L221.326 50.5336L223.624 47.9683L225.921 46.7623L226.993 46.2262V43.929L229.023 40.5597L231.052 34.8357L234.422 31.0644L236.184 30.2604L239.477 29.1692L240.606 28.5566H243.019L243.114 28.3843L244.665 27.2931L247.652 26.6996L249.892 26.3933L253.147 26.7571L255.674 25.8956L257.742 26.087ZM347.116 53.788L344.915 55.6832L343.651 55.8364L342.081 55.0515L338.922 54.8983L334.193 55.2238L327.875 54.592L322.514 53.8071L319.201 52.3905L316.042 50.4953L313.84 49.0787L310.203 48.2938L306.89 47.3557L306.565 46.0922L307.829 43.7184L310.662 41.67L312.864 38.8368L315.698 34.4146L319.163 30.7772L322.169 26.0487L325.175 25.8956L327.855 27.6377L333.848 31.1027L337.639 33.3042L341.583 35.9843L346.159 38.9899L348.993 41.3637L350.563 44.0438L350.237 45.7859L349.28 47.528L348.648 50.6867L347.116 53.788ZM303.559 42.2635L300.553 45.7285L290.922 45.5754L287.61 43.3738L283.513 40.2151L280.507 36.9032L278.611 34.5294L277.195 32.1556L274.667 30.2604L270.57 27.2548L264.884 22.6795L261.093 20.4779L259.197 19.2144L259.35 15.7494L261.246 12.7439L265.822 10.0637L271.03 5.79469L274.495 3.59316L277.176 2.32967L286.481 1.85107L290.425 3.74631L299.73 8.80026L307.139 14.3328L315.027 19.693L316.77 21.2628L316.617 23.4643L310.298 32.4619L306.201 37.669L303.559 42.2635Z" fill="#F5F5F5"/>
<path d="M257.742 26.087L260.001 26.8911L263.677 27.8674L266.435 30.9113L269.977 33.4765L272.064 36.5204L273.499 39.1431L273.672 41.5935L275.567 44.5607L279.473 48.4661L281.905 50.7633L284.623 52.1034L287.036 53.9986L290.252 54.9941L292.014 55.1472L292.646 56.583L294.407 57.387L296.571 57.5593L297.853 55.1472L300.591 52.5819H302.525L306.373 52.7351L308.939 53.3668L313.285 56.2576L316.329 58.1911L319.431 59.244L322.456 60.1437L326.113 61.0435L331.455 61.1009L335.208 61.9432L337.62 62.1155L339.745 63.3024L341.43 64.8148L343.402 66.5569L345.432 67.8012L348.457 70.3665L347.882 70.9216L344.819 75.5927L338.022 85.9686L332.47 90.0845L326.553 92.9561L321.71 96.1914L318.838 99.5989L318.129 108.922L316.866 111.066L315.602 114.11L314.836 117.632L314.511 119.126L309.858 126.477L305.014 128.449L300.362 130.784L300.189 142.615L297.681 146.022L294.637 147.631L294.388 150.847L291.056 156.456L287.419 163.003L285.6 169.914L283.781 177.916L281.234 187.737L277.961 196.083L274.438 202.114L267.775 201.712L259.006 200.065L252.707 198.974L245.852 198.419L239.553 201.424L234.633 209.35L231.34 217.85L228.334 229.623L223.413 238.372L218.205 246.872L217.937 258.109L222.054 262.474L225.883 270.686L227.798 278.076L228.066 283.838L224.504 287.399L214.644 287.954L208.345 290.672V297.794L216.291 298.062L226.151 299.708L233.273 301.355L234.652 306.83L234.92 315.33L238.481 324.078L242.846 331.468L246.14 333.114L254.909 335.852L261.208 338.589L266.128 345.979L274.342 351.722L275.433 361.045L278.707 365.984L277.98 368.568L277.061 371.746L272.408 373.661L269.67 375.307L267.2 379.691L260.078 385.434L258.163 392L258.987 394.738L260.901 398.03L262.261 401.036L263.62 406.243L262.663 408.311L262.835 409.746L263.103 412.714L262.72 414.8L261.686 417.787L260.25 420.524L257.378 423.166L253.97 425.827L251.941 427.014L250.467 427.895L250.199 429.024L248.839 432.068L246.58 433.293L243.325 436.873L240.185 439.898L239.553 443.727L238.807 449.967L239.496 455.749L240.415 459.903L242.004 465.033L241.87 468.422L241.736 472.71L237.447 473.878L234.326 473.782L229.77 473.648L224.83 473.38L220.924 472.729L217.152 472.997L210.26 472.48L208.441 478.989L207.503 481.038L206.871 485.632L206.488 488.485L206.986 494.898L208.23 496.027L210.643 502.115L214.548 502.498L216.731 497.386L220.024 492.466L222.475 487.815L224.16 485.077L224.811 481.574L227.664 481.44L231.435 481.708L234.173 482.741L236.643 484.177L240.587 485.288L246.829 488.063L253.3 492.218L258.163 496.602L262.797 501.923L265.113 505.159L264.654 508.853L232.105 534.449H228.468L225.577 533.549L221.02 532.171L216.003 530.352L214.548 529.127L213.246 528.61L213.38 526.791L214.548 526.006V524.054L212.864 523.02L209.915 523.288L209.341 522.924L206.756 521.546L204.018 520.78L201.28 519.555L196.436 523.441L196.8 525.336L196.857 554.99L194.77 556.675L195.153 559.144L198.676 562.839L197.604 563.605L195.938 562.092L193.2 558.895L190.003 555.545L186.978 552.52L183.474 548.577L179.817 545.227L177.692 545.38L176.486 546.452L175.356 548.94L173.288 550.836L176.026 553.956L178.228 556.694L180.047 559.029L180.315 560.982H179.013L173.595 554.798L170.704 552.539L167.966 550.721L166.396 548.251L164.443 546.299L162.758 544.997L160.709 542.757L153.262 542.278L135.073 542.049L133.79 542.987L130.439 544.825L126.495 547.103L119.354 551.506L116.137 553.746L113.303 554.205L109.934 556.215H94.4445L93.985 553.937L92.3001 553.784L91.0939 552.884L88.3368 552.635L87.7816 553.841L86.6903 553.612L86.6329 552.52L88.8729 550.874L84.814 548.194L83.9907 550.549L81.7889 553.784L79.8551 553.037L77.5767 550.912L75.7578 549.094L76.5428 547.754L78.9552 545.073L76.8683 543.676L75.3749 543.542L72.12 541.953L67.3909 537.952L64.1169 531.769L62.298 525.949L63.7532 520.129L68.1185 513.946L71.7563 510.308L77.5767 505.216L76.8491 498.669L73.9389 494.304L65.2083 494.668L57.5689 494.304L52.1123 492.122L44.1092 491.758L39.7439 494.668L31.7408 492.122L23.7377 485.23L20.4637 479.047L19.0086 468.518L17.5535 459.061L16.0984 452.514L13.5519 445.966L8.45902 442.329L5.54883 434.691L8.09524 428.871L11.7331 422.324L12.8243 415.796L17.228 419.203L20.9615 422.477L23.776 425.291L27.05 424.832L28.4476 418.285L29.3858 414.551L30.7835 409.402V404.252L30.324 399.103L31.7216 393.953L36.3933 386.468L41.5436 378.982L45.7558 374.311L49.0298 370.1L53.2419 369.162L59.3304 366.826L64.0021 360.739V355.129L66.3379 347.644L65.3998 340.618L67.7356 335.947L71.9477 333.133L75.2217 328.922L74.2836 322.834L69.6119 321.896H64.0021L57.9136 318.163L50.4275 310.218L42.9413 303.671L38.2696 298.521L30.7835 293.372L28.9072 285.427L31.7216 277.004L37.3315 269.978L42.9413 266.705L47.613 260.157L49.9488 252.213L59.7708 243.789L67.2569 238.18L73.3454 233.509L77.098 224.627L80.8316 213.408L86.2116 204.736L88.9878 193.633L85.9819 188.617L82.7079 184.406L80.8316 177.859L79.4339 169.435L80.372 158.676V146.042L77.5575 134.823L71.9477 127.338L67.2761 118.915L64.9402 114.703L68.2143 110.492L75.7004 109.094L84.1247 108.156L90.6727 103.007L97.2207 94.1238L102.831 82.9056L107.502 71.2088L110.317 61.8475L113.591 51.0887L119.2 43.6035L126.687 40.33L138.844 41.7275L144.454 44.063L150.543 50.6101L154.276 56.6979L160.365 63.7236L169.249 64.6616L177.194 60.45L186.767 60.2203L189.716 58.8802L193.737 57.253L196.417 56.985L199.442 57.0233L198.542 59.5311L197.815 61.5029L196.206 64.2022L193.507 68.1458L190.635 70.6536L185.963 74.7887L181.119 77.2965L178.056 78.3685L173.748 81.0678L167.104 82.6759L160.46 85.1837L155.061 86.2558L149.164 87.5192L140.874 88.419L138.002 90.5823L134.594 92.2095L133.694 96.3445L130.095 98.68L128.831 100.843L130.439 104.079L131.511 106.586L131.684 110.185L132.048 111.985L133.656 112.885L135.819 111.985L138.73 108.807L140.951 106.184L143.784 102.049L145.201 97.206L146.254 94.9279H150.83L161.609 95.2916L172.58 94.3919L178.515 91.884L182.459 88.6487L183.187 88.3424L189.371 85.7006L196.034 84.3031L198.542 81.2593L202.984 79.6512L204.746 77.4879L206.89 74.1569L208.364 71.6682L210.547 69.8113L211.983 68.5287L214.185 65.772L217.018 63.2067L217.956 60.2394L218.358 56.0661L219.565 52.8308L221.326 50.5336L223.624 47.9683L225.921 46.7623L226.993 46.2262V43.929L229.023 40.5597L231.052 34.8357L234.422 31.0644L236.184 30.2604L239.477 29.1692L240.606 28.5566H243.019L243.114 28.3843L244.665 27.2931L247.652 26.6996L249.892 26.3933L253.147 26.7571L255.674 25.8956L257.742 26.087ZM347.116 53.788L344.915 55.6832L343.651 55.8364L342.081 55.0515L338.922 54.8983L334.193 55.2238L327.875 54.592L322.514 53.8071L319.201 52.3905L316.042 50.4953L313.84 49.0787L310.203 48.2938L306.89 47.3557L306.565 46.0922L307.829 43.7184L310.662 41.67L312.864 38.8368L315.698 34.4146L319.163 30.7772L322.169 26.0487L325.175 25.8956L327.855 27.6377L333.848 31.1027L337.639 33.3042L341.583 35.9843L346.159 38.9899L348.993 41.3637L350.563 44.0438L350.237 45.7859L349.28 47.528L348.648 50.6867L347.116 53.788ZM303.559 42.2635L300.553 45.7285L290.922 45.5754L287.61 43.3738L283.513 40.2151L280.507 36.9032L278.611 34.5294L277.195 32.1556L274.667 30.2604L270.57 27.2548L264.884 22.6795L261.093 20.4779L259.197 19.2144L259.35 15.7494L261.246 12.7439L265.822 10.0637L271.03 5.79469L274.495 3.59316L277.176 2.32967L286.481 1.85107L290.425 3.74631L299.73 8.80026L307.139 14.3328L315.027 19.693L316.77 21.2628L316.617 23.4643L310.298 32.4619L306.201 37.669L303.559 42.2635Z" stroke="#4B0082" stroke-width="2" mask="url(#path-1-inside-1_2695_376)"/>
</g>
<defs>
<filter id="filter0_d_2695_376" x="0.148828" y="0.451074" width="355.814" height="572.553" filterUnits="userSpaceOnUse" color-interpolation-filters="sRGB">
<feFlood flood-opacity="0" result="BackgroundImageFix"/>
<feColorMatrix in="SourceAlpha" type="matrix" values="0 0 0 0 0 0 0 0 0 0 0 0 0 0 0 0 0 0 127 0" result="hardAlpha"/>
<feOffset dy="4"/>
<feGaussianBlur stdDeviation="2.7"/>
<feComposite in2="hardAlpha" operator="out"/>
<feColorMatrix type="matrix" values="0 0 0 0 0.4608 0 0 0 0 0.2592 0 0 0 0 0.4104 0 0 0 0.56 0"/>
<feBlend mode="hard-light" in2="BackgroundImageFix" result="effect1_dropShadow_2695_376"/>
<feBlend mode="normal" in="SourceGraphic" in2="effect1_dropShadow_2695_376" result="shape"/>
</filter>
</defs>
</svg>
