<svg width="389" height="560" viewBox="0 0 389 560" fill="none" xmlns="http://www.w3.org/2000/svg">
<g filter="url(#filter0_d_2695_378)">
<mask id="path-1-inside-1_2695_378" fill="white">
<path d="M358.271 69.6058H360.15L362.125 71.5823L362.854 73.7508L364.119 75.3627L365.558 76.802L367.169 77.7039L367.897 78.2412L369.872 79.8723L370.774 82.5781L371.311 85.4566L372.385 87.0685L373.65 89.0451L375.625 90.4843L376.699 91.9235L377.236 93.5355L379.039 94.6101L380.65 96.9513L380.822 100.367L382.088 102.171L382.989 103.783L383.354 105.951L381.915 107.218L379.403 106.489L378.502 104.512L377.428 103.61L376.527 101.634L375.261 100.194L373.458 97.8532L372.02 96.414L370.582 94.6101L369.144 92.6336L367.878 91.7316L367.341 89.3905L365.903 87.5866L365.174 85.7828L365.539 83.6143L366.267 82.5397L365.539 80.5632L364.273 79.2966L363.372 78.0301L363.736 76.7636L362.662 75.8617L360.859 74.787L360.323 72.4459L360.495 70.8339L358.271 69.6058ZM358.271 69.6058H357.983L357.619 69.2412L358.271 69.6058ZM232.185 12.5928L229.846 15.1067L228.58 17.8124L227.142 21.0555L229.481 23.7613L231.821 22.6866L234.16 21.0747L235.426 18.9062L237.765 15.6632L238.379 15.3369L239.932 14.7612L241.735 15.1258L241.927 16.9105L242.099 17.6397L242.636 19.9809L243.365 21.5928L245.168 22.322V22.6866L245.129 22.7826L245.148 23.3391L245.168 23.3007V24.3178L244.094 25.9297L242.291 28.2709L240.489 30.4393L242.099 31.8786L244.976 31.7059L246.242 28.4628L248.581 25.047L251.285 23.9724L252.915 22.1685L254.717 18.1962L257.958 13.3412L260.125 9.7335L263.194 9.25376L266.032 10.8081L274.258 15.6056L279.474 19.386L278.937 21.1898L277.672 23.1664L275.869 26.2368L275.14 28.4052L273.875 30.0172L273.146 31.9937L273.319 33.4329L274.393 34.6995L276.368 35.7741L278.88 34.8722L280.855 32.3583L281.929 29.6525L283.54 27.4841L284.441 25.5075L285.342 22.8018H290.194L292.495 24.241L295.717 25.853L298.287 27.4649L300.856 30.0363L305.286 32.7037L307.606 34.546L310.157 35.7549L313.743 39.2091L317.29 41.7805L321.643 45.0044L325.498 46.6164L328.24 47.9021L331.596 49.0918L334.032 51.6057L335.144 54.0236L337.234 56.5951L338.787 59.7038L338.442 64.3286L338.787 64.578L339.689 66.7465L341.319 69.2604L343.121 70.8723L344.732 72.6762L346.304 74.5184L346.88 74.6527L347.954 76.8212L348.855 78.625L349.756 81.3308L350.485 84.7465L352.46 89.6016L352.364 89.6591L353.898 91.0408L355.337 92.4801L356.065 93.9193L356.967 96.0686L357.158 96.0877L359.498 98.0643L361.665 101.307L362.528 104.589L364.292 106.354L368.147 110.691L370.563 114.606L370.908 118.425L371.809 120.401L370.831 125.064L369.834 126.35L367.667 127.962L365.328 129.939L363.161 130.668L362.624 131.57L363.352 132.644L363.889 133.719L365.155 134.084L363.889 135.523L361.914 135.887L359.939 136.06L358.328 138.037L357.427 141.817L356.353 143.621L355.087 146.499L352.575 147.037L350.6 148.476V150.99L350.236 154.406L349.507 159.088L347.896 161.429L346.995 163.943L345.192 165.382L344.042 166.418L344.118 167.282L342.508 169.259L341.242 170.871L340.341 172.31L339.804 175.38L338.73 178.086L337.081 181.329L334.051 181.291L331.366 181.559L327.339 183.19L324.386 184.534L314.798 184.764L306.839 188.986L297.941 188.045L291.843 181.003L288.104 174.9L282.006 168.337L276.387 165.996L264.21 164.595L256.712 167.877L251.093 175.38L244.995 195.549L240.316 207.274L234.697 218.519L228.139 227.423L221.58 232.585L213.143 233.525L205.645 234.926L202.366 239.148L209.384 251.813L215.003 259.316L217.822 270.562V283.227L216.882 294.012L218.282 302.455L220.161 309.018L223.441 313.24L226.451 318.268L223.671 329.398L218.282 338.091L214.543 349.336L210.784 358.24L204.686 362.922L197.188 368.545L187.35 376.988L185.011 384.952L180.332 391.515L174.713 394.797L169.094 401.839L166.275 410.283L168.155 418.247L175.653 423.409L180.332 428.571L187.83 435.134L195.328 443.097L201.426 446.839H207.045L211.724 447.78L212.663 453.882L209.384 458.104L205.165 460.925L202.826 465.607L203.766 472.65L201.426 480.153V485.776L196.747 491.878L190.649 494.219L186.43 495.159L183.151 499.381L178.932 504.064L173.773 511.567L169.094 519.07L167.695 524.232L168.155 529.394V534.556L166.755 539.718L165.815 543.46L164.415 550.023L161.136 550.484L158.317 547.663L154.578 544.381L150.167 540.966L148.345 534.403L139.237 532.599L129.399 527.13L121.019 522.025L113.003 516.192L108.995 511.816H98.0646L89.6845 507.076L79.4826 499.055L71.4668 489.94L59.4432 482.283L49.97 474.626L45.9621 470.251L42.3185 464.782L41.2255 460.771V449.104L48.5125 450.543H56.5283L62.7223 448.72L68.552 444.345L73.653 440.699L79.8469 439.24L80.94 430.874H89.3201L96.9716 429.78L100.999 425.404L99.9056 417.038L95.5334 412.662L90.4324 409.746L84.9671 407.193L76.9513 397.349L66.3851 385.681L58.7336 375.127L57.2762 364.189L56.1831 346.707L55.0901 336.498L50.7179 329.59L45.2525 319.381L42.7021 308.442L37.9655 296.775L34.6863 286.585L31.0427 277.47L24.12 270.178L16.1043 258.165L10.2746 246.152L7.72414 229.745L5.90234 219.191L11.0033 208.617L15.3755 202.419L14.2825 187.834V177.645L15.7399 161.237L26.3061 151.047L34.6863 141.203L39.0585 134.276L38.3298 122.608L35.415 113.493L34.6288 107.87L37.4285 107.755L39.4612 107.314L39.9598 108.216L40.2475 107.199L41.6857 105.932L43.6609 104.666L44.9265 103.764L45.6553 102.152L46.7291 99.446L47.803 98.3713L49.2413 96.3948L50.3151 93.1517L51.2164 91.3479L52.2903 89.544L54.8024 88.6421L60.3828 88.2775L60.5554 86.3009L59.6541 85.0344L59.8267 82.8659L60.9005 80.3521L62.3388 78.3755L65.5796 76.399L67.7466 74.787L69.0122 73.1751L72.4256 71.7358L75.5706 70.7955L75.7623 70.4693H76.6636L77.5841 69.7593L78.8306 68.7422L80.3647 67.8979L82.3399 67.6676L84.3534 67.1879L85.9834 66.094L86.5396 65.7102L89.9338 65.48L94.2868 62.755L94.3252 62.4863L94.7279 62.5439L96.8949 61.2774L100.845 58.9362L107.154 54.4266L111.296 50.4735L115.611 47.0577L120.463 44.7166L124.068 41.8381L131.087 36.6185L133.79 35.7165L137.396 33.74L143.149 30.1323L148.729 25.6227L153.581 22.5523L155.824 20.9787L157.416 20.4606L158.26 19.2517L158.969 18.7527L162.037 17.3135L165.106 16.2389L168.04 14.5118L168.059 14.4926L168.155 14.435L168.193 14.3583L170.303 12.4009L172.872 8.69725L175.883 7.31558L180.389 7.14287L182.652 6.3369L187.715 5.56931L190.591 4.66739H194.542L199.067 4.24521L203.746 3.05544L210.823 2.95949L216.288 2.15352L221.6 2H225.627L230.939 2.47975L234.16 3.28572L237.229 5.22389L240.45 6.50961L241.025 7.91047L241.447 8.58211L240.316 8.9851L238.149 9.71431L235.273 10.6162L232.185 12.5928Z"/>
</mask>
<path d="M358.271 69.6058H360.15L362.125 71.5823L362.854 73.7508L364.119 75.3627L365.558 76.802L367.169 77.7039L367.897 78.2412L369.872 79.8723L370.774 82.5781L371.311 85.4566L372.385 87.0685L373.65 89.0451L375.625 90.4843L376.699 91.9235L377.236 93.5355L379.039 94.6101L380.65 96.9513L380.822 100.367L382.088 102.171L382.989 103.783L383.354 105.951L381.915 107.218L379.403 106.489L378.502 104.512L377.428 103.61L376.527 101.634L375.261 100.194L373.458 97.8532L372.02 96.414L370.582 94.6101L369.144 92.6336L367.878 91.7316L367.341 89.3905L365.903 87.5866L365.174 85.7828L365.539 83.6143L366.267 82.5397L365.539 80.5632L364.273 79.2966L363.372 78.0301L363.736 76.7636L362.662 75.8617L360.859 74.787L360.323 72.4459L360.495 70.8339L358.271 69.6058ZM358.271 69.6058H357.983L357.619 69.2412L358.271 69.6058ZM232.185 12.5928L229.846 15.1067L228.58 17.8124L227.142 21.0555L229.481 23.7613L231.821 22.6866L234.16 21.0747L235.426 18.9062L237.765 15.6632L238.379 15.3369L239.932 14.7612L241.735 15.1258L241.927 16.9105L242.099 17.6397L242.636 19.9809L243.365 21.5928L245.168 22.322V22.6866L245.129 22.7826L245.148 23.3391L245.168 23.3007V24.3178L244.094 25.9297L242.291 28.2709L240.489 30.4393L242.099 31.8786L244.976 31.7059L246.242 28.4628L248.581 25.047L251.285 23.9724L252.915 22.1685L254.717 18.1962L257.958 13.3412L260.125 9.7335L263.194 9.25376L266.032 10.8081L274.258 15.6056L279.474 19.386L278.937 21.1898L277.672 23.1664L275.869 26.2368L275.14 28.4052L273.875 30.0172L273.146 31.9937L273.319 33.4329L274.393 34.6995L276.368 35.7741L278.88 34.8722L280.855 32.3583L281.929 29.6525L283.54 27.4841L284.441 25.5075L285.342 22.8018H290.194L292.495 24.241L295.717 25.853L298.287 27.4649L300.856 30.0363L305.286 32.7037L307.606 34.546L310.157 35.7549L313.743 39.2091L317.29 41.7805L321.643 45.0044L325.498 46.6164L328.24 47.9021L331.596 49.0918L334.032 51.6057L335.144 54.0236L337.234 56.5951L338.787 59.7038L338.442 64.3286L338.787 64.578L339.689 66.7465L341.319 69.2604L343.121 70.8723L344.732 72.6762L346.304 74.5184L346.88 74.6527L347.954 76.8212L348.855 78.625L349.756 81.3308L350.485 84.7465L352.46 89.6016L352.364 89.6591L353.898 91.0408L355.337 92.4801L356.065 93.9193L356.967 96.0686L357.158 96.0877L359.498 98.0643L361.665 101.307L362.528 104.589L364.292 106.354L368.147 110.691L370.563 114.606L370.908 118.425L371.809 120.401L370.831 125.064L369.834 126.35L367.667 127.962L365.328 129.939L363.161 130.668L362.624 131.57L363.352 132.644L363.889 133.719L365.155 134.084L363.889 135.523L361.914 135.887L359.939 136.06L358.328 138.037L357.427 141.817L356.353 143.621L355.087 146.499L352.575 147.037L350.6 148.476V150.99L350.236 154.406L349.507 159.088L347.896 161.429L346.995 163.943L345.192 165.382L344.042 166.418L344.118 167.282L342.508 169.259L341.242 170.871L340.341 172.31L339.804 175.38L338.73 178.086L337.081 181.329L334.051 181.291L331.366 181.559L327.339 183.19L324.386 184.534L314.798 184.764L306.839 188.986L297.941 188.045L291.843 181.003L288.104 174.9L282.006 168.337L276.387 165.996L264.21 164.595L256.712 167.877L251.093 175.38L244.995 195.549L240.316 207.274L234.697 218.519L228.139 227.423L221.58 232.585L213.143 233.525L205.645 234.926L202.366 239.148L209.384 251.813L215.003 259.316L217.822 270.562V283.227L216.882 294.012L218.282 302.455L220.161 309.018L223.441 313.24L226.451 318.268L223.671 329.398L218.282 338.091L214.543 349.336L210.784 358.24L204.686 362.922L197.188 368.545L187.35 376.988L185.011 384.952L180.332 391.515L174.713 394.797L169.094 401.839L166.275 410.283L168.155 418.247L175.653 423.409L180.332 428.571L187.83 435.134L195.328 443.097L201.426 446.839H207.045L211.724 447.78L212.663 453.882L209.384 458.104L205.165 460.925L202.826 465.607L203.766 472.65L201.426 480.153V485.776L196.747 491.878L190.649 494.219L186.43 495.159L183.151 499.381L178.932 504.064L173.773 511.567L169.094 519.07L167.695 524.232L168.155 529.394V534.556L166.755 539.718L165.815 543.46L164.415 550.023L161.136 550.484L158.317 547.663L154.578 544.381L150.167 540.966L148.345 534.403L139.237 532.599L129.399 527.13L121.019 522.025L113.003 516.192L108.995 511.816H98.0646L89.6845 507.076L79.4826 499.055L71.4668 489.94L59.4432 482.283L49.97 474.626L45.9621 470.251L42.3185 464.782L41.2255 460.771V449.104L48.5125 450.543H56.5283L62.7223 448.72L68.552 444.345L73.653 440.699L79.8469 439.24L80.94 430.874H89.3201L96.9716 429.78L100.999 425.404L99.9056 417.038L95.5334 412.662L90.4324 409.746L84.9671 407.193L76.9513 397.349L66.3851 385.681L58.7336 375.127L57.2762 364.189L56.1831 346.707L55.0901 336.498L50.7179 329.59L45.2525 319.381L42.7021 308.442L37.9655 296.775L34.6863 286.585L31.0427 277.47L24.12 270.178L16.1043 258.165L10.2746 246.152L7.72414 229.745L5.90234 219.191L11.0033 208.617L15.3755 202.419L14.2825 187.834V177.645L15.7399 161.237L26.3061 151.047L34.6863 141.203L39.0585 134.276L38.3298 122.608L35.415 113.493L34.6288 107.87L37.4285 107.755L39.4612 107.314L39.9598 108.216L40.2475 107.199L41.6857 105.932L43.6609 104.666L44.9265 103.764L45.6553 102.152L46.7291 99.446L47.803 98.3713L49.2413 96.3948L50.3151 93.1517L51.2164 91.3479L52.2903 89.544L54.8024 88.6421L60.3828 88.2775L60.5554 86.3009L59.6541 85.0344L59.8267 82.8659L60.9005 80.3521L62.3388 78.3755L65.5796 76.399L67.7466 74.787L69.0122 73.1751L72.4256 71.7358L75.5706 70.7955L75.7623 70.4693H76.6636L77.5841 69.7593L78.8306 68.7422L80.3647 67.8979L82.3399 67.6676L84.3534 67.1879L85.9834 66.094L86.5396 65.7102L89.9338 65.48L94.2868 62.755L94.3252 62.4863L94.7279 62.5439L96.8949 61.2774L100.845 58.9362L107.154 54.4266L111.296 50.4735L115.611 47.0577L120.463 44.7166L124.068 41.8381L131.087 36.6185L133.79 35.7165L137.396 33.74L143.149 30.1323L148.729 25.6227L153.581 22.5523L155.824 20.9787L157.416 20.4606L158.26 19.2517L158.969 18.7527L162.037 17.3135L165.106 16.2389L168.04 14.5118L168.059 14.4926L168.155 14.435L168.193 14.3583L170.303 12.4009L172.872 8.69725L175.883 7.31558L180.389 7.14287L182.652 6.3369L187.715 5.56931L190.591 4.66739H194.542L199.067 4.24521L203.746 3.05544L210.823 2.95949L216.288 2.15352L221.6 2H225.627L230.939 2.47975L234.16 3.28572L237.229 5.22389L240.45 6.50961L241.025 7.91047L241.447 8.58211L240.316 8.9851L238.149 9.71431L235.273 10.6162L232.185 12.5928Z" fill="#F5F5F5"/>
<path d="M360.15 69.6058L360.857 68.8989L360.564 68.6058H360.15V69.6058ZM362.125 71.5823L363.073 71.2638L362.998 71.0414L362.832 70.8755L362.125 71.5823ZM362.854 73.7508L361.906 74.0693L361.961 74.2327L362.067 74.3683L362.854 73.7508ZM364.119 75.3627L363.333 75.9803L363.37 76.0273L363.412 76.0696L364.119 75.3627ZM365.558 76.802L364.85 77.5088L364.948 77.6068L365.069 77.6745L365.558 76.802ZM367.169 77.7039L367.762 76.899L367.712 76.8619L367.657 76.8313L367.169 77.7039ZM367.897 78.2412L368.534 77.4701L368.513 77.4526L368.491 77.4363L367.897 78.2412ZM369.872 79.8723L370.821 79.5563L370.73 79.284L370.509 79.1013L369.872 79.8723ZM370.774 82.5781L371.757 82.3947L371.744 82.3272L371.722 82.2621L370.774 82.5781ZM371.311 85.4566L370.328 85.64L370.365 85.8409L370.478 86.011L371.311 85.4566ZM372.385 87.0685L373.227 86.5293L373.222 86.5216L373.217 86.5141L372.385 87.0685ZM373.65 89.0451L372.808 89.5843L372.909 89.7426L373.061 89.8533L373.65 89.0451ZM375.625 90.4843L376.427 89.8863L376.336 89.7651L376.214 89.6761L375.625 90.4843ZM376.699 91.9235L377.648 91.6075L377.597 91.4547L377.501 91.3255L376.699 91.9235ZM377.236 93.5355L376.287 93.8515L376.405 94.2041L376.724 94.3944L377.236 93.5355ZM379.039 94.6101L379.863 94.0433L379.739 93.8631L379.551 93.7512L379.039 94.6101ZM380.65 96.9513L381.648 96.9008L381.634 96.6179L381.473 96.3845L380.65 96.9513ZM380.822 100.367L379.823 100.418L379.838 100.705L380.004 100.941L380.822 100.367ZM382.088 102.171L382.961 101.683L382.936 101.638L382.906 101.597L382.088 102.171ZM382.989 103.783L383.975 103.617L383.947 103.446L383.862 103.295L382.989 103.783ZM383.354 105.951L384.014 106.702L384.432 106.334L384.34 105.786L383.354 105.951ZM381.915 107.218L381.637 108.178L382.164 108.331L382.576 107.968L381.915 107.218ZM379.403 106.489L378.493 106.904L378.684 107.321L379.124 107.449L379.403 106.489ZM378.502 104.512L379.412 104.097L379.318 103.892L379.145 103.746L378.502 104.512ZM377.428 103.61L376.518 104.025L376.612 104.231L376.785 104.376L377.428 103.61ZM376.527 101.634L377.437 101.219L377.375 101.084L377.278 100.973L376.527 101.634ZM375.261 100.194L374.469 100.804L374.489 100.83L374.51 100.855L375.261 100.194ZM373.458 97.8532L374.251 97.2431L374.211 97.192L374.166 97.1463L373.458 97.8532ZM372.02 96.414L371.238 97.0374L371.273 97.0812L371.313 97.1208L372.02 96.414ZM370.582 94.6101L369.773 95.1985L369.786 95.2163L369.8 95.2335L370.582 94.6101ZM369.144 92.6336L369.952 92.0452L369.857 91.9136L369.724 91.8192L369.144 92.6336ZM367.878 91.7316L366.903 91.9552L366.988 92.3255L367.298 92.546L367.878 91.7316ZM367.341 89.3905L368.316 89.1669L368.265 88.9451L368.123 88.7671L367.341 89.3905ZM365.903 87.5866L364.976 87.9612L365.03 88.0962L365.121 88.2101L365.903 87.5866ZM365.174 85.7828L364.188 85.6171L364.141 85.8956L364.247 86.1574L365.174 85.7828ZM365.539 83.6143L364.711 83.0531L364.588 83.2336L364.552 83.4486L365.539 83.6143ZM366.267 82.5397L367.095 83.101L367.383 82.6758L367.206 82.1938L366.267 82.5397ZM365.539 80.5632L366.477 80.2172L366.401 80.0115L366.246 79.8563L365.539 80.5632ZM364.273 79.2966L363.458 79.8764L363.507 79.9445L363.566 80.0035L364.273 79.2966ZM363.372 78.0301L362.411 77.7536L362.277 78.217L362.557 78.6099L363.372 78.0301ZM363.736 76.7636L364.697 77.04L364.877 76.4157L364.379 75.9978L363.736 76.7636ZM362.662 75.8617L363.305 75.0959L363.243 75.044L363.174 75.0027L362.662 75.8617ZM360.859 74.787L359.885 75.0106L359.98 75.4271L360.347 75.646L360.859 74.787ZM360.323 72.4459L359.328 72.3394L359.31 72.5061L359.348 72.6694L360.323 72.4459ZM360.495 70.8339L361.489 70.9404L361.56 70.2797L360.978 69.9585L360.495 70.8339ZM357.983 69.6058L357.276 70.3126L357.569 70.6058H357.983V69.6058ZM357.619 69.2412L358.107 68.3684L356.911 69.948L357.619 69.2412ZM232.185 12.5928L231.646 11.7506L231.539 11.8188L231.453 11.9115L232.185 12.5928ZM229.846 15.1067L229.114 14.4254L229.006 14.5405L228.94 14.683L229.846 15.1067ZM228.58 17.8124L227.674 17.3887L227.67 17.3978L227.666 17.407L228.58 17.8124ZM227.142 21.0555L226.228 20.6501L225.97 21.2298L226.385 21.7096L227.142 21.0555ZM229.481 23.7613L228.725 24.4153L229.216 24.9835L229.899 24.67L229.481 23.7613ZM231.821 22.6866L232.238 23.5954L232.317 23.5592L232.388 23.5101L231.821 22.6866ZM234.16 21.0747L234.728 21.8982L234.911 21.7715L235.024 21.5788L234.16 21.0747ZM235.426 18.9062L234.615 18.3212L234.587 18.3604L234.562 18.4022L235.426 18.9062ZM237.765 15.6632L237.296 14.7802L237.091 14.8894L236.954 15.0781L237.765 15.6632ZM238.379 15.3369L238.032 14.3993L237.969 14.4225L237.91 14.4539L238.379 15.3369ZM239.932 14.7612L240.131 13.7811L239.852 13.7247L239.585 13.8236L239.932 14.7612ZM241.735 15.1258L242.729 15.019L242.651 14.2909L241.933 14.1457L241.735 15.1258ZM241.927 16.9105L240.933 17.0173L240.939 17.0797L240.954 17.1408L241.927 16.9105ZM242.099 17.6397L243.074 17.4162L243.072 17.4094L242.099 17.6397ZM242.636 19.9809L241.662 20.2044L241.684 20.3018L241.725 20.3928L242.636 19.9809ZM243.365 21.5928L242.454 22.0048L242.619 22.3697L242.99 22.5198L243.365 21.5928ZM245.168 22.322H246.168V21.6478L245.543 21.395L245.168 22.322ZM245.168 22.6866L246.096 23.0581L246.168 22.8793V22.6866H245.168ZM245.129 22.7826L244.201 22.4111L244.123 22.6066L244.13 22.8171L245.129 22.7826ZM245.148 23.3391L244.149 23.3736L246.043 23.7864L245.148 23.3391ZM245.168 23.3007H246.168L244.273 22.8534L245.168 23.3007ZM245.168 24.3178L246 24.8722L246.168 24.6204V24.3178H245.168ZM244.094 25.9297L244.886 26.5398L244.907 26.5127L244.926 26.4842L244.094 25.9297ZM242.291 28.2709L243.06 28.9101L243.072 28.8958L243.084 28.8809L242.291 28.2709ZM240.489 30.4393L239.72 29.8001L239.103 30.5421L239.822 31.185L240.489 30.4393ZM242.099 31.8786L241.433 32.6243L241.744 32.9017L242.159 32.8768L242.099 31.8786ZM244.976 31.7059L245.036 32.7041L245.675 32.6657L245.907 32.0694L244.976 31.7059ZM246.242 28.4628L245.416 27.8977L245.352 27.9923L245.31 28.0992L246.242 28.4628ZM248.581 25.047L248.212 24.1177L247.928 24.2303L247.756 24.4819L248.581 25.047ZM251.285 23.9724L251.654 24.9016L251.871 24.8156L252.027 24.6428L251.285 23.9724ZM252.915 22.1685L253.657 22.839L253.761 22.7235L253.826 22.5817L252.915 22.1685ZM254.717 18.1962L253.886 17.641L253.841 17.7088L253.807 17.783L254.717 18.1962ZM257.958 13.3412L258.79 13.8964L258.803 13.8765L258.816 13.8561L257.958 13.3412ZM260.125 9.7335L259.971 8.74551L259.509 8.81774L259.268 9.2186L260.125 9.7335ZM263.194 9.25376L263.674 8.37668L263.375 8.21318L263.039 8.26576L263.194 9.25376ZM266.032 10.8081L266.535 9.94429L266.524 9.93752L266.512 9.93106L266.032 10.8081ZM274.258 15.6056L274.845 14.7959L274.805 14.7668L274.762 14.7417L274.258 15.6056ZM279.474 19.386L280.433 19.6713L280.635 18.9921L280.061 18.5763L279.474 19.386ZM278.937 21.1898L279.78 21.7291L279.856 21.6103L279.896 21.4751L278.937 21.1898ZM277.672 23.1664L276.83 22.6271L276.819 22.6434L276.809 22.6601L277.672 23.1664ZM275.869 26.2368L275.007 25.7305L274.954 25.8199L274.921 25.9182L275.869 26.2368ZM275.14 28.4052L275.927 29.0227L276.033 28.8872L276.088 28.7238L275.14 28.4052ZM273.875 30.0172L273.088 29.3996L272.991 29.5235L272.937 29.6712L273.875 30.0172ZM273.146 31.9937L272.208 31.6478L272.125 31.8737L272.153 32.1128L273.146 31.9937ZM273.319 33.4329L272.326 33.552L272.362 33.8504L272.556 34.0797L273.319 33.4329ZM274.393 34.6995L273.63 35.3462L273.751 35.4886L273.915 35.5779L274.393 34.6995ZM276.368 35.7741L275.89 36.6525L276.284 36.8668L276.706 36.7153L276.368 35.7741ZM278.88 34.8722L279.218 35.8134L279.489 35.7162L279.666 35.49L278.88 34.8722ZM280.855 32.3583L281.641 32.9761L281.731 32.8621L281.785 32.7272L280.855 32.3583ZM281.929 29.6525L281.126 29.0562L281.048 29.1616L280.999 29.2837L281.929 29.6525ZM283.54 27.4841L284.343 28.0804L284.406 27.9954L284.45 27.899L283.54 27.4841ZM284.441 25.5075L285.351 25.9224L285.373 25.874L285.39 25.8236L284.441 25.5075ZM285.342 22.8018V21.8018H284.621L284.394 22.4857L285.342 22.8018ZM290.194 22.8018L290.724 21.9539L290.481 21.8018H290.194V22.8018ZM292.495 24.241L291.965 25.0888L292.005 25.1141L292.048 25.1353L292.495 24.241ZM295.717 25.853L296.248 25.0058L296.207 24.9802L296.164 24.9587L295.717 25.853ZM298.287 27.4649L298.994 26.758L298.914 26.678L298.818 26.6178L298.287 27.4649ZM300.856 30.0363L300.149 30.7432L300.235 30.8298L300.34 30.893L300.856 30.0363ZM305.286 32.7037L305.908 31.9205L305.857 31.8804L305.802 31.8471L305.286 32.7037ZM307.606 34.546L306.985 35.3291L307.074 35.4004L307.178 35.4496L307.606 34.546ZM310.157 35.7549L310.851 35.0347L310.733 34.9213L310.585 34.8513L310.157 35.7549ZM313.743 39.2091L313.049 39.9293L313.099 39.9778L313.156 40.0188L313.743 39.2091ZM317.29 41.7805L317.886 40.9769L317.877 40.9708L317.29 41.7805ZM321.643 45.0044L321.048 45.808L321.146 45.8802L321.258 45.927L321.643 45.0044ZM325.498 46.6164L325.922 45.7109L325.903 45.702L325.884 45.6938L325.498 46.6164ZM328.24 47.9021L327.816 48.8075L327.86 48.8283L327.906 48.8446L328.24 47.9021ZM331.596 49.0918L332.314 48.396L332.151 48.2277L331.93 48.1493L331.596 49.0918ZM334.032 51.6057L334.94 51.1878L334.869 51.0326L334.75 50.9099L334.032 51.6057ZM335.144 54.0236L334.235 54.4415L334.288 54.5563L334.368 54.6544L335.144 54.0236ZM337.234 56.5951L338.129 56.1481L338.079 56.0497L338.01 55.9643L337.234 56.5951ZM338.787 59.7038L339.785 59.7782L339.805 59.5034L339.682 59.2569L338.787 59.7038ZM338.442 64.3286L337.445 64.2541L337.403 64.8116L337.856 65.139L338.442 64.3286ZM338.787 64.578L339.711 64.1942L339.602 63.9332L339.373 63.7676L338.787 64.578ZM339.689 66.7465L338.765 67.1303L338.8 67.2143L338.85 67.2905L339.689 66.7465ZM341.319 69.2604L340.48 69.8044L340.552 69.9166L340.652 70.0058L341.319 69.2604ZM343.121 70.8723L343.867 70.2062L343.83 70.1643L343.788 70.1269L343.121 70.8723ZM344.732 72.6762L345.493 72.0269L345.485 72.0184L345.478 72.0101L344.732 72.6762ZM346.304 74.5184L345.544 75.1676L345.757 75.4175L346.077 75.4922L346.304 74.5184ZM346.88 74.6527L347.776 74.2089L347.567 73.7862L347.107 73.6789L346.88 74.6527ZM347.954 76.8212L347.058 77.2649L347.059 77.2681L347.954 76.8212ZM348.855 78.625L349.804 78.309L349.781 78.2416L349.749 78.178L348.855 78.625ZM349.756 81.3308L350.734 81.1221L350.723 81.0676L350.705 81.0147L349.756 81.3308ZM350.485 84.7465L349.507 84.9552L349.525 85.0416L349.559 85.1234L350.485 84.7465ZM352.46 89.6016L352.975 90.4589L353.709 90.018L353.386 89.2247L352.46 89.6016ZM352.364 89.6591L351.849 88.8019L350.691 89.4977L351.695 90.4022L352.364 89.6591ZM353.898 91.0408L354.606 90.334L354.587 90.3154L354.568 90.2978L353.898 91.0408ZM355.337 92.4801L356.229 92.0283L356.157 91.886L356.044 91.7732L355.337 92.4801ZM356.065 93.9193L356.988 93.5326L356.974 93.4995L356.957 93.4676L356.065 93.9193ZM356.967 96.0686L356.044 96.4553L356.275 97.0043L356.867 97.0636L356.967 96.0686ZM357.158 96.0877L357.804 95.3239L357.567 95.1236L357.258 95.0927L357.158 96.0877ZM359.498 98.0643L360.329 97.5087L360.251 97.3914L360.143 97.3004L359.498 98.0643ZM361.665 101.307L362.632 101.053L362.589 100.891L362.496 100.752L361.665 101.307ZM362.528 104.589L361.561 104.843L361.629 105.105L361.82 105.296L362.528 104.589ZM364.292 106.354L365.04 105.69L365.02 105.668L364.999 105.647L364.292 106.354ZM368.147 110.691L368.997 110.166L368.952 110.092L368.894 110.027L368.147 110.691ZM370.563 114.606L371.559 114.516L371.537 114.281L371.414 114.081L370.563 114.606ZM370.908 118.425L369.912 118.515L369.927 118.684L369.998 118.84L370.908 118.425ZM371.809 120.401L372.788 120.607L372.855 120.285L372.719 119.986L371.809 120.401ZM370.831 125.064L371.621 125.677L371.763 125.495L371.81 125.27L370.831 125.064ZM369.834 126.35L370.431 127.152L370.541 127.071L370.624 126.963L369.834 126.35ZM367.667 127.962L367.07 127.16L367.045 127.178L367.022 127.198L367.667 127.962ZM365.328 129.939L365.647 130.886L365.827 130.826L365.973 130.702L365.328 129.939ZM363.161 130.668L362.842 129.72L362.491 129.838L362.301 130.156L363.161 130.668ZM362.624 131.57L361.764 131.058L361.439 131.605L361.796 132.131L362.624 131.57ZM363.352 132.644L364.247 132.197L364.217 132.138L364.18 132.083L363.352 132.644ZM363.889 133.719L362.995 134.166L363.191 134.558L363.612 134.68L363.889 133.719ZM365.155 134.084L365.906 134.744L366.948 133.559L365.432 133.123L365.155 134.084ZM363.889 135.523L364.071 136.506L364.411 136.443L364.64 136.183L363.889 135.523ZM361.914 135.887L362.001 136.884L362.049 136.879L362.096 136.871L361.914 135.887ZM359.939 136.06L359.852 135.064L359.431 135.101L359.164 135.428L359.939 136.06ZM358.328 138.037L357.553 137.405L357.408 137.582L357.355 137.805L358.328 138.037ZM357.427 141.817L358.286 142.329L358.364 142.197L358.4 142.049L357.427 141.817ZM356.353 143.621L355.494 143.109L355.462 143.162L355.438 143.218L356.353 143.621ZM355.087 146.499L355.296 147.477L355.797 147.37L356.003 146.902L355.087 146.499ZM352.575 147.037L352.366 146.059L352.158 146.103L351.986 146.229L352.575 147.037ZM350.6 148.476L350.011 147.668L349.6 147.967V148.476H350.6ZM350.6 150.99L351.594 151.096L351.6 151.043V150.99H350.6ZM350.236 154.406L351.224 154.559L351.227 154.536L351.23 154.512L350.236 154.406ZM349.507 159.088L350.331 159.655L350.46 159.467L350.495 159.242L349.507 159.088ZM347.896 161.429L347.072 160.862L346.999 160.969L346.955 161.092L347.896 161.429ZM346.995 163.943L347.619 164.724L347.84 164.547L347.936 164.28L346.995 163.943ZM345.192 165.382L344.568 164.601L344.545 164.619L344.523 164.639L345.192 165.382ZM344.042 166.418L343.372 165.675L343.001 166.01L343.046 166.507L344.042 166.418ZM344.118 167.282L344.894 167.914L345.15 167.599L345.114 167.194L344.118 167.282ZM342.508 169.259L341.732 168.627L341.727 168.634L341.721 168.641L342.508 169.259ZM341.242 170.871L340.455 170.253L340.423 170.295L340.394 170.34L341.242 170.871ZM340.341 172.31L339.493 171.779L339.389 171.945L339.356 172.137L340.341 172.31ZM339.804 175.38L340.733 175.749L340.771 175.654L340.789 175.552L339.804 175.38ZM338.73 178.086L339.621 178.539L339.642 178.498L339.659 178.455L338.73 178.086ZM337.081 181.329L337.068 182.329L337.69 182.337L337.972 181.782L337.081 181.329ZM334.051 181.291L334.063 180.291L334.007 180.29L333.951 180.296L334.051 181.291ZM331.366 181.559L331.266 180.564L331.124 180.579L330.991 180.632L331.366 181.559ZM327.339 183.19L326.963 182.264L326.944 182.271L326.925 182.28L327.339 183.19ZM324.386 184.534L324.41 185.533L324.614 185.528L324.8 185.444L324.386 184.534ZM314.798 184.764L314.774 183.764L314.537 183.77L314.329 183.881L314.798 184.764ZM306.839 188.986L306.734 189.98L307.038 190.012L307.308 189.869L306.839 188.986ZM297.941 188.045L297.185 188.7L297.444 188.998L297.836 189.04L297.941 188.045ZM291.843 181.003L290.991 181.525L291.033 181.595L291.087 181.657L291.843 181.003ZM288.104 174.9L288.956 174.378L288.904 174.293L288.836 174.22L288.104 174.9ZM282.006 168.337L282.738 167.657L282.591 167.498L282.39 167.414L282.006 168.337ZM276.387 165.996L276.772 165.073L276.641 165.019L276.501 165.003L276.387 165.996ZM264.21 164.595L264.324 163.602L264.056 163.571L263.809 163.679L264.21 164.595ZM256.712 167.877L256.311 166.961L256.069 167.066L255.911 167.277L256.712 167.877ZM251.093 175.38L250.293 174.781L250.187 174.922L250.136 175.091L251.093 175.38ZM244.995 195.549L245.924 195.919L245.94 195.879L245.952 195.838L244.995 195.549ZM240.316 207.274L241.211 207.721L241.229 207.683L241.245 207.644L240.316 207.274ZM234.697 218.519L235.502 219.112L235.553 219.043L235.592 218.966L234.697 218.519ZM228.139 227.423L228.757 228.209L228.864 228.125L228.944 228.016L228.139 227.423ZM221.58 232.585L221.691 233.579L221.975 233.547L222.199 233.371L221.58 232.585ZM213.143 233.525L213.032 232.531L212.995 232.536L212.959 232.542L213.143 233.525ZM205.645 234.926L205.461 233.943L205.088 234.013L204.855 234.313L205.645 234.926ZM202.366 239.148L201.576 238.535L201.171 239.056L201.491 239.633L202.366 239.148ZM209.384 251.813L208.51 252.298L208.543 252.358L208.584 252.413L209.384 251.813ZM215.003 259.316L215.973 259.073L215.924 258.878L215.803 258.717L215.003 259.316ZM217.822 270.562H218.822V270.438L218.792 270.319L217.822 270.562ZM217.822 283.227L218.818 283.314L218.822 283.27V283.227H217.822ZM216.882 294.012L215.886 293.925L215.875 294.051L215.896 294.175L216.882 294.012ZM218.282 302.455L217.296 302.619L217.305 302.675L217.321 302.73L218.282 302.455ZM220.161 309.018L219.2 309.293L219.253 309.479L219.372 309.632L220.161 309.018ZM223.441 313.24L224.299 312.726L224.267 312.674L224.23 312.626L223.441 313.24ZM226.451 318.268L227.422 318.51L227.522 318.109L227.309 317.754L226.451 318.268ZM223.671 329.398L224.521 329.925L224.603 329.792L224.641 329.64L223.671 329.398ZM218.282 338.091L217.432 337.564L217.37 337.664L217.333 337.775L218.282 338.091ZM214.543 349.336L215.464 349.725L215.479 349.689L215.492 349.651L214.543 349.336ZM210.784 358.24L211.393 359.033L211.603 358.872L211.705 358.629L210.784 358.24ZM204.686 362.922L205.286 363.722L205.295 363.716L204.686 362.922ZM197.188 368.545L196.588 367.745L196.562 367.765L196.537 367.786L197.188 368.545ZM187.35 376.988L186.699 376.23L186.474 376.423L186.391 376.707L187.35 376.988ZM185.011 384.952L185.825 385.533L185.923 385.396L185.97 385.234L185.011 384.952ZM180.332 391.515L180.836 392.379L181.021 392.27L181.146 392.096L180.332 391.515ZM174.713 394.797L174.209 393.933L174.048 394.027L173.931 394.173L174.713 394.797ZM169.094 401.839L168.313 401.216L168.202 401.354L168.146 401.523L169.094 401.839ZM166.275 410.283L165.327 409.966L165.237 410.236L165.302 410.513L166.275 410.283ZM168.155 418.247L167.182 418.476L167.27 418.852L167.588 419.07L168.155 418.247ZM175.653 423.409L176.394 422.737L176.316 422.651L176.22 422.585L175.653 423.409ZM180.332 428.571L179.591 429.242L179.63 429.285L179.673 429.323L180.332 428.571ZM187.83 435.134L188.558 434.448L188.525 434.413L188.488 434.381L187.83 435.134ZM195.328 443.097L194.6 443.783L194.691 443.88L194.805 443.95L195.328 443.097ZM201.426 446.839L200.903 447.692L201.144 447.839H201.426V446.839ZM207.045 446.839L207.242 445.859L207.144 445.839H207.045V446.839ZM211.724 447.78L212.712 447.628L212.606 446.937L211.921 446.799L211.724 447.78ZM212.663 453.882L213.453 454.496L213.717 454.156L213.652 453.73L212.663 453.882ZM209.384 458.104L209.94 458.935L210.075 458.845L210.174 458.717L209.384 458.104ZM205.165 460.925L204.61 460.094L204.389 460.241L204.271 460.478L205.165 460.925ZM202.826 465.607L201.931 465.16L201.794 465.435L201.835 465.739L202.826 465.607ZM203.766 472.65L204.72 472.947L204.786 472.737L204.757 472.518L203.766 472.65ZM201.426 480.153L200.471 479.855L200.426 480.001V480.153H201.426ZM201.426 485.776L202.22 486.384L202.426 486.115V485.776H201.426ZM196.747 491.878L197.105 492.812L197.369 492.71L197.541 492.486L196.747 491.878ZM190.649 494.219L190.866 495.195L190.938 495.179L191.007 495.153L190.649 494.219ZM186.43 495.159L186.212 494.183L185.861 494.262L185.64 494.546L186.43 495.159ZM183.151 499.381L183.894 500.051L183.918 500.023L183.941 499.995L183.151 499.381ZM178.932 504.064L178.189 503.394L178.145 503.443L178.108 503.497L178.932 504.064ZM173.773 511.567L172.949 511L172.937 511.019L172.925 511.038L173.773 511.567ZM169.094 519.07L168.246 518.541L168.168 518.666L168.129 518.808L169.094 519.07ZM167.695 524.232L166.729 523.97L166.683 524.143L166.698 524.321L167.695 524.232ZM168.155 529.394H169.155V529.35L169.151 529.305L168.155 529.394ZM168.155 534.556L169.12 534.818L169.155 534.689V534.556H168.155ZM166.755 539.718L165.79 539.457L165.787 539.466L165.785 539.475L166.755 539.718ZM165.815 543.46L164.845 543.217L164.841 543.234L164.837 543.252L165.815 543.46ZM164.415 550.023L164.554 551.013L165.247 550.916L165.393 550.232L164.415 550.023ZM161.136 550.484L160.429 551.191L160.781 551.543L161.275 551.474L161.136 550.484ZM158.317 547.663L159.025 546.956L159.001 546.933L158.977 546.911L158.317 547.663ZM154.578 544.381L155.237 543.63L155.214 543.61L155.19 543.591L154.578 544.381ZM150.167 540.966L149.204 541.233L149.292 541.553L149.555 541.756L150.167 540.966ZM148.345 534.403L149.309 534.135L149.144 533.541L148.54 533.422L148.345 534.403ZM139.237 532.599L138.751 533.473L138.888 533.549L139.042 533.58L139.237 532.599ZM129.399 527.13L128.879 527.984L128.896 527.994L128.913 528.004L129.399 527.13ZM121.019 522.025L120.43 522.834L120.464 522.858L120.499 522.879L121.019 522.025ZM113.003 516.192L112.266 516.867L112.334 516.941L112.415 517L113.003 516.192ZM108.995 511.816L109.733 511.141L109.435 510.816H108.995V511.816ZM98.0646 511.816L97.5723 512.687L97.8014 512.816H98.0646V511.816ZM89.6845 507.076L89.0664 507.862L89.1261 507.909L89.1922 507.947L89.6845 507.076ZM79.4826 499.055L78.7316 499.715L78.7923 499.784L78.8645 499.841L79.4826 499.055ZM71.4668 489.94L72.2178 489.279L72.1239 489.173L72.004 489.096L71.4668 489.94ZM59.4432 482.283L58.8146 483.061L58.8584 483.096L58.906 483.127L59.4432 482.283ZM49.97 474.626L49.2326 475.302L49.2832 475.357L49.3414 475.404L49.97 474.626ZM45.9621 470.251L45.1298 470.805L45.1726 470.87L45.2247 470.927L45.9621 470.251ZM42.3185 464.782L41.3537 465.045L41.3964 465.201L41.4863 465.336L42.3185 464.782ZM41.2255 460.771H40.2255V460.905L40.2607 461.034L41.2255 460.771ZM41.2255 449.104L41.4193 448.123L40.2255 447.887V449.104H41.2255ZM48.5125 450.543L48.3188 451.524L48.4147 451.543H48.5125V450.543ZM56.5283 450.543V451.543H56.6724L56.8107 451.502L56.5283 450.543ZM62.7223 448.72L63.0047 449.679L63.1781 449.628L63.3226 449.52L62.7223 448.72ZM68.552 444.345L67.9705 443.531L67.961 443.538L67.9517 443.545L68.552 444.345ZM73.653 440.699L73.4238 439.725L73.2319 439.771L73.0715 439.885L73.653 440.699ZM79.8469 439.24L80.0761 440.214L80.749 440.055L80.8385 439.37L79.8469 439.24ZM80.94 430.874V429.874H80.0622L79.9484 430.744L80.94 430.874ZM89.3201 430.874V431.874H89.3913L89.4617 431.863L89.3201 430.874ZM96.9716 429.78L97.1131 430.77L97.466 430.719L97.7074 430.457L96.9716 429.78ZM100.999 425.404L101.734 426.082L102.051 425.738L101.99 425.275L100.999 425.404ZM99.9056 417.038L100.897 416.908L100.853 416.571L100.613 416.331L99.9056 417.038ZM95.5334 412.662L96.2407 411.956L96.146 411.861L96.0298 411.794L95.5334 412.662ZM90.4324 409.746L90.9288 408.877L90.893 408.857L90.8555 408.839L90.4324 409.746ZM84.9671 407.193L84.1916 407.825L84.3363 408.002L84.544 408.099L84.9671 407.193ZM76.9513 397.349L77.7268 396.717L77.7102 396.697L77.6925 396.678L76.9513 397.349ZM66.3851 385.681L65.5754 386.268L65.6073 386.312L65.6438 386.353L66.3851 385.681ZM58.7336 375.127L57.7424 375.259L57.7757 375.51L57.924 375.714L58.7336 375.127ZM57.2762 364.189L56.2782 364.251L56.2804 364.286L56.285 364.321L57.2762 364.189ZM56.1831 346.707L57.1812 346.645L57.1798 346.622L57.1775 346.6L56.1831 346.707ZM55.0901 336.498L56.0844 336.391L56.0596 336.16L55.9351 335.963L55.0901 336.498ZM50.7179 329.59L49.8362 330.062L49.8534 330.094L49.8729 330.124L50.7179 329.59ZM45.2525 319.381L44.2787 319.608L44.3086 319.736L44.3709 319.853L45.2525 319.381ZM42.7021 308.442L43.6759 308.215L43.6581 308.139L43.6286 308.066L42.7021 308.442ZM37.9655 296.775L37.0135 297.081L37.0249 297.117L37.0389 297.151L37.9655 296.775ZM34.6863 286.585L35.6382 286.279L35.6277 286.246L35.6149 286.214L34.6863 286.585ZM31.0427 277.47L31.9713 277.099L31.9001 276.921L31.768 276.782L31.0427 277.47ZM24.12 270.178L23.2882 270.733L23.3358 270.804L23.3948 270.866L24.12 270.178ZM16.1043 258.165L15.2046 258.602L15.2345 258.663L15.2724 258.72L16.1043 258.165ZM10.2746 246.152L9.28645 246.306L9.30948 246.454L9.37493 246.589L10.2746 246.152ZM7.72414 229.745L8.71227 229.591L8.71098 229.583L8.70956 229.575L7.72414 229.745ZM5.90234 219.191L5.00167 218.756L4.86239 219.045L4.91692 219.361L5.90234 219.191ZM11.0033 208.617L10.1861 208.04L10.1385 208.108L10.1026 208.182L11.0033 208.617ZM15.3755 202.419L16.1927 202.995L16.3996 202.702L16.3727 202.344L15.3755 202.419ZM14.2825 187.834H13.2825V187.872L13.2853 187.909L14.2825 187.834ZM14.2825 177.645L13.2864 177.556L13.2825 177.6V177.645H14.2825ZM15.7399 161.237L15.0457 160.517L14.7769 160.777L14.7438 161.149L15.7399 161.237ZM26.3061 151.047L27.0003 151.767L27.0357 151.733L27.0676 151.696L26.3061 151.047ZM34.6863 141.203L35.4478 141.851L35.4939 141.797L35.532 141.737L34.6863 141.203ZM39.0585 134.276L39.9042 134.809L40.0767 134.536L40.0566 134.213L39.0585 134.276ZM38.3298 122.608L39.3279 122.546L39.3201 122.422L39.2823 122.304L38.3298 122.608ZM35.415 113.493L34.4246 113.631L34.4365 113.716L34.4625 113.797L35.415 113.493ZM34.6288 107.87L34.5877 106.871L33.4857 106.916L33.6384 108.009L34.6288 107.87ZM37.4285 107.755L37.4696 108.754L37.5561 108.751L37.6407 108.732L37.4285 107.755ZM39.4612 107.314L40.3364 106.83L39.9763 106.179L39.249 106.337L39.4612 107.314ZM39.9598 108.216L39.0847 108.7L40.2606 110.827L40.9221 108.488L39.9598 108.216ZM40.2475 107.199L39.5866 106.448L39.3654 106.643L39.2852 106.927L40.2475 107.199ZM41.6857 105.932L41.1459 105.09L41.0819 105.131L41.0248 105.182L41.6857 105.932ZM43.6609 104.666L44.2007 105.507L44.2213 105.494L44.2412 105.48L43.6609 104.666ZM44.9265 103.764L45.5069 104.578L45.7266 104.421L45.8378 104.176L44.9265 103.764ZM45.6553 102.152L46.5665 102.564L46.5761 102.542L46.5847 102.521L45.6553 102.152ZM46.7291 99.446L46.0218 98.7391L45.8758 98.8852L45.7997 99.0771L46.7291 99.446ZM47.803 98.3713L48.5104 99.0782L48.5656 99.0229L48.6116 98.9597L47.803 98.3713ZM49.2413 96.3948L50.0498 96.9831L50.1416 96.8571L50.1906 96.7091L49.2413 96.3948ZM50.3151 93.1517L49.4206 92.7047L49.3884 92.7691L49.3658 92.8374L50.3151 93.1517ZM51.2164 91.3479L50.3572 90.8363L50.3383 90.868L50.3219 90.9009L51.2164 91.3479ZM52.2903 89.544L51.9524 88.6028L51.6146 88.7241L51.4311 89.0325L52.2903 89.544ZM54.8024 88.6421L54.7372 87.6442L54.5969 87.6534L54.4645 87.7009L54.8024 88.6421ZM60.3828 88.2775L60.448 89.2754L61.3044 89.2194L61.379 88.3645L60.3828 88.2775ZM60.5554 86.3009L61.5516 86.3879L61.5836 86.0211L61.3701 85.7211L60.5554 86.3009ZM59.6541 85.0344L58.6572 84.9551L58.6284 85.3178L58.8393 85.6142L59.6541 85.0344ZM59.8267 82.8659L58.9071 82.4731L58.8428 82.6235L58.8298 82.7866L59.8267 82.8659ZM60.9005 80.3521L60.092 79.7637L60.0254 79.8552L59.9809 79.9592L60.9005 80.3521ZM62.3388 78.3755L61.8181 77.5218L61.6477 77.6257L61.5302 77.7872L62.3388 78.3755ZM65.5796 76.399L66.1003 77.2527L66.1396 77.2288L66.1765 77.2013L65.5796 76.399ZM67.7466 74.787L68.3434 75.5894L68.4506 75.5097L68.5331 75.4046L67.7466 74.787ZM69.0122 73.1751L68.6237 72.2536L68.3854 72.3541L68.2257 72.5575L69.0122 73.1751ZM72.4256 71.7358L72.1392 70.7778L72.0872 70.7933L72.0371 70.8144L72.4256 71.7358ZM75.5706 70.7955L75.8571 71.7536L76.2336 71.6411L76.4328 71.3022L75.5706 70.7955ZM75.7623 70.4693V69.4693H75.1901L74.9002 69.9626L75.7623 70.4693ZM76.6636 70.4693V71.4693H77.0045L77.2744 71.2611L76.6636 70.4693ZM77.5841 69.7593L78.1949 70.5511L78.2057 70.5427L78.2163 70.5341L77.5841 69.7593ZM78.8306 68.7422L78.3484 67.8662L78.2688 67.91L78.1984 67.9674L78.8306 68.7422ZM80.3647 67.8979L80.2489 66.9046L80.0543 66.9273L79.8826 67.0218L80.3647 67.8979ZM82.3399 67.6676L82.4557 68.6609L82.5143 68.654L82.5717 68.6404L82.3399 67.6676ZM84.3534 67.1879L84.5852 68.1606L84.7608 68.1188L84.9106 68.0182L84.3534 67.1879ZM85.9834 66.094L86.5407 66.9245L86.5514 66.9171L85.9834 66.094ZM86.5396 65.7102L86.4719 64.7125L86.1977 64.7311L85.9716 64.8872L86.5396 65.7102ZM89.9338 65.48L90.0015 66.4777L90.2518 66.4607L90.4644 66.3276L89.9338 65.48ZM94.2868 62.755L94.8174 63.6026L95.2111 63.3562L95.2768 62.8965L94.2868 62.755ZM94.3252 62.4863L94.4668 61.4964L93.4768 61.3549L93.3353 62.3449L94.3252 62.4863ZM94.7279 62.5439L94.5864 63.5339L94.9315 63.5832L95.2325 63.4073L94.7279 62.5439ZM96.8949 61.2774L97.3995 62.1408L97.4047 62.1377L96.8949 61.2774ZM100.845 58.9362L101.355 59.7965L101.392 59.7747L101.427 59.7498L100.845 58.9362ZM107.154 54.4266L107.736 55.2402L107.793 55.199L107.845 55.15L107.154 54.4266ZM111.296 50.4735L110.676 49.6895L110.639 49.7182L110.606 49.7501L111.296 50.4735ZM115.611 47.0577L115.177 46.1571L115.077 46.2051L114.99 46.2737L115.611 47.0577ZM120.463 44.7166L120.897 45.6172L120.999 45.5683L121.087 45.498L120.463 44.7166ZM124.068 41.8381L123.471 41.0357L123.457 41.0459L123.444 41.0566L124.068 41.8381ZM131.087 36.6185L130.77 35.6698L130.618 35.7205L130.49 35.816L131.087 36.6185ZM133.79 35.7165L134.107 36.6651L134.192 36.6367L134.271 36.5934L133.79 35.7165ZM137.396 33.74L137.876 34.6168L137.902 34.6028L137.927 34.5872L137.396 33.74ZM143.149 30.1323L143.68 30.9795L143.731 30.9477L143.777 30.9101L143.149 30.1323ZM148.729 25.6227L148.194 24.7777L148.145 24.8086L148.1 24.8449L148.729 25.6227ZM153.581 22.5523L154.115 23.3973L154.135 23.3846L154.155 23.371L153.581 22.5523ZM155.824 20.9787L155.515 20.0279L155.372 20.0742L155.25 20.16L155.824 20.9787ZM157.416 20.4606L157.725 21.4115L158.044 21.3078L158.236 21.0329L157.416 20.4606ZM158.26 19.2517L157.684 18.4337L157.54 18.5349L157.44 18.6793L158.26 19.2517ZM158.969 18.7527L158.545 17.8474L158.465 17.8845L158.394 17.9347L158.969 18.7527ZM162.037 17.3135L161.707 16.3697L161.659 16.3865L161.613 16.4081L162.037 17.3135ZM165.106 16.2389L165.436 17.1826L165.529 17.1503L165.613 17.1006L165.106 16.2389ZM168.04 14.5118L168.547 15.3735L168.657 15.3086L168.748 15.2179L168.04 14.5118ZM168.059 14.4926L167.544 13.6352L167.438 13.6988L167.351 13.7864L168.059 14.4926ZM168.155 14.435L168.669 15.2924L168.919 15.1425L169.049 14.8818L168.155 14.435ZM168.193 14.3583L167.513 13.6252L167.38 13.7489L167.298 13.9115L168.193 14.3583ZM170.303 12.4009L170.983 13.1339L171.062 13.0601L171.124 12.9709L170.303 12.4009ZM172.872 8.69725L172.455 7.78839L172.206 7.90247L172.051 8.1272L172.872 8.69725ZM175.883 7.31558L175.845 6.31632L175.646 6.32392L175.466 6.40672L175.883 7.31558ZM180.389 7.14287L180.428 8.14214L180.581 8.13628L180.725 8.0849L180.389 7.14287ZM182.652 6.3369L182.502 5.3482L182.407 5.36261L182.317 5.39487L182.652 6.3369ZM187.715 5.56931L187.865 6.55801L187.941 6.54649L188.014 6.5235L187.715 5.56931ZM190.591 4.66739V3.66739H190.438L190.292 3.71319L190.591 4.66739ZM194.542 4.66739V5.66739H194.588L194.634 5.66306L194.542 4.66739ZM199.067 4.24521L199.16 5.24089L199.238 5.23363L199.314 5.21437L199.067 4.24521ZM203.746 3.05544L203.733 2.05553L203.615 2.05714L203.5 2.08628L203.746 3.05544ZM210.823 2.95949L210.836 3.9594L210.903 3.9585L210.968 3.94879L210.823 2.95949ZM216.288 2.15352L216.259 1.15394L216.2 1.15564L216.142 1.16422L216.288 2.15352ZM221.6 2V1H221.585L221.571 1.00042L221.6 2ZM225.627 2L225.717 1.00405L225.672 1H225.627V2ZM230.939 2.47975L231.181 1.50964L231.106 1.49079L231.029 1.4838L230.939 2.47975ZM234.16 3.28572L234.694 2.44027L234.559 2.35456L234.403 2.31562L234.16 3.28572ZM237.229 5.22389L236.694 6.06934L236.772 6.11852L236.858 6.15266L237.229 5.22389ZM240.45 6.50961L241.375 6.1297L241.214 5.73786L240.821 5.58084L240.45 6.50961ZM241.025 7.91047L240.1 8.29037L240.133 8.36973L240.179 8.44238L241.025 7.91047ZM241.447 8.58211L241.783 9.52414L242.957 9.10585L242.294 8.0502L241.447 8.58211ZM240.316 8.9851L240.635 9.93287L240.643 9.93007L240.652 9.92713L240.316 8.9851ZM238.149 9.71431L238.448 10.6685L238.458 10.6654L238.468 10.6621L238.149 9.71431ZM235.273 10.6162L234.973 9.66204L234.846 9.70201L234.733 9.77403L235.273 10.6162ZM358.271 70.6058H360.15V68.6058H358.271V70.6058ZM359.443 70.3126L361.418 72.2892L362.832 70.8755L360.857 68.8989L359.443 70.3126ZM361.177 71.9009L361.906 74.0693L363.802 73.4322L363.073 71.2638L361.177 71.9009ZM362.067 74.3683L363.333 75.9803L364.906 74.7452L363.64 73.1332L362.067 74.3683ZM363.412 76.0696L364.85 77.5088L366.265 76.0951L364.827 74.6559L363.412 76.0696ZM365.069 77.6745L366.68 78.5764L367.657 76.8313L366.046 75.9294L365.069 77.6745ZM366.575 78.5087L367.304 79.0461L368.491 77.4363L367.762 76.899L366.575 78.5087ZM367.26 79.0123L369.236 80.6434L370.509 79.1013L368.534 77.4701L367.26 79.0123ZM368.924 80.1884L369.825 82.8941L371.722 82.2621L370.821 79.5563L368.924 80.1884ZM369.791 82.7615L370.328 85.64L372.294 85.2732L371.757 82.3947L369.791 82.7615ZM370.478 86.011L371.552 87.623L373.217 86.5141L372.143 84.9021L370.478 86.011ZM371.542 87.6078L372.808 89.5843L374.492 88.5058L373.227 86.5293L371.542 87.6078ZM373.061 89.8533L375.036 91.2925L376.214 89.6761L374.239 88.2369L373.061 89.8533ZM374.824 91.0823L375.898 92.5216L377.501 91.3255L376.427 89.8863L374.824 91.0823ZM375.751 92.2396L376.287 93.8515L378.185 93.2195L377.648 91.6075L375.751 92.2396ZM376.724 94.3944L378.527 95.4691L379.551 93.7512L377.748 92.6765L376.724 94.3944ZM378.215 95.177L379.826 97.5181L381.473 96.3845L379.863 94.0433L378.215 95.177ZM379.651 97.0017L379.823 100.418L381.821 100.317L381.648 96.9008L379.651 97.0017ZM380.004 100.941L381.269 102.745L382.906 101.597L381.641 99.7927L380.004 100.941ZM381.215 102.659L382.116 104.271L383.862 103.295L382.961 101.683L381.215 102.659ZM382.003 103.949L382.367 106.117L384.34 105.786L383.975 103.617L382.003 103.949ZM382.693 105.201L381.254 106.467L382.576 107.968L384.014 106.702L382.693 105.201ZM382.194 106.257L379.682 105.528L379.124 107.449L381.637 108.178L382.194 106.257ZM380.313 106.074L379.412 104.097L377.592 104.927L378.493 106.904L380.313 106.074ZM379.145 103.746L378.071 102.844L376.785 104.376L377.859 105.278L379.145 103.746ZM378.338 103.195L377.437 101.219L375.617 102.048L376.518 104.025L378.338 103.195ZM377.278 100.973L376.012 99.534L374.51 100.855L375.776 102.294L377.278 100.973ZM376.053 99.5843L374.251 97.2431L372.666 98.4633L374.469 100.804L376.053 99.5843ZM374.166 97.1463L372.728 95.7071L371.313 97.1208L372.751 98.5601L374.166 97.1463ZM372.802 95.7906L371.364 93.9867L369.8 95.2335L371.238 97.0374L372.802 95.7906ZM371.391 94.0217L369.952 92.0452L368.335 93.2219L369.773 95.1985L371.391 94.0217ZM369.724 91.8192L368.458 90.9173L367.298 92.546L368.563 93.4479L369.724 91.8192ZM368.853 91.5081L368.316 89.1669L366.366 89.614L366.903 91.9552L368.853 91.5081ZM368.123 88.7671L366.685 86.9632L365.121 88.2101L366.559 90.0139L368.123 88.7671ZM366.83 87.2121L366.101 85.4082L364.247 86.1574L364.976 87.9612L366.83 87.2121ZM366.16 85.9485L366.525 83.7801L364.552 83.4486L364.188 85.6171L366.16 85.9485ZM366.366 84.1756L367.095 83.101L365.44 81.9785L364.711 83.0531L366.366 84.1756ZM367.206 82.1938L366.477 80.2172L364.6 80.9091L365.329 82.8856L367.206 82.1938ZM366.246 79.8563L364.98 78.5898L363.566 80.0035L364.831 81.27L366.246 79.8563ZM365.088 78.7168L364.186 77.4503L362.557 78.6099L363.458 79.8764L365.088 78.7168ZM364.333 78.3066L364.697 77.04L362.775 76.4871L362.411 77.7536L364.333 78.3066ZM364.379 75.9978L363.305 75.0959L362.019 76.6274L363.093 77.5293L364.379 75.9978ZM363.174 75.0027L361.372 73.9281L360.347 75.646L362.15 76.7206L363.174 75.0027ZM361.834 74.5635L361.297 72.2223L359.348 72.6694L359.885 75.0106L361.834 74.5635ZM361.317 72.5523L361.489 70.9404L359.501 70.7275L359.328 72.3394L361.317 72.5523ZM360.978 69.9585L358.754 68.7303L357.787 70.4812L360.012 71.7094L360.978 69.9585ZM358.271 68.6058H357.983V70.6058H358.271V68.6058ZM358.69 68.8989L358.326 68.5343L356.911 69.948L357.276 70.3126L358.69 68.8989ZM357.131 70.114L357.783 70.4786L358.759 68.733L358.107 68.3684L357.131 70.114ZM231.453 11.9115L229.114 14.4254L230.578 15.7879L232.917 13.2741L231.453 11.9115ZM228.94 14.683L227.674 17.3887L229.486 18.2361L230.751 15.5304L228.94 14.683ZM227.666 17.407L226.228 20.6501L228.056 21.4609L229.494 18.2178L227.666 17.407ZM226.385 21.7096L228.725 24.4153L230.238 23.1072L227.898 20.4014L226.385 21.7096ZM229.899 24.67L232.238 23.5954L231.403 21.7779L229.064 22.8525L229.899 24.67ZM232.388 23.5101L234.728 21.8982L233.593 20.2512L231.253 21.8632L232.388 23.5101ZM235.024 21.5788L236.29 19.4103L234.562 18.4022L233.297 20.5706L235.024 21.5788ZM236.237 19.4913L238.576 16.2482L236.954 15.0781L234.615 18.3212L236.237 19.4913ZM238.235 16.5461L238.849 16.2199L237.91 14.4539L237.296 14.7802L238.235 16.5461ZM238.727 16.2746L240.28 15.6989L239.585 13.8236L238.032 14.3993L238.727 16.2746ZM239.734 15.7414L241.537 16.106L241.933 14.1457L240.131 13.7811L239.734 15.7414ZM240.741 15.2327L240.933 17.0173L242.921 16.8037L242.729 15.019L240.741 15.2327ZM240.954 17.1408L241.126 17.87L243.072 17.4094L242.9 16.6802L240.954 17.1408ZM241.125 17.8633L241.662 20.2044L243.611 19.7573L243.074 17.4162L241.125 17.8633ZM241.725 20.3928L242.454 22.0048L244.276 21.1809L243.548 19.5689L241.725 20.3928ZM242.99 22.5198L244.793 23.2491L245.543 21.395L243.74 20.6658L242.99 22.5198ZM244.168 22.322V22.6866H246.168V22.322H244.168ZM244.239 22.3152L244.201 22.4111L246.058 23.1541L246.096 23.0581L244.239 22.3152ZM244.13 22.8171L244.149 23.3736L246.148 23.3046L246.129 22.7481L244.13 22.8171ZM246.043 23.7864L246.062 23.748L244.273 22.8534L244.254 22.8918L246.043 23.7864ZM244.168 23.3007V24.3178H246.168V23.3007H244.168ZM244.335 23.7633L243.261 25.3753L244.926 26.4842L246 24.8722L244.335 23.7633ZM243.301 25.3197L241.499 27.6608L243.084 28.8809L244.886 26.5398L243.301 25.3197ZM241.522 27.6316L239.72 29.8001L241.258 31.0786L243.06 28.9101L241.522 27.6316ZM239.822 31.185L241.433 32.6243L242.766 31.1329L241.155 29.6936L239.822 31.185ZM242.159 32.8768L245.036 32.7041L244.916 30.7077L242.039 30.8804L242.159 32.8768ZM245.907 32.0694L247.173 28.8263L245.31 28.0992L244.044 31.3423L245.907 32.0694ZM247.067 29.0279L249.406 25.6121L247.756 24.4819L245.416 27.8977L247.067 29.0279ZM248.95 25.9763L251.654 24.9016L250.916 23.0431L248.212 24.1177L248.95 25.9763ZM252.027 24.6428L253.657 22.839L252.173 21.4981L250.543 23.3019L252.027 24.6428ZM253.826 22.5817L255.628 18.6095L253.807 17.783L252.004 21.7553L253.826 22.5817ZM255.549 18.7514L258.79 13.8964L257.127 12.786L253.886 17.641L255.549 18.7514ZM258.816 13.8561L260.983 10.2484L259.268 9.2186L257.101 12.8263L258.816 13.8561ZM260.28 10.7215L263.348 10.2418L263.039 8.26576L259.971 8.74551L260.28 10.7215ZM262.713 10.1308L265.551 11.6852L266.512 9.93106L263.674 8.37668L262.713 10.1308ZM265.528 11.672L273.755 16.4694L274.762 14.7417L266.535 9.94429L265.528 11.672ZM273.672 16.4153L278.888 20.1957L280.061 18.5763L274.845 14.7959L273.672 16.4153ZM278.516 19.1007L277.979 20.9045L279.896 21.4751L280.433 19.6713L278.516 19.1007ZM278.095 20.6506L276.83 22.6271L278.514 23.7056L279.78 21.7291L278.095 20.6506ZM276.809 22.6601L275.007 25.7305L276.732 26.743L278.534 23.6727L276.809 22.6601ZM274.921 25.9182L274.193 28.0867L276.088 28.7238L276.817 26.5553L274.921 25.9182ZM274.354 27.7877L273.088 29.3996L274.661 30.6347L275.927 29.0227L274.354 27.7877ZM272.937 29.6712L272.208 31.6478L274.084 32.3396L274.813 30.3631L272.937 29.6712ZM272.153 32.1128L272.326 33.552L274.312 33.3139L274.139 31.8746L272.153 32.1128ZM272.556 34.0797L273.63 35.3462L275.155 34.0528L274.081 32.7862L272.556 34.0797ZM273.915 35.5779L275.89 36.6525L276.846 34.8957L274.871 33.8211L273.915 35.5779ZM276.706 36.7153L279.218 35.8134L278.542 33.931L276.03 34.8329L276.706 36.7153ZM279.666 35.49L281.641 32.9761L280.069 31.7405L278.094 34.2544L279.666 35.49ZM281.785 32.7272L282.858 30.0214L280.999 29.2837L279.926 31.9894L281.785 32.7272ZM282.732 30.2489L284.343 28.0804L282.737 26.8878L281.126 29.0562L282.732 30.2489ZM284.45 27.899L285.351 25.9224L283.531 25.0926L282.63 27.0692L284.45 27.899ZM285.39 25.8236L286.291 23.1178L284.394 22.4857L283.492 25.1915L285.39 25.8236ZM285.342 23.8018H290.194V21.8018H285.342V23.8018ZM289.664 23.6496L291.965 25.0888L293.025 23.3932L290.724 21.9539L289.664 23.6496ZM292.048 25.1353L295.269 26.7473L296.164 24.9587L292.943 23.3467L292.048 25.1353ZM295.185 26.7001L297.755 28.312L298.818 26.6178L296.248 25.0058L295.185 26.7001ZM297.579 28.1718L300.149 30.7432L301.564 29.3295L298.994 26.758L297.579 28.1718ZM300.34 30.893L304.77 33.5604L305.802 31.8471L301.372 29.1797L300.34 30.893ZM304.664 33.4869L306.985 35.3291L308.228 33.7628L305.908 31.9205L304.664 33.4869ZM307.178 35.4496L309.728 36.6585L310.585 34.8513L308.035 33.6423L307.178 35.4496ZM309.463 36.4751L313.049 39.9293L314.437 38.4889L310.851 35.0347L309.463 36.4751ZM313.156 40.0188L316.704 42.5902L317.877 40.9708L314.33 38.3994L313.156 40.0188ZM316.695 42.5841L321.048 45.808L322.239 44.2008L317.886 40.9769L316.695 42.5841ZM321.258 45.927L325.112 47.5389L325.884 45.6938L322.029 44.0818L321.258 45.927ZM325.073 47.5218L327.816 48.8075L328.665 46.9967L325.922 45.7109L325.073 47.5218ZM327.906 48.8446L331.262 50.0344L331.93 48.1493L328.574 46.9596L327.906 48.8446ZM330.878 49.7877L333.313 52.3015L334.75 50.9099L332.314 48.396L330.878 49.7877ZM333.123 52.0236L334.235 54.4415L336.052 53.6057L334.94 51.1878L333.123 52.0236ZM334.368 54.6544L336.458 57.2258L338.01 55.9643L335.92 53.3929L334.368 54.6544ZM336.339 57.042L337.893 60.1508L339.682 59.2569L338.129 56.1481L336.339 57.042ZM337.79 59.6294L337.445 64.2541L339.439 64.403L339.785 59.7782L337.79 59.6294ZM337.856 65.139L338.202 65.3885L339.373 63.7676L339.028 63.5181L337.856 65.139ZM337.864 64.9618L338.765 67.1303L340.612 66.3627L339.711 64.1942L337.864 64.9618ZM338.85 67.2905L340.48 69.8044L342.158 68.7163L340.528 66.2024L338.85 67.2905ZM340.652 70.0058L342.455 71.6177L343.788 70.1269L341.985 68.5149L340.652 70.0058ZM342.375 71.5384L343.986 73.3422L345.478 72.0101L343.867 70.2062L342.375 71.5384ZM343.971 73.3254L345.544 75.1676L347.065 73.8691L345.493 72.0269L343.971 73.3254ZM346.077 75.4922L346.652 75.6265L347.107 73.6789L346.532 73.5446L346.077 75.4922ZM345.984 75.0965L347.058 77.2649L348.85 76.3774L347.776 74.2089L345.984 75.0965ZM347.059 77.2681L347.96 79.072L349.749 78.178L348.848 76.3742L347.059 77.2681ZM347.906 78.941L348.807 81.6468L350.705 81.0147L349.804 78.309L347.906 78.941ZM348.778 81.5394L349.507 84.9552L351.463 84.5379L350.734 81.1221L348.778 81.5394ZM349.559 85.1234L351.534 89.9784L353.386 89.2247L351.411 84.3697L349.559 85.1234ZM351.945 88.7443L351.849 88.8019L352.879 90.5164L352.975 90.4589L351.945 88.7443ZM351.695 90.4022L353.229 91.7839L354.568 90.2978L353.034 88.9161L351.695 90.4022ZM353.191 91.7477L354.629 93.1869L356.044 91.7732L354.606 90.334L353.191 91.7477ZM354.444 92.9318L355.173 94.371L356.957 93.4676L356.229 92.0283L354.444 92.9318ZM355.143 94.306L356.044 96.4553L357.889 95.6818L356.988 93.5326L355.143 94.306ZM356.867 97.0636L357.059 97.0828L357.258 95.0927L357.066 95.0735L356.867 97.0636ZM356.513 96.8516L358.853 98.8282L360.143 97.3004L357.804 95.3239L356.513 96.8516ZM358.666 98.6199L360.833 101.863L362.496 100.752L360.329 97.5087L358.666 98.6199ZM360.698 101.562L361.561 104.843L363.495 104.335L362.632 101.053L360.698 101.562ZM361.82 105.296L363.585 107.061L364.999 105.647L363.235 103.882L361.82 105.296ZM363.545 107.019L367.399 111.356L368.894 110.027L365.04 105.69L363.545 107.019ZM367.296 111.216L369.712 115.131L371.414 114.081L368.997 110.166L367.296 111.216ZM369.567 114.696L369.912 118.515L371.904 118.335L371.559 114.516L369.567 114.696ZM369.998 118.84L370.899 120.816L372.719 119.986L371.818 118.01L369.998 118.84ZM370.831 120.196L369.853 124.859L371.81 125.27L372.788 120.607L370.831 120.196ZM370.041 124.452L369.044 125.737L370.624 126.963L371.621 125.677L370.041 124.452ZM369.237 125.548L367.07 127.16L368.264 128.764L370.431 127.152L369.237 125.548ZM367.022 127.198L364.682 129.175L365.973 130.702L368.312 128.726L367.022 127.198ZM365.009 128.991L362.842 129.72L363.48 131.616L365.647 130.886L365.009 128.991ZM362.301 130.156L361.764 131.058L363.483 132.081L364.02 131.179L362.301 130.156ZM361.796 132.131L362.525 133.206L364.18 132.083L363.451 131.009L361.796 132.131ZM362.458 133.091L362.995 134.166L364.784 133.272L364.247 132.197L362.458 133.091ZM363.612 134.68L364.878 135.045L365.432 133.123L364.166 132.758L363.612 134.68ZM364.404 133.423L363.138 134.862L364.64 136.183L365.906 134.744L364.404 133.423ZM363.708 134.539L361.733 134.904L362.096 136.871L364.071 136.506L363.708 134.539ZM361.827 134.891L359.852 135.064L360.026 137.056L362.001 136.884L361.827 134.891ZM359.164 135.428L357.553 137.405L359.103 138.668L360.714 136.692L359.164 135.428ZM357.355 137.805L356.454 141.585L358.4 142.049L359.301 138.269L357.355 137.805ZM356.568 141.306L355.494 143.109L357.212 144.132L358.286 142.329L356.568 141.306ZM355.438 143.218L354.172 146.097L356.003 146.902L357.268 144.023L355.438 143.218ZM354.878 145.522L352.366 146.059L352.784 148.015L355.296 147.477L354.878 145.522ZM351.986 146.229L350.011 147.668L351.189 149.284L353.164 147.845L351.986 146.229ZM349.6 148.476V150.99H351.6V148.476H349.6ZM349.606 150.884L349.241 154.3L351.23 154.512L351.594 151.096L349.606 150.884ZM349.248 154.252L348.519 158.934L350.495 159.242L351.224 154.559L349.248 154.252ZM348.683 158.521L347.072 160.862L348.72 161.996L350.331 159.655L348.683 158.521ZM346.955 161.092L346.053 163.605L347.936 164.28L348.837 161.767L346.955 161.092ZM346.371 163.162L344.568 164.601L345.816 166.164L347.619 164.724L346.371 163.162ZM344.523 164.639L343.372 165.675L344.711 167.162L345.861 166.125L344.523 164.639ZM343.046 166.507L343.122 167.37L345.114 167.194L345.038 166.33L343.046 166.507ZM343.343 166.65L341.732 168.627L343.283 169.89L344.894 167.914L343.343 166.65ZM341.721 168.641L340.455 170.253L342.028 171.488L343.294 169.876L341.721 168.641ZM340.394 170.34L339.493 171.779L341.188 172.841L342.089 171.401L340.394 170.34ZM339.356 172.137L338.819 175.208L340.789 175.552L341.326 172.482L339.356 172.137ZM338.874 175.011L337.8 177.717L339.659 178.455L340.733 175.749L338.874 175.011ZM337.838 177.633L336.189 180.876L337.972 181.782L339.621 178.539L337.838 177.633ZM337.093 180.329L334.063 180.291L334.038 182.291L337.068 182.329L337.093 180.329ZM333.951 180.296L331.266 180.564L331.466 182.554L334.15 182.286L333.951 180.296ZM330.991 180.632L326.963 182.264L327.714 184.117L331.741 182.486L330.991 180.632ZM326.925 182.28L323.972 183.623L324.8 185.444L327.753 184.101L326.925 182.28ZM324.362 183.534L314.774 183.764L314.822 185.764L324.41 185.533L324.362 183.534ZM314.329 183.881L306.371 188.102L307.308 189.869L315.266 185.647L314.329 183.881ZM306.944 187.991L298.046 187.051L297.836 189.04L306.734 189.98L306.944 187.991ZM298.697 187.391L292.599 180.348L291.087 181.657L297.185 188.7L298.697 187.391ZM292.696 180.48L288.956 174.378L287.251 175.423L290.991 181.525L292.696 180.48ZM288.836 174.22L282.738 167.657L281.273 169.018L287.371 175.581L288.836 174.22ZM282.39 167.414L276.772 165.073L276.002 166.919L281.621 169.261L282.39 167.414ZM276.501 165.003L264.324 163.602L264.096 165.589L276.273 166.99L276.501 165.003ZM263.809 163.679L256.311 166.961L257.113 168.793L264.611 165.512L263.809 163.679ZM255.911 167.277L250.293 174.781L251.894 175.98L257.512 168.476L255.911 167.277ZM250.136 175.091L244.038 195.259L245.952 195.838L252.05 175.67L250.136 175.091ZM244.066 195.178L239.387 206.903L241.245 207.644L245.924 195.919L244.066 195.178ZM239.421 206.827L233.803 218.072L235.592 218.966L241.211 207.721L239.421 206.827ZM233.892 217.926L227.334 226.83L228.944 228.016L235.502 219.112L233.892 217.926ZM227.52 226.637L220.962 231.799L222.199 233.371L228.757 228.209L227.52 226.637ZM221.47 231.591L213.032 232.531L213.254 234.519L221.691 233.579L221.47 231.591ZM212.959 232.542L205.461 233.943L205.828 235.909L213.326 234.508L212.959 232.542ZM204.855 234.313L201.576 238.535L203.155 239.761L206.435 235.54L204.855 234.313ZM201.491 239.633L208.51 252.298L210.259 251.328L203.24 238.663L201.491 239.633ZM208.584 252.413L214.203 259.916L215.803 258.717L210.185 251.214L208.584 252.413ZM214.033 259.56L216.852 270.805L218.792 270.319L215.973 259.073L214.033 259.56ZM216.822 270.562V283.227H218.822V270.562H216.822ZM216.826 283.14L215.886 293.925L217.879 294.098L218.818 283.314L216.826 283.14ZM215.896 294.175L217.296 302.619L219.269 302.292L217.869 293.848L215.896 294.175ZM217.321 302.73L219.2 309.293L221.123 308.743L219.243 302.18L217.321 302.73ZM219.372 309.632L222.651 313.853L224.23 312.626L220.951 308.405L219.372 309.632ZM222.583 313.754L225.593 318.781L227.309 317.754L224.299 312.726L222.583 313.754ZM225.481 318.025L222.701 329.155L224.641 329.64L227.422 318.51L225.481 318.025ZM222.821 328.871L217.432 337.564L219.132 338.618L224.521 329.925L222.821 328.871ZM217.333 337.775L213.594 349.02L215.492 349.651L219.231 338.406L217.333 337.775ZM213.621 348.947L209.863 357.851L211.705 358.629L215.464 349.725L213.621 348.947ZM210.175 357.447L204.077 362.129L205.295 363.716L211.393 359.033L210.175 357.447ZM204.086 362.122L196.588 367.745L197.788 369.345L205.286 363.722L204.086 362.122ZM196.537 367.786L186.699 376.23L188.002 377.747L197.839 369.304L196.537 367.786ZM186.391 376.707L184.051 384.67L185.97 385.234L188.31 377.27L186.391 376.707ZM184.197 384.372L179.518 390.935L181.146 392.096L185.825 385.533L184.197 384.372ZM179.827 390.652L174.209 393.933L175.217 395.66L180.836 392.379L179.827 390.652ZM173.931 394.173L168.313 401.216L169.876 402.463L175.495 395.42L173.931 394.173ZM168.146 401.523L165.327 409.966L167.224 410.6L170.043 402.156L168.146 401.523ZM165.302 410.513L167.182 418.476L169.128 418.017L167.249 410.053L165.302 410.513ZM167.588 419.07L175.086 424.232L176.22 422.585L168.722 417.423L167.588 419.07ZM174.912 424.08L179.591 429.242L181.073 427.899L176.394 422.737L174.912 424.08ZM179.673 429.323L187.171 435.886L188.488 434.381L180.99 427.818L179.673 429.323ZM187.102 435.819L194.6 443.783L196.056 442.412L188.558 434.448L187.102 435.819ZM194.805 443.95L200.903 447.692L201.949 445.987L195.851 442.245L194.805 443.95ZM201.426 447.839H207.045V445.839H201.426V447.839ZM206.848 447.82L211.527 448.76L211.921 446.799L207.242 445.859L206.848 447.82ZM210.735 447.932L211.675 454.034L213.652 453.73L212.712 447.628L210.735 447.932ZM211.874 453.269L208.595 457.49L210.174 458.717L213.453 454.496L211.874 453.269ZM208.828 457.273L204.61 460.094L205.721 461.756L209.94 458.935L208.828 457.273ZM204.271 460.478L201.931 465.16L203.72 466.054L206.06 461.372L204.271 460.478ZM201.835 465.739L202.774 472.782L204.757 472.518L203.817 465.475L201.835 465.739ZM202.811 472.352L200.471 479.855L202.381 480.451L204.72 472.947L202.811 472.352ZM200.426 480.153V485.776H202.426V480.153H200.426ZM200.632 485.167L195.953 491.27L197.541 492.486L202.22 486.384L200.632 485.167ZM196.389 490.944L190.29 493.286L191.007 495.153L197.105 492.812L196.389 490.944ZM190.431 493.243L186.212 494.183L186.648 496.135L190.866 495.195L190.431 493.243ZM185.64 494.546L182.361 498.768L183.941 499.995L187.22 495.773L185.64 494.546ZM182.408 498.712L178.189 503.394L179.675 504.733L183.894 500.051L182.408 498.712ZM178.108 503.497L172.949 511L174.598 512.133L179.756 504.63L178.108 503.497ZM172.925 511.038L168.246 518.541L169.943 519.599L174.622 512.096L172.925 511.038ZM168.129 518.808L166.729 523.97L168.66 524.494L170.06 519.332L168.129 518.808ZM166.698 524.321L167.159 529.483L169.151 529.305L168.691 524.143L166.698 524.321ZM167.155 529.394V534.556H169.155V529.394H167.155ZM167.19 534.294L165.79 539.457L167.72 539.98L169.12 534.818L167.19 534.294ZM165.785 539.475L164.845 543.217L166.785 543.704L167.725 539.962L165.785 539.475ZM164.837 543.252L163.437 549.815L165.393 550.232L166.793 543.669L164.837 543.252ZM164.276 549.033L160.997 549.493L161.275 551.474L164.554 551.013L164.276 549.033ZM161.844 549.777L159.025 546.956L157.61 548.37L160.429 551.191L161.844 549.777ZM158.977 546.911L155.237 543.63L153.918 545.133L157.658 548.414L158.977 546.911ZM155.19 543.591L150.78 540.175L149.555 541.756L153.965 545.172L155.19 543.591ZM151.131 540.698L149.309 534.135L147.382 534.67L149.204 541.233L151.131 540.698ZM148.54 533.422L139.431 531.618L139.042 533.58L148.151 535.384L148.54 533.422ZM139.722 531.725L129.885 526.256L128.913 528.004L138.751 533.473L139.722 531.725ZM129.919 526.276L121.539 521.171L120.499 522.879L128.879 527.984L129.919 526.276ZM121.607 521.217L113.592 515.383L112.415 517L120.43 522.834L121.607 521.217ZM113.741 515.516L109.733 511.141L108.258 512.492L112.266 516.867L113.741 515.516ZM108.995 510.816H98.0646V512.816H108.995V510.816ZM98.5569 510.946L90.1768 506.206L89.1922 507.947L97.5723 512.687L98.5569 510.946ZM90.3026 506.29L80.1007 498.269L78.8645 499.841L89.0664 507.862L90.3026 506.29ZM80.2335 498.395L72.2178 489.279L70.7159 490.6L78.7316 499.715L80.2335 498.395ZM72.004 489.096L59.9803 481.44L58.906 483.127L70.9297 490.783L72.004 489.096ZM60.0718 481.505L50.5986 473.849L49.3414 475.404L58.8146 483.061L60.0718 481.505ZM50.7074 473.951L46.6994 469.576L45.2247 470.927L49.2326 475.302L50.7074 473.951ZM46.7943 469.697L43.1508 464.228L41.4863 465.336L45.1298 470.805L46.7943 469.697ZM43.2833 464.519L42.1903 460.508L40.2607 461.034L41.3537 465.045L43.2833 464.519ZM42.2255 460.771V449.104H40.2255V460.771H42.2255ZM41.0317 450.085L48.3188 451.524L48.7063 449.562L41.4193 448.123L41.0317 450.085ZM48.5125 451.543H56.5283V449.543H48.5125V451.543ZM56.8107 451.502L63.0047 449.679L62.44 447.761L56.246 449.584L56.8107 451.502ZM63.3226 449.52L69.1523 445.145L67.9517 443.545L62.1221 447.92L63.3226 449.52ZM69.1335 445.158L74.2345 441.512L73.0715 439.885L67.9705 443.531L69.1335 445.158ZM73.8822 441.672L80.0761 440.214L79.6178 438.267L73.4238 439.725L73.8822 441.672ZM80.8385 439.37L81.9316 431.003L79.9484 430.744L78.8554 439.111L80.8385 439.37ZM80.94 431.874H89.3201V429.874H80.94V431.874ZM89.4617 431.863L97.1131 430.77L96.8301 428.79L89.1786 429.884L89.4617 431.863ZM97.7074 430.457L101.734 426.082L100.263 424.727L96.2358 429.102L97.7074 430.457ZM101.99 425.275L100.897 416.908L98.914 417.167L100.007 425.534L101.99 425.275ZM100.613 416.331L96.2407 411.956L94.826 413.369L99.1983 417.745L100.613 416.331ZM96.0298 411.794L90.9288 408.877L89.936 410.614L95.037 413.53L96.0298 411.794ZM90.8555 408.839L85.3902 406.287L84.544 408.099L90.0093 410.652L90.8555 408.839ZM85.7425 406.562L77.7268 396.717L76.1759 397.98L84.1916 407.825L85.7425 406.562ZM77.6925 396.678L67.1263 385.01L65.6438 386.353L76.2101 398.02L77.6925 396.678ZM67.1947 385.095L59.5432 374.54L57.924 375.714L65.5754 386.268L67.1947 385.095ZM59.7249 374.995L58.2675 364.057L56.285 364.321L57.7424 375.259L59.7249 374.995ZM58.2743 364.126L57.1812 346.645L55.1851 346.769L56.2782 364.251L58.2743 364.126ZM57.1775 346.6L56.0844 336.391L54.0958 336.604L55.1888 346.813L57.1775 346.6ZM55.9351 335.963L51.5628 329.055L49.8729 330.124L54.2451 337.033L55.9351 335.963ZM51.5995 329.118L46.1342 318.909L44.3709 319.853L49.8362 330.062L51.5995 329.118ZM46.2264 319.154L43.6759 308.215L41.7282 308.669L44.2787 319.608L46.2264 319.154ZM43.6286 308.066L38.892 296.399L37.0389 297.151L41.7755 308.819L43.6286 308.066ZM38.9174 296.469L35.6382 286.279L33.7344 286.892L37.0135 297.081L38.9174 296.469ZM35.6149 286.214L31.9713 277.099L30.1142 277.841L33.7577 286.956L35.6149 286.214ZM31.768 276.782L24.8453 269.489L23.3948 270.866L30.3175 278.159L31.768 276.782ZM24.9518 269.623L16.9361 257.61L15.2724 258.72L23.2882 270.733L24.9518 269.623ZM17.0039 257.728L11.1742 245.716L9.37493 246.589L15.2046 258.602L17.0039 257.728ZM11.2627 245.999L8.71227 229.591L6.736 229.899L9.28645 246.306L11.2627 245.999ZM8.70956 229.575L6.88777 219.02L4.91692 219.361L6.73871 229.915L8.70956 229.575ZM6.80301 219.625L11.904 209.051L10.1026 208.182L5.00167 218.756L6.80301 219.625ZM11.8205 209.193L16.1927 202.995L14.5584 201.842L10.1861 208.04L11.8205 209.193ZM16.3727 202.344L15.2797 187.76L13.2853 187.909L14.3783 202.493L16.3727 202.344ZM15.2825 187.834V177.645H13.2825V187.834H15.2825ZM15.2786 177.733L16.736 161.326L14.7438 161.149L13.2864 177.556L15.2786 177.733ZM16.4341 161.957L27.0003 151.767L25.612 150.328L15.0457 160.517L16.4341 161.957ZM27.0676 151.696L35.4478 141.851L33.9248 140.555L25.5447 150.399L27.0676 151.696ZM35.532 141.737L39.9042 134.809L38.2129 133.742L33.8406 140.669L35.532 141.737ZM40.0566 134.213L39.3279 122.546L37.3318 122.67L38.0605 134.338L40.0566 134.213ZM39.2823 122.304L36.3675 113.188L34.4625 113.797L37.3773 122.913L39.2823 122.304ZM36.4053 113.354L35.6191 107.732L33.6384 108.009L34.4246 113.631L36.4053 113.354ZM34.6699 108.869L37.4696 108.754L37.3874 106.756L34.5877 106.871L34.6699 108.869ZM37.6407 108.732L39.6734 108.291L39.249 106.337L37.2163 106.778L37.6407 108.732ZM38.5861 107.798L39.0847 108.7L40.835 107.732L40.3364 106.83L38.5861 107.798ZM40.9221 108.488L41.2097 107.471L39.2852 106.927L38.9976 107.944L40.9221 108.488ZM40.9084 107.949L42.3466 106.683L41.0248 105.182L39.5866 106.448L40.9084 107.949ZM42.2255 106.774L44.2007 105.507L43.1211 103.824L41.1459 105.09L42.2255 106.774ZM44.2412 105.48L45.5069 104.578L44.3462 102.949L43.0805 103.851L44.2412 105.48ZM45.8378 104.176L46.5665 102.564L44.744 101.74L44.0153 103.352L45.8378 104.176ZM46.5847 102.521L47.6586 99.8149L45.7997 99.0771L44.7258 101.783L46.5847 102.521ZM47.4365 100.153L48.5104 99.0782L47.0957 97.6645L46.0218 98.7391L47.4365 100.153ZM48.6116 98.9597L50.0498 96.9831L48.4327 95.8064L46.9944 97.783L48.6116 98.9597ZM50.1906 96.7091L51.2644 93.466L49.3658 92.8374L48.2919 96.0804L50.1906 96.7091ZM51.2097 93.5987L52.111 91.7948L50.3219 90.9009L49.4206 92.7047L51.2097 93.5987ZM52.0757 91.8594L53.1496 90.0555L51.4311 89.0325L50.3572 90.8363L52.0757 91.8594ZM52.6282 90.4852L55.1403 89.5833L54.4645 87.7009L51.9524 88.6028L52.6282 90.4852ZM54.8676 89.64L60.448 89.2754L60.3176 87.2796L54.7372 87.6442L54.8676 89.64ZM61.379 88.3645L61.5516 86.3879L59.5592 86.2139L59.3866 88.1905L61.379 88.3645ZM61.3701 85.7211L60.4688 84.4546L58.8393 85.6142L59.7406 86.8807L61.3701 85.7211ZM60.6509 85.1137L60.8235 82.9453L58.8298 82.7866L58.6572 84.9551L60.6509 85.1137ZM60.7463 83.2588L61.8202 80.7449L59.9809 79.9592L58.9071 82.4731L60.7463 83.2588ZM61.7091 80.9405L63.1474 78.9639L61.5302 77.7872L60.092 79.7637L61.7091 80.9405ZM62.8595 79.2293L66.1003 77.2527L65.0589 75.5452L61.8181 77.5218L62.8595 79.2293ZM66.1765 77.2013L68.3434 75.5894L67.1497 73.9847L64.9828 75.5966L66.1765 77.2013ZM68.5331 75.4046L69.7988 73.7926L68.2257 72.5575L66.96 74.1695L68.5331 75.4046ZM69.4007 74.0965L72.8142 72.6573L72.0371 70.8144L68.6237 72.2536L69.4007 74.0965ZM72.7121 72.6939L75.8571 71.7536L75.2842 69.8374L72.1392 70.7778L72.7121 72.6939ZM76.4328 71.3022L76.6245 70.976L74.9002 69.9626L74.7085 70.2889L76.4328 71.3022ZM75.7623 71.4693H76.6636V69.4693H75.7623V71.4693ZM77.2744 71.2611L78.1949 70.5511L76.9734 68.9675L76.0529 69.6775L77.2744 71.2611ZM78.2163 70.5341L79.4628 69.517L78.1984 67.9674L76.9519 68.9845L78.2163 70.5341ZM79.3128 69.6183L80.8469 68.774L79.8826 67.0218L78.3484 67.8662L79.3128 69.6183ZM80.4805 68.8912L82.4557 68.6609L82.2241 66.6743L80.2489 66.9046L80.4805 68.8912ZM82.5717 68.6404L84.5852 68.1606L84.1217 66.2151L82.1081 66.6948L82.5717 68.6404ZM84.9106 68.0182L86.5407 66.9244L85.4262 65.2637L83.7962 66.3575L84.9106 68.0182ZM86.5514 66.9171L87.1076 66.5333L85.9716 64.8872L85.4155 65.271L86.5514 66.9171ZM86.6073 66.7079L90.0015 66.4777L89.8661 64.4823L86.4719 64.7125L86.6073 66.7079ZM90.4644 66.3276L94.8174 63.6026L93.7562 61.9074L89.4032 64.6323L90.4644 66.3276ZM95.2768 62.8965L95.3152 62.6278L93.3353 62.3449L93.2969 62.6135L95.2768 62.8965ZM94.1837 63.4763L94.5864 63.5339L94.8694 61.554L94.4668 61.4964L94.1837 63.4763ZM95.2325 63.4073L97.3995 62.1407L96.3903 60.414L94.2233 61.6806L95.2325 63.4073ZM97.4047 62.1377L101.355 59.7965L100.335 58.076L96.385 60.4171L97.4047 62.1377ZM101.427 59.7498L107.736 55.2402L106.573 53.6131L100.264 58.1227L101.427 59.7498ZM107.845 55.15L111.987 51.1969L110.606 49.7501L106.464 53.7032L107.845 55.15ZM111.917 51.2576L116.232 47.8418L114.99 46.2737L110.676 49.6895L111.917 51.2576ZM116.046 47.9584L120.897 45.6172L120.028 43.8159L115.177 46.1571L116.046 47.9584ZM121.087 45.498L124.692 42.6196L123.444 41.0566L119.839 43.9351L121.087 45.498ZM124.665 42.6405L131.683 37.4209L130.49 35.816L123.471 41.0357L124.665 42.6405ZM131.403 37.5671L134.107 36.6651L133.474 34.7679L130.77 35.6698L131.403 37.5671ZM134.271 36.5934L137.876 34.6168L136.915 32.8631L133.31 34.8397L134.271 36.5934ZM137.927 34.5872L143.68 30.9795L142.617 29.2851L136.864 32.8928L137.927 34.5872ZM143.777 30.9101L149.358 26.4005L148.1 24.8449L142.52 29.3545L143.777 30.9101ZM149.264 26.4677L154.115 23.3973L153.046 21.7073L148.194 24.7777L149.264 26.4677ZM154.155 23.371L156.398 21.7975L155.25 20.16L153.006 21.7336L154.155 23.371ZM156.134 21.9296L157.725 21.4115L157.106 19.5097L155.515 20.0279L156.134 21.9296ZM158.236 21.0329L159.08 19.824L157.44 18.6793L156.596 19.8883L158.236 21.0329ZM158.835 20.0697L159.544 19.5707L158.394 17.9347L157.684 18.4337L158.835 20.0697ZM159.394 19.6581L162.462 18.2188L161.613 16.4081L158.545 17.8474L159.394 19.6581ZM162.368 18.2573L165.436 17.1826L164.775 15.2951L161.707 16.3697L162.368 18.2573ZM165.613 17.1006L168.547 15.3735L167.532 13.65L164.598 15.3771L165.613 17.1006ZM168.748 15.2179L168.767 15.1987L167.351 13.7864L167.332 13.8056L168.748 15.2179ZM168.573 15.35L168.669 15.2924L167.64 13.5776L167.544 13.6352L168.573 15.35ZM169.049 14.8818L169.088 14.805L167.298 13.9115L167.26 13.9882L169.049 14.8818ZM168.873 15.0913L170.983 13.1339L169.622 11.6679L167.513 13.6252L168.873 15.0913ZM171.124 12.9709L173.694 9.2673L172.051 8.1272L169.481 11.8308L171.124 12.9709ZM173.289 9.60612L176.3 8.22445L175.466 6.40672L172.455 7.78839L173.289 9.60612ZM175.921 8.31485L180.428 8.14214L180.351 6.14361L175.845 6.31632L175.921 8.31485ZM180.725 8.0849L182.988 7.27893L182.317 5.39487L180.054 6.20085L180.725 8.0849ZM182.802 7.3256L187.865 6.55801L187.565 4.58061L182.502 5.3482L182.802 7.3256ZM188.014 6.5235L190.89 5.62158L190.292 3.71319L187.416 4.61511L188.014 6.5235ZM190.591 5.66739H194.542V3.66739H190.591V5.66739ZM194.634 5.66306L199.16 5.24089L198.974 3.24953L194.449 3.67171L194.634 5.66306ZM199.314 5.21437L203.993 4.0246L203.5 2.08628L198.821 3.27605L199.314 5.21437ZM203.76 4.05535L210.836 3.9594L210.809 1.95958L203.733 2.05553L203.76 4.05535ZM210.968 3.94879L216.434 3.14282L216.142 1.16422L210.677 1.97019L210.968 3.94879ZM216.317 3.1531L221.629 2.99958L221.571 1.00042L216.259 1.15394L216.317 3.1531ZM221.6 3H225.627V1H221.6V3ZM225.537 2.99595L230.849 3.47569L231.029 1.4838L225.717 1.00405L225.537 2.99595ZM230.696 3.44985L233.918 4.25582L234.403 2.31562L231.181 1.50964L230.696 3.44985ZM233.626 4.13117L236.694 6.06934L237.763 4.37844L234.694 2.44027L233.626 4.13117ZM236.858 6.15266L240.08 7.43838L240.821 5.58084L237.599 4.29512L236.858 6.15266ZM239.525 6.88952L240.1 8.29037L241.951 7.53056L241.375 6.1297L239.525 6.88952ZM240.179 8.44238L240.601 9.11402L242.294 8.0502L241.872 7.37856L240.179 8.44238ZM241.112 7.64008L239.98 8.04307L240.652 9.92713L241.783 9.52414L241.112 7.64008ZM239.997 8.03732L237.83 8.76654L238.468 10.6621L240.635 9.93287L239.997 8.03732ZM237.85 8.76012L234.973 9.66204L235.572 11.5704L238.448 10.6685L237.85 8.76012ZM234.733 9.77403L231.646 11.7506L232.724 13.435L235.812 11.4584L234.733 9.77403Z" fill="#4B0082" mask="url(#path-1-inside-1_2695_378)"/>
</g>
<defs>
<filter id="filter0_d_2695_378" x="0.502344" y="0.6" width="388.251" height="559.284" filterUnits="userSpaceOnUse" color-interpolation-filters="sRGB">
<feFlood flood-opacity="0" result="BackgroundImageFix"/>
<feColorMatrix in="SourceAlpha" type="matrix" values="0 0 0 0 0 0 0 0 0 0 0 0 0 0 0 0 0 0 127 0" result="hardAlpha"/>
<feOffset dy="4"/>
<feGaussianBlur stdDeviation="2.7"/>
<feComposite in2="hardAlpha" operator="out"/>
<feColorMatrix type="matrix" values="0 0 0 0 0.4608 0 0 0 0 0.2592 0 0 0 0 0.4104 0 0 0 0.56 0"/>
<feBlend mode="hard-light" in2="BackgroundImageFix" result="effect1_dropShadow_2695_378"/>
<feBlend mode="normal" in="SourceGraphic" in2="effect1_dropShadow_2695_378" result="shape"/>
</filter>
</defs>
</svg>
