<svg width="802" height="898" viewBox="0 0 802 898" fill="none" xmlns="http://www.w3.org/2000/svg">
<g filter="url(#filter0_d_2695_380)">
<mask id="path-1-inside-1_2695_380" fill="white">
<path d="M363.49 865.611V867.126L361.76 866.915L359.262 867.241L359.05 868.431L359.262 869.831L361.434 870.484L364.259 871.558L365.778 873.822L364.701 875.549L363.625 877.275L361.03 877.39L357.244 878.043L354.956 878.791L351.593 879.117L347.153 880.633L346.076 881.285L343.789 883.242L340.963 885.295L338.138 888H336.831L335.966 885.947L335.197 883.99L335.312 879.443V875.549L334.102 874.167L334.87 872.441L336.504 871.251L338.561 871.366L342.136 870.829L345.922 870.177L347.979 869.102L349.613 867.376L350.92 865.649L352.227 863.692L351.9 862.291L351.247 861.217V859.26L351.9 856.996L354.187 856.785L356.148 857.437L359.07 858.186L360.915 859.586L361.991 860.891L360.915 861.639L360.799 863.04L362.203 864.229L363.49 865.611ZM382.615 812.063L381.558 813.33L380.251 813.004L379.924 811.929L379.386 810.74L378.079 810.202V808.687H379.598L380.674 808.898L381.443 810.414L382.615 812.063ZM534.019 800.188L532.154 800.437L532 799.382L530.616 798.653L529.156 798.499L528.579 797.521L528.733 796.619L530.597 796.868L532.558 797.444L535.153 798.173L534.999 799.056L534.518 799.861L534.019 800.188ZM608.096 819.623L607.712 820.582L605.213 820.006L601.35 819.239L599.043 817.704L597.505 816.553L593.065 814.442L588.433 811.948L585.146 809.243L583.801 806.941L581.879 803.468L580.533 801.55L579.764 799.248L578.803 797.137V792.897L578.996 790.211L580.533 788.676L582.071 789.827L583.224 791.17L584.762 793.281L586.3 794.624L588.798 796.734L591.681 798.461L595.16 801.339L595.929 804.025L598.62 806.903L599.773 808.629L603.06 811.315L605.174 814.404L606.136 816.706L607.673 818.049L608.096 819.623ZM474.222 794.413L475.356 796.446L477.394 796.197L478.778 795.871L479.912 796.12L480.719 797.655L481.93 798.634L483.314 800.264L484.698 802.221L485.024 804.255L484.775 807.018L483.564 807.497L482.353 808.399L481.142 810.03L479.681 812.217L479.027 815.536L478.22 816.515L477.413 816.764L477.086 815.383L474.395 815.133L473.415 816.188L472.108 818.049L470.724 818.855L469.59 817.397L469.186 815.613L468.283 812.524L467.149 808.457L465.842 805.214L465.592 801.876L466.495 799.363L466.745 796.523L467.476 794.087L468.687 790.921L469.994 789.29L471.128 787.909L471.281 786.777L471.762 784.993L472.569 783.132L475.991 782.882L476.317 783.765L475.837 784.494L473.972 784.82L473.242 785.223L472.761 786.431L472.108 788.062L472.685 789.041L472.838 791.151L473.242 793.012L474.222 794.413ZM355.629 793.626L358.339 794.489L360.184 793.3L362.356 791.669L364.413 790.48L365.931 789.29L367.238 788.849L368.43 790.038L369.949 791.669V792.648L368.757 793.626H367.027L365.066 794.278L363.759 796.773L363.317 799.363L364.509 801.32L366.566 802.95L370.045 803.392L372.217 804.044L373.735 805.444L375.792 807.401L374.811 808.802L371.333 809.128L370.679 811.833L369.276 815.402L366.028 815.843L362.779 816.495L360.28 816.054L357.782 815.191L354.86 814.538L349.863 814.654H340.098L338.58 815.306L334.89 816.61L331.526 816.169L325.894 814.654L319.378 813.675L314.285 813.138L310.806 812.063L305.712 811.622L301.272 811.085L298.985 809.896L298.658 807.517L300.177 805.349L301.695 803.622L305.385 803.181L307.442 802.413L309.287 801.109L311.882 799.056L313.939 796.677L315.784 793.971L317.841 791.919L321.742 789.424L324.779 787.583L327.701 786.182L334.755 785.204L337.465 784.551L340.06 783.688L343.424 782.172L346.019 781.731L349.055 782.383L350.036 784.551L350.247 785.741L350.901 788.331L353.284 791.036L355.629 793.626ZM719.866 777.664L719.078 777.779L717.828 777.222V776.321L718.617 775.975L719.078 775.515L719.866 774.959L720.212 774.057L721 772.925L721.577 771.793L722.711 771.448L722.941 772.579L723.614 773.136L723.153 774.038L722.691 774.268L722.134 775.17L721.346 775.956L720.558 776.743L719.866 777.664ZM713.292 769.97L712.158 770.085L711.812 768.953L712.043 767.937L712.831 767.035L714.311 767.15L714.868 768.397L714.311 769.414L713.292 769.97ZM761.825 748.904L763.305 750.152L765.112 750.036L767.034 751.955L768.629 752.972L770.551 753.432L772.262 754.679L772.378 755.811L771.705 758.19L772.262 762.373L772.935 764.982L773.281 768.838L773.512 772.119L772.378 773.021L771.474 772.464L769.879 771.102L768.86 769.855L768.072 768.608L767.169 767.246L767.515 765.654L767.149 763.85L765.554 763.294L763.747 761.816L760.691 759.322L758.884 757.058L756.27 754.794L754.233 752.3L752.08 750.938L750.389 749.806L750.273 747.773L751.407 746.41L752.426 745.048L754.81 744.492L755.713 745.394L756.732 747.312L759 748.099L761.825 748.904ZM793.809 755.946L792.675 756.617L790.868 755.6L789.619 754.353L787.697 753.336L785.544 751.303L783.737 749.154L782.257 747.35L780.892 745.662L780.777 742.381L780.546 740.463L779.182 738.659L779.528 736.395L780.662 735.839L782.584 735.954L783.045 737.086L784.737 738.103L786.217 739.58L788.485 741.729L790.407 743.763L791.541 745.566L793.694 746.353L795.385 747.715L796.288 749.077L795.942 751.226L795.039 752.358L794.136 754.507L793.809 755.946ZM448.447 745.259L446.14 746.218L441.893 746.027L438.817 746.41L436.126 746.986L433.435 745.067L432.282 743.916L430.36 742.189L429.783 739.504L430.168 737.393L430.36 734.688L429.783 732.961L430.937 731.043L433.435 730.851L436.511 732.002L440.566 733.537L443.642 734.88L446.14 736.606L449.619 738.909L451.926 741.211L452.695 742.938L451.157 744.856L448.447 745.259ZM778.49 723.119L777.24 724.807L775.645 725.824L773.723 726.054L771.916 725.038L770.321 724.251L770.878 723.349L772.57 723.119L773.473 723.579L774.838 723.695L775.856 723.464L776.76 721.776L778.009 720.299L778.682 718.495L779.816 718.841V719.857V720.989L778.797 721.661L778.49 723.119ZM791.656 723.119L789.619 723.349L788.946 722.793L789.177 721.891L790.311 721.335L791.214 720.778L792.233 720.222L792.694 718.188L793.251 716.941L794.616 716.596L795.289 718.073L794.828 719.762L793.809 721.009L792.675 722.141L791.656 723.119ZM737.107 725.498L736.088 725.728L734.839 724.596L733.705 723.349L732.456 721.757L731.206 720.51L730.188 718.917L728.823 716.884L728.265 714.62L729.957 715.982L730.63 716.999L731.764 718.016L733.128 719.148L735.05 720.951L736.184 722.428L737.088 723.906V725.498H737.107ZM465.227 726.975L463.113 727.359L461.383 725.44V723.522L460.037 721.987L458.115 720.068L456.962 718.726L454.655 716.999L454.079 714.505L454.463 711.224L456.385 707.368L458.307 704.298L462.747 702.955L464.285 703.914L465.246 704.682L466.207 707.559L467.36 710.629L468.129 712.931L469.282 715.809L469.09 718.687L467.745 721.373L466.399 724.251L465.227 726.975ZM421.653 717.747L417.79 719.09L414.503 718.514L411.427 717.363L409.89 716.596L408.16 714.869L408.352 713.143L407.391 710.84L409.121 708.538L412.196 707.387L414.311 705.468L417.982 703.742L421.653 701.823L423.767 700.864L426.65 699.904H430.898L434.377 700.672L437.26 702.399L438.798 705.104L440.143 707.022L439.567 709.133L438.221 710.668L436.107 712.011L432.051 713.737L426.458 716.615L421.653 717.747ZM506.667 709.478L507.82 711.397L510.319 711.013L511.472 710.629L512.241 711.78L512.818 712.74L515.893 714.466L516.662 716.385L518.584 718.112L522.448 721.392L525.734 724.27L528.041 726.956L529.579 729.067L528.617 730.026L528.425 731.561L530.732 733.863L531.885 735.398L533.423 737.892L533.807 740.002L531.885 741.154L528.81 740.962L524.754 740.77L523.985 738.659L522.063 739.043L520.718 740.194L518.219 740.002L516.681 738.084L516.105 735.782L515.528 732.309L514.375 730.39L513.221 728.856L508.205 725.383L506.475 724.04L504.745 723.273L501.862 722.505L499.94 721.546H497.633L496.672 723.273L497.057 724.807L498.594 725.191L500.709 726.534L502.823 727.685L504.745 729.22L506.475 730.563L506.091 731.906L504.553 732.482L503.784 734.016L501.093 734.592L499.94 736.511L498.402 738.045L494.347 738.237L490.675 738.813L484.698 738.237L480.834 737.278L477.951 736.511L474.472 736.127L472.166 735.168L470.628 733.249L470.436 730.563L471.589 728.069L472.55 726.342L474.472 724.424L475.625 723.273L476.01 721.929L477.932 721.738L480.046 723.081L483.717 724.615L487.004 724.807L489.695 724.04L490.848 720.951L488.926 719.033H484.486L481.411 717.689L477.74 715.387L476.586 712.701L475.818 709.037L474.28 705.372L473.319 703.262L472.934 700.576L473.127 696.72V695.185L474.472 693.65L475.433 691.923L478.316 691.156L480.431 691.54L484.678 692.307L486.985 693.074L490.464 694.225L491.809 695.76L493.155 697.871L494.885 699.214L496.999 701.324L499.69 702.475L502.381 704.01L504.303 705.929L505.648 707.655L506.667 709.478ZM646.23 629.244L650.305 630.299L654.841 629.992L657.263 631.047L659.685 631.508L661.492 631.047L663.299 629.992L664.817 629.09L665.72 627.421L667.085 626.673L667.239 628.476L668.911 630.74L672.832 631.949L677.215 634.961L684.173 637.379L687.959 641.005L691.592 642.213L695.513 643.882L700.049 644.477L704.585 644.324L708.814 643.729H711.985L715.157 645.398L716.963 646.146L718.924 647.509L722.249 649.024L725.882 649.485L727.996 648.276L730.418 646.607L734.051 646.146H737.069L739.933 646.741L742.796 647.048L744.007 648.41L744.469 651.576L743.565 653.686L745.526 654.895L747.794 654.588L748.544 652.919L749.908 652.612L752.484 650.808L754.444 650.06L757.02 649.005L761.249 648.41L763.824 649.465L765.785 650.674V652.785L764.728 654.588L763.978 657.159L761.71 660.018L759.288 662.588L757.481 665.601L755.213 668.613L754.002 671.184L751.138 675.097L749.543 676.153L748.025 677.208L747.429 679.625L746.372 679.318V677.515L746.218 675.558L745.91 674.196L744.103 672.68L742.739 671.471L741.528 670.723L740.009 669.668H738.337L737.741 671.932L738.049 673.889V676.767V678.877L736.992 680.987L736.53 683.251L738.203 685.515L739.567 686.877V687.779L738.356 688.086L737.299 689.448L735.185 691.252L733.974 692L731.398 693.209L729.88 694.11L728.977 695.012L727.612 693.957L726.093 693.496L724.575 694.398L721.711 694.993L719.443 695.741L717.482 696.202L715.676 697.41L714.772 699.214L712.12 699.521L709.256 698.619L707.891 697.717L706.084 696.202L705.489 693.343L704.585 690.024L702.471 688.662L700.357 687.453L700.203 685.65L698.684 684.901L695.513 683.098L692.937 680.834L691.131 678.263L688.709 676.153L686.902 673.428L685.383 670.109L683.865 667.845L681.905 666.33L682.058 667.231L679.329 666.023L678.118 665.562L677.215 663.298L676.157 662.09L674.197 660.727L669.815 660.574L669.065 661.169L668.469 662.07L666.201 661.61L664.836 660.555L662.876 659.193L661.204 657.236L659.531 655.279L657.263 652.267L654.995 651.058L652.266 649.101L649.998 647.892L649.536 645.782L647.576 644.573L644.712 642.463L642.598 640.045L640.022 638.683L636.543 637.935L635.332 636.266L634.275 634.002L633.525 632.198L632.007 629.781L631.104 628.572L631.565 627.057L633.525 626.75L635.486 626.289L639.119 626.884L643.193 628.093L646.23 629.244ZM741.316 632.87L741.778 634.673L740.721 635.287L739.51 636.343H735.127L733.321 637.091L731.802 638.146L730.284 639.355L727.554 640.256L725.882 641.465L724.517 642.674L723.46 643.134L721.788 642.232L720.423 642.079L718.463 641.024L715.599 640.563L713.638 639.662H711.37L710.774 638.606L711.236 637.858L711.543 636.803L710.486 635.441L708.218 634.386L706.411 634.079L704.739 635.882L703.528 636.784L701.26 637.091L700.049 636.189L698.377 635.287L695.955 634.232L693.841 633.772L691.726 633.177L689.92 631.815L688.401 629.858L686.883 628.189L688.555 624.716L691.573 623.354L694.302 621.685L698.223 620.016L702.144 618.346L706.084 617.598L710.006 616.543H714.849H717.425L721.807 615.948L724.825 616.85L727.689 618.807L730.111 621.378L732.84 623.949L734.051 625.157L736.165 627.421L738.433 630.28L741.316 632.87ZM646.846 616.121L645.481 616.908L643.232 616.62L640.791 616.524L640.887 615.353L642.059 614.778L642.751 613.799L643.482 613.416L644.789 613.703L645.269 614.183L646.154 615.066L646.846 616.121ZM360.684 533.911L362.03 539.302L362.414 549.125L363.952 550.276L366.066 553.154L369.545 556.818L373.985 562.017L377.848 563.744L380.732 564.895L392.11 565.663L397.896 566.238L402.72 568.924L407.545 572.013L410.236 577.212L410.62 582.604L409.659 584.714L405.219 588.379L400.01 592.81L395.186 596.283L392.303 597.818L386.709 598.393L382.269 597.242L379.771 595.324L375.33 593.021L368.199 589.549L363.375 588.206L358.743 587.63L355.86 588.014L353.361 589.741L350.074 591.851L346.403 594.729L343.328 597.818L342.751 601.099L345.442 603.976L349.69 604.744L351.996 605.703H354.879L356.033 604.168L357.763 603.785L357.378 606.087L356.417 607.622L358.147 608.581L358.339 610.883L357.378 612.034L356.033 614.337L352.554 617.617L349.267 620.111L348.306 622.222L343.481 622.798L339.426 620.303L336.139 617.214L332.852 617.023L331.507 614.912L328.431 612.61L319.186 607.602L312.44 604.725L312.247 597.415L310.71 595.496L308.595 596.456L306.673 597.3L305.52 600.005L303.598 599.813L300.715 599.046L298.216 598.662L296.871 599.621L294.756 601.732L293.219 604.821L292.834 607.698L294.18 608.466L298.427 610.384L304.597 614.049L310.383 618.097L317.706 621.761L322.146 624.447L325.221 626.558L325.99 628.285L324.453 629.819L322.146 630.395L317.706 632.505L314.227 634.04L311.133 635.882L307.077 635.959L302.829 638.453L295.89 644.228L288.183 649.811L277.573 655.778L271.403 660.401L268.52 660.593L267.559 656.737L264.08 649.235L260.601 640.237L257.718 633.887L256.18 629.225L252.701 622.299H250.202L248.088 623.258L244.032 626.136L240.553 628.438L237.074 630.932L237.651 633.426L239.573 639.777L242.648 647.854L246.512 659.595L249.798 668.824L249.606 672.104L247.876 673.831L243.821 676.517L239.381 679.606L236.498 680.565L236.305 677.687L231.673 666.713L226.08 652.094L222.024 641.503L220.102 640.544L218.757 641.503L212.971 645.743L208.531 649.216L206.609 651.518L206.801 656.526L214.317 675.769L218.372 689.429L218.18 692.499L216.835 693.65L209.896 696.528L201.804 700.192L194.288 701.727L187.542 702.494L180.603 699.789L175.01 696.336L170.378 691.137L165.553 684.978L163.823 682.1L162.67 680.182L157.653 672.68L151.676 662.473L147.043 654.012L142.988 645.168L139.912 637.858L138.567 633.043L137.606 630.74L135.107 624.582L133.185 617.617L131.84 612.034L131.071 607.986L132.993 605.108L135.107 601.06L139.932 597.012L144.948 592.58L150.926 587.956L158.634 581.414L164.227 576.023L168.667 570.824L173.876 567.159L178.7 563.495L186.792 558.679L195.941 551.369L200.766 547.705L206.359 544.232L210.799 540.76L215.239 538.074L220.064 534.793L224.119 531.512L230.097 529.786L235.498 529.018L237.42 527.867L239.823 528.212L241.168 529.364L247.146 529.555L249.26 528.021L250.029 524.74L252.528 522.821L256.968 522.246H260.831L262.561 523.397L261.985 527.445L259.294 529.172L257.564 530.323L254.085 533.412L248.876 537.46L246.377 539.762L244.263 543.618L243.494 547.667L242.533 549.01L239.65 552.29L236.574 556.914L231.75 562.113L227.118 566.353L223.447 569.634L223.639 573.107L224.6 574.258L227.291 577.136L231.346 580.417L234.825 582.527L235.786 580.8L238.477 579.073L241.956 576.963L244.455 575.044L246.569 572.742L247.915 571.591L249.068 572.167L250.029 573.51L252.528 574.661L254.066 573.51L255.795 571.975H258.102L260.408 571.591L261.369 568.637L259.447 566.334L259.063 563.648L259.447 560.77L261.177 557.298L263.868 553.825L267.732 549.969L270.807 547.667L272.729 545.748L275.228 545.172L276.765 545.748L278.111 547.091L280.61 546.707L282.724 544.597L283.493 542.678L283.301 540.76L282.147 539.225L281.955 536.731L282.724 535.772L283.685 536.923L284.646 537.882L286.376 538.841H289.067L290.797 536.155L292.719 533.853L291.566 531.359L289.259 529.44L287.529 528.673V526.908L288.682 525.565L291.566 523.838L295.237 521.536L298.908 519.617L301.791 519.234L305.655 519.042L310.287 516.931L314.342 516.164L319.744 515.013L327.067 513.862L333.237 514.629L338.253 515.78L342.309 517.507L347.326 519.425L351.189 523.09L354.264 525.661L357.34 528.539L359.07 530.457L360.684 533.911ZM268.577 495.002H264.31L262.042 493.582L261.196 491.606V488.767L260.774 485.083L259.928 482.819L259.217 479.98L258.506 477.985L258.217 475.855L258.64 474.013L260.639 473.879L262.484 474.301L263.772 475.855L265.194 477.831L268.597 481.38L270.019 483.51L270.73 485.064L270.442 486.906L270.153 488.613L269.865 493.851L268.577 495.002ZM347.883 10.6999L350.785 12.2347L354.13 11.333L360.165 10.2586L363.394 7.47671L367.834 5.76919L370.717 6.19127L373.178 6.09535L374.369 9.18423L374.273 11.4098L376.253 12.5609L379.328 13.6928L380.789 15.4771L381.116 17.8945L382.25 20.638L384.518 22.5758L387.824 23.5926L391.015 24.5135L393.283 26.9309L395.397 28.0629L395.243 30.6529L392.495 32.9168L392.014 36.965L394.801 39.5359L399.472 39.7085L402.547 39.555L417.463 38.8068L420.999 36.658L421.711 36.447L424.94 37.7324L429.668 39.2481L434.608 42.4713L437.183 45.9055L439.759 46.3276L441.566 46.1933L446.14 45.8863L448.889 46.0398L450.657 44.102L452.426 42.8166L454.848 42.6631L458.865 41.7422L460.498 41.8765L461.978 42.4329L463.612 42.241L465.15 42.4713L466.534 42.548L467.726 42.1451L470.147 41.5695H471.993L472.819 41.9149L473.607 47.5363L476.529 56.6494L477.259 68.3143L472.877 75.2403L464.477 85.0825L453.886 95.27L452.426 111.674V121.861L453.521 136.442L449.139 142.639L444.026 153.211L445.852 163.763L448.409 180.166L454.252 192.177L462.286 204.187L469.225 211.477L472.877 220.59L476.164 230.778L480.911 242.443L483.467 253.379L488.945 263.585L493.328 270.492L494.423 280.699L495.519 298.177L496.98 309.113L504.649 319.665L515.24 331.33L523.274 341.172L528.752 343.724L533.865 346.64L538.247 351.014L539.343 359.379L535.306 363.753L527.637 364.847H519.238L518.142 373.212L511.934 374.67L506.821 378.315L500.978 382.69L494.769 384.512H486.735L479.431 383.073V394.738L480.527 398.748L484.179 404.216L488.196 408.59L497.691 416.245L509.742 423.9L517.777 433.013L528.002 441.033L536.402 445.772H547.358L551.375 450.146L559.409 455.979L567.809 461.082L577.669 466.55L586.799 468.353L588.625 474.915L587.53 481.457L583.878 488.019L581.321 493.851L584.243 501.506L589.356 505.151L591.912 511.713L593.373 518.274L594.834 527.752L596.294 538.304L599.581 544.501L607.616 551.408L615.65 553.96L620.032 551.043L628.067 551.408L633.545 553.595L641.214 553.96L649.978 553.595L652.9 557.969L653.631 564.531L647.787 569.634L644.135 573.279L639.753 579.476L638.292 585.309L640.118 591.141L643.405 597.338L648.153 601.348L650.363 602.422L647.787 606.547L642.559 606.375L640.214 607.43L639.253 609.157L637.504 610.711L634.717 610.538L632.103 610.193L629.835 607.929L626.779 605.588L618.264 597.185L615.419 596.993L615.708 600.216L624.511 608.715L624.645 612.188L623.531 613.205L622.05 614.183L619.11 614.087L617.437 613.109L615.285 610.768L613.42 608.523L611.863 607.737L611.075 604.897L608.73 602.557L606.078 600.6L605.386 598.547L603.425 597.281L600.677 596.897L599.216 595.631L598.736 593.962L597.851 591.717L596.583 590.163L593.834 588.897H590.797L589.24 588.014L588.568 586.997L586.011 586.729L585.319 587.995L584.339 589.165L583.551 590.144H581.494L579.937 588.973L576.516 587.304L572.499 584.963L570.25 584.273L567.348 581.759L561.274 578.249L556.084 575.505L548.838 571.207L541.688 566.814L536.498 564.07L535.133 563.591L534.807 564.301L529.752 572.589L524.562 581.376L518.104 591.352L513.894 599.372L508.013 609.636L506.052 609.732L492.155 600.849L479.239 592.254L458.576 578.958L443.2 569.097L439.182 566.066L436.741 564.013L431.744 562.056L428.227 559.907L426.266 558.641L427.054 556.684L429.995 552.674L440.47 535.618L441.931 533.565L446.333 532.875L450.158 533.469L453.983 535.426L467.687 545L467.668 546.343L466.707 546.458L466.995 549.969L468.552 551.235L470.609 552.31L473.838 554.171L478.528 554.267L480.008 553.633L481.757 552.022L482.929 549.969L484.698 549.489L486.562 550.276V556.818L490.445 559.619L492.29 560.674L495.461 560.425L496.538 559.159L498.594 559.255L500.651 560.617L502.419 561.212L505.841 561.116L507.993 556.415L510.05 552.022L511.319 549.873L511.703 547.609L491.098 534.601L477.163 525.431L480.777 518.792L481.469 513.631L482.064 510.216L481.372 509.487L479.085 508.125L477.24 507.511L474.953 505.228L472.819 501.89L468.283 496.172L464.612 493.486L464.323 488.939L461.825 485.429L459.326 480.728L458.442 475.586L456.231 471.039L454.329 469.716L451.984 467.221L449.197 464.574L445.833 462.444L442.796 461.389L437.606 460.775H432.59L428.765 461.063L424.209 460.909L420.538 461.792L420.826 463.557L421.711 464.881L425.978 466.051L428.592 465.284L435.934 465.783L439.778 467.356L443.315 468.123L444.045 470.291L448.581 473.399L449.504 475.682L448.312 477.639L448.466 480.287L450.369 481.169L450.081 482.052L449.639 484.393L453.022 485.851L454.482 489.669L455.809 494.062L458.288 498.129L458.749 501.698L450.965 501.851L444.353 502.734L435.396 502.887L426.131 500.393L416.137 497.458L407.468 495.846L396.743 493.506L388.516 491.165L380.578 488.517L376.022 486.752L370.429 486.599L369.545 487.923H366.892L365.566 489.534L364.528 490.417V487.194L365.989 475.164L367.162 462.694L367.892 457.552L369.064 449.916L371.409 445.369L377.368 439.767L381.981 433.397L382.961 430.097L381.231 428.984L378.733 428.697L375.215 428.984L372.716 430.443L371.333 433.685L368.123 440.093L361.991 445.427L360.665 447.326L359.492 452.314L358.32 460.526L357.436 464.344L357.147 469.313L356.994 471.25L356.11 473.15L356.033 479.596L355.514 482.493L354.476 485.141L354.034 486.503L349.613 483.875L343.597 479.769L336.831 473.764L330.373 468.622L326.106 465.533L321.397 465.092L317.725 464.497L314.054 464.209L309.653 464.363L307.75 467.145L305.539 468.181L301.272 468.622L300.1 470.828L299.658 474.646L298.485 477.735L298.139 483.798L298.062 484.527L298.024 484.91L296.14 486.791H283.647L283.358 481.361L281.302 479.021L276.9 478.291L273.671 475.951L270 472.728L268.154 469.677L266.194 468.027L260.312 466.991L258.102 468.449L255.315 469.332L252.97 472.114L251.932 475.778L250.894 478.867L251.048 481.515L251.49 484.297L253.085 486.043L252.912 492.182L248.991 492.662L246.05 493.391L239.957 494.753L235.479 494.695L230.962 496.115L222.831 495.866L221.794 486.043L220.025 478.119L219.583 471.231L218.853 466.531L217.084 464.766L216.066 463.288L214.163 461.389L211.664 462.272L210.78 464.919L209.319 466.818V471.519L210.203 476.354L210.645 485.601L211.818 501.007L209.473 502.619L206.59 503.271L205.071 504.23L201.977 503.636L187.273 487.347L186.235 478.982L184.601 472.363L178.892 472.229L171.8 473.725L170.224 475.74L170.82 484.239L172.28 494.81L185.793 509.622V511.674L180.622 516.03L176.817 519.713L169.167 525.584L163.285 531.301L159.172 526.313L156.385 522.936L154.174 522.495L150.638 525.143L143.872 531.014L142.411 527.503L136.587 520.577L134.492 519.291L130.283 514.917L127.534 511.041L125.42 508.777L124.766 506.36L127.188 504.422L128.803 502.485L128.956 500.547L128.226 498.456L125.074 495.041L122.479 491.319H119.404L117.789 492.777L115.367 494.388L113.753 494.235L110.216 491.932L109.12 489.745L111.485 488.709L119.096 480.306L125.573 472.21L130.436 467.835L132.551 465.725L134.492 463.308L135.146 458.933L132.877 456.995L130.456 456.343L128.034 456.823L125.919 457.629L122.844 460.545L119.442 463.787L116.04 468.315L113.291 470.253L111.023 473.169L109.735 474.781L108.448 475.913H106.506L104.238 473.802L101.97 471.059L99.5483 468.948L99.0678 466.531L100.529 463.288L102.316 461.504L105.718 458.588L109.447 454.712L114.964 447.537L115.271 445.254L113.138 442.971L110.389 440.093L107.352 438.712L103.642 441.378L99.2408 445.676L93.0901 451.336L86.7664 458.051L83.7295 455.461L80.2121 452.122L76.6946 449.993L73.7923 446.789L69.8328 444.199L57.416 454.885L55.6285 456.669L58.2233 458.78L68.0836 467.49L68.7179 469.639L85.2672 499.549L86.0937 504.23L98.4143 525.91L104.892 538.304L109.582 547.206L111.215 550.257L111.542 554.785L110.081 557.854L106.564 559.236L100.682 560.118L73.4655 560.598L47.5365 560.156L35.0621 559.312L25.5285 555.84L16.5907 550.084L10.5938 544.75L7.1917 537.786L6.38442 530.189L6 522.227L6.80728 510.581L8.71015 504.557L8.9408 502.811L11.2089 497.938L13.1886 491.702L15.1684 485.141L18.0708 478.445L20.6656 471.442L23.4142 463.826L26.009 455.921L28.4308 450.3L29.8916 444.621L44.5572 406.058L50.8809 388.58L56.2243 375.955L56.5511 371.85L60.4337 362.468L62.375 355.35L64.7969 349.038L63.8166 345.163L62.202 339.177L62.8556 333.997L64.9699 331.08L67.5647 329.296L71.4665 326.15L74.2151 326.38L75.1954 321.699L77.8863 316.077L79.9045 310.13L80.6541 308.537L81.6729 306.657L84.383 304.988L86.7856 302.666L90.1493 296.815L92.3597 292.939L94.5893 288.699L96.992 284.44L100.125 279.107L102.162 274.31L105.315 268.228L107.525 264.909L107.89 262.511L109.562 260.477L111.408 260.669H113.522L113.637 258.635L117.251 257.273L119.365 256.237L120.884 255.969V253.724L122.44 252.266L123.651 247.297L125.497 244.534L126.419 240.85L128.457 237.339L134.011 226.998L134.492 224.811L134.588 220.917L135.837 219.056L137.125 217.77L139.163 217.214L141.392 216.868L142.68 215.583L142.834 213.319L144.333 211.132L144.775 209.271L147.524 208.945L149.119 206.144L148.812 204.263L149.138 200.714L150.042 198.968L149.946 196.992L150.099 180.166L151.08 178.229L151.56 174.18L152.444 174.065V171.475L153.175 168.885L153.502 166.084L153.982 163.667L154.636 163.187L154.482 159.465L153.502 158.333L152.694 156.069L152.848 152.827L154.309 152.021L157.057 151.369L159.172 147.819L160.575 147.205L160.94 144.999L160.767 141.872L159.998 140.107L160.479 138.169L164.861 137.689L166.975 137.21L167.744 139.934L165.688 140.606L165.034 144.155L166.014 146.093L169.57 145.939L171.319 143.906L171.512 142.064L171.723 140.433L174.049 140.452L175.337 141.91L177.451 141.104L178.912 139.819L180.43 138.131L180.545 136.922L179.892 134.812L178.912 132.394L178.104 129.977L176.49 129.171L176.97 127.713L178.758 127.061L185.408 126.408L185.255 123.492L183.64 123.012L182.025 121.88L182.275 119.406L182.083 117.564L182.275 115.722L182.333 114.129L185.255 113.976L186.331 112.038L187.253 110.945L186.235 109.41L184.62 108.278L185.428 107.299L186.715 107.453L187.849 108.259L191.251 107.933L191.732 104.383L193.02 100.182L191.405 98.57L188.734 100.047V95.9991L190.271 95.0206L190.214 91.2027L190.752 89.1882L192.366 87.9028L195.615 87.4231L196.902 85.8115L198.152 84.0081L199.017 82.243L199.17 80.1326L200.631 79.1541L202.246 77.3699L204.033 77.5234L205.821 79.1349L209.069 78.003L210.857 77.6768L213.279 75.7391L214.97 72.8996L216.45 70.5014L219.103 69.2735L220.89 68.9474L222.505 69.2735L225.1 70.559L229.155 71.5375V66.6451L232.404 66.1655L234.191 67.4509L237.439 67.6044L238.573 64.2085L239.573 62.3284L241.976 61.772L244.09 62.5778L247.338 61.2923H250.894L253.873 59.4121L258.813 57.0331L263.119 53.3879L267.847 49.5124L274.728 43.7183L277.957 39.2097L282.263 37.272L286.472 36.6196L288.413 32.418L291.335 31.6122L291.181 27.4106L293.468 24.1874L299.927 19.6788L305.289 16.7434L310.96 12.2156L316.092 8.32088L320.608 7.24648L326.356 6.40232L333.813 4.29189L338.023 2.35415L345.807 1.87451L347.748 3.33261L347.595 7.20811L347.883 10.6999Z"/>
</mask>
<path d="M363.49 865.611V867.126L361.76 866.915L359.262 867.241L359.05 868.431L359.262 869.831L361.434 870.484L364.259 871.558L365.778 873.822L364.701 875.549L363.625 877.275L361.03 877.39L357.244 878.043L354.956 878.791L351.593 879.117L347.153 880.633L346.076 881.285L343.789 883.242L340.963 885.295L338.138 888H336.831L335.966 885.947L335.197 883.99L335.312 879.443V875.549L334.102 874.167L334.87 872.441L336.504 871.251L338.561 871.366L342.136 870.829L345.922 870.177L347.979 869.102L349.613 867.376L350.92 865.649L352.227 863.692L351.9 862.291L351.247 861.217V859.26L351.9 856.996L354.187 856.785L356.148 857.437L359.07 858.186L360.915 859.586L361.991 860.891L360.915 861.639L360.799 863.04L362.203 864.229L363.49 865.611ZM382.615 812.063L381.558 813.33L380.251 813.004L379.924 811.929L379.386 810.74L378.079 810.202V808.687H379.598L380.674 808.898L381.443 810.414L382.615 812.063ZM534.019 800.188L532.154 800.437L532 799.382L530.616 798.653L529.156 798.499L528.579 797.521L528.733 796.619L530.597 796.868L532.558 797.444L535.153 798.173L534.999 799.056L534.518 799.861L534.019 800.188ZM608.096 819.623L607.712 820.582L605.213 820.006L601.35 819.239L599.043 817.704L597.505 816.553L593.065 814.442L588.433 811.948L585.146 809.243L583.801 806.941L581.879 803.468L580.533 801.55L579.764 799.248L578.803 797.137V792.897L578.996 790.211L580.533 788.676L582.071 789.827L583.224 791.17L584.762 793.281L586.3 794.624L588.798 796.734L591.681 798.461L595.16 801.339L595.929 804.025L598.62 806.903L599.773 808.629L603.06 811.315L605.174 814.404L606.136 816.706L607.673 818.049L608.096 819.623ZM474.222 794.413L475.356 796.446L477.394 796.197L478.778 795.871L479.912 796.12L480.719 797.655L481.93 798.634L483.314 800.264L484.698 802.221L485.024 804.255L484.775 807.018L483.564 807.497L482.353 808.399L481.142 810.03L479.681 812.217L479.027 815.536L478.22 816.515L477.413 816.764L477.086 815.383L474.395 815.133L473.415 816.188L472.108 818.049L470.724 818.855L469.59 817.397L469.186 815.613L468.283 812.524L467.149 808.457L465.842 805.214L465.592 801.876L466.495 799.363L466.745 796.523L467.476 794.087L468.687 790.921L469.994 789.29L471.128 787.909L471.281 786.777L471.762 784.993L472.569 783.132L475.991 782.882L476.317 783.765L475.837 784.494L473.972 784.82L473.242 785.223L472.761 786.431L472.108 788.062L472.685 789.041L472.838 791.151L473.242 793.012L474.222 794.413ZM355.629 793.626L358.339 794.489L360.184 793.3L362.356 791.669L364.413 790.48L365.931 789.29L367.238 788.849L368.43 790.038L369.949 791.669V792.648L368.757 793.626H367.027L365.066 794.278L363.759 796.773L363.317 799.363L364.509 801.32L366.566 802.95L370.045 803.392L372.217 804.044L373.735 805.444L375.792 807.401L374.811 808.802L371.333 809.128L370.679 811.833L369.276 815.402L366.028 815.843L362.779 816.495L360.28 816.054L357.782 815.191L354.86 814.538L349.863 814.654H340.098L338.58 815.306L334.89 816.61L331.526 816.169L325.894 814.654L319.378 813.675L314.285 813.138L310.806 812.063L305.712 811.622L301.272 811.085L298.985 809.896L298.658 807.517L300.177 805.349L301.695 803.622L305.385 803.181L307.442 802.413L309.287 801.109L311.882 799.056L313.939 796.677L315.784 793.971L317.841 791.919L321.742 789.424L324.779 787.583L327.701 786.182L334.755 785.204L337.465 784.551L340.06 783.688L343.424 782.172L346.019 781.731L349.055 782.383L350.036 784.551L350.247 785.741L350.901 788.331L353.284 791.036L355.629 793.626ZM719.866 777.664L719.078 777.779L717.828 777.222V776.321L718.617 775.975L719.078 775.515L719.866 774.959L720.212 774.057L721 772.925L721.577 771.793L722.711 771.448L722.941 772.579L723.614 773.136L723.153 774.038L722.691 774.268L722.134 775.17L721.346 775.956L720.558 776.743L719.866 777.664ZM713.292 769.97L712.158 770.085L711.812 768.953L712.043 767.937L712.831 767.035L714.311 767.15L714.868 768.397L714.311 769.414L713.292 769.97ZM761.825 748.904L763.305 750.152L765.112 750.036L767.034 751.955L768.629 752.972L770.551 753.432L772.262 754.679L772.378 755.811L771.705 758.19L772.262 762.373L772.935 764.982L773.281 768.838L773.512 772.119L772.378 773.021L771.474 772.464L769.879 771.102L768.86 769.855L768.072 768.608L767.169 767.246L767.515 765.654L767.149 763.85L765.554 763.294L763.747 761.816L760.691 759.322L758.884 757.058L756.27 754.794L754.233 752.3L752.08 750.938L750.389 749.806L750.273 747.773L751.407 746.41L752.426 745.048L754.81 744.492L755.713 745.394L756.732 747.312L759 748.099L761.825 748.904ZM793.809 755.946L792.675 756.617L790.868 755.6L789.619 754.353L787.697 753.336L785.544 751.303L783.737 749.154L782.257 747.35L780.892 745.662L780.777 742.381L780.546 740.463L779.182 738.659L779.528 736.395L780.662 735.839L782.584 735.954L783.045 737.086L784.737 738.103L786.217 739.58L788.485 741.729L790.407 743.763L791.541 745.566L793.694 746.353L795.385 747.715L796.288 749.077L795.942 751.226L795.039 752.358L794.136 754.507L793.809 755.946ZM448.447 745.259L446.14 746.218L441.893 746.027L438.817 746.41L436.126 746.986L433.435 745.067L432.282 743.916L430.36 742.189L429.783 739.504L430.168 737.393L430.36 734.688L429.783 732.961L430.937 731.043L433.435 730.851L436.511 732.002L440.566 733.537L443.642 734.88L446.14 736.606L449.619 738.909L451.926 741.211L452.695 742.938L451.157 744.856L448.447 745.259ZM778.49 723.119L777.24 724.807L775.645 725.824L773.723 726.054L771.916 725.038L770.321 724.251L770.878 723.349L772.57 723.119L773.473 723.579L774.838 723.695L775.856 723.464L776.76 721.776L778.009 720.299L778.682 718.495L779.816 718.841V719.857V720.989L778.797 721.661L778.49 723.119ZM791.656 723.119L789.619 723.349L788.946 722.793L789.177 721.891L790.311 721.335L791.214 720.778L792.233 720.222L792.694 718.188L793.251 716.941L794.616 716.596L795.289 718.073L794.828 719.762L793.809 721.009L792.675 722.141L791.656 723.119ZM737.107 725.498L736.088 725.728L734.839 724.596L733.705 723.349L732.456 721.757L731.206 720.51L730.188 718.917L728.823 716.884L728.265 714.62L729.957 715.982L730.63 716.999L731.764 718.016L733.128 719.148L735.05 720.951L736.184 722.428L737.088 723.906V725.498H737.107ZM465.227 726.975L463.113 727.359L461.383 725.44V723.522L460.037 721.987L458.115 720.068L456.962 718.726L454.655 716.999L454.079 714.505L454.463 711.224L456.385 707.368L458.307 704.298L462.747 702.955L464.285 703.914L465.246 704.682L466.207 707.559L467.36 710.629L468.129 712.931L469.282 715.809L469.09 718.687L467.745 721.373L466.399 724.251L465.227 726.975ZM421.653 717.747L417.79 719.09L414.503 718.514L411.427 717.363L409.89 716.596L408.16 714.869L408.352 713.143L407.391 710.84L409.121 708.538L412.196 707.387L414.311 705.468L417.982 703.742L421.653 701.823L423.767 700.864L426.65 699.904H430.898L434.377 700.672L437.26 702.399L438.798 705.104L440.143 707.022L439.567 709.133L438.221 710.668L436.107 712.011L432.051 713.737L426.458 716.615L421.653 717.747ZM506.667 709.478L507.82 711.397L510.319 711.013L511.472 710.629L512.241 711.78L512.818 712.74L515.893 714.466L516.662 716.385L518.584 718.112L522.448 721.392L525.734 724.27L528.041 726.956L529.579 729.067L528.617 730.026L528.425 731.561L530.732 733.863L531.885 735.398L533.423 737.892L533.807 740.002L531.885 741.154L528.81 740.962L524.754 740.77L523.985 738.659L522.063 739.043L520.718 740.194L518.219 740.002L516.681 738.084L516.105 735.782L515.528 732.309L514.375 730.39L513.221 728.856L508.205 725.383L506.475 724.04L504.745 723.273L501.862 722.505L499.94 721.546H497.633L496.672 723.273L497.057 724.807L498.594 725.191L500.709 726.534L502.823 727.685L504.745 729.22L506.475 730.563L506.091 731.906L504.553 732.482L503.784 734.016L501.093 734.592L499.94 736.511L498.402 738.045L494.347 738.237L490.675 738.813L484.698 738.237L480.834 737.278L477.951 736.511L474.472 736.127L472.166 735.168L470.628 733.249L470.436 730.563L471.589 728.069L472.55 726.342L474.472 724.424L475.625 723.273L476.01 721.929L477.932 721.738L480.046 723.081L483.717 724.615L487.004 724.807L489.695 724.04L490.848 720.951L488.926 719.033H484.486L481.411 717.689L477.74 715.387L476.586 712.701L475.818 709.037L474.28 705.372L473.319 703.262L472.934 700.576L473.127 696.72V695.185L474.472 693.65L475.433 691.923L478.316 691.156L480.431 691.54L484.678 692.307L486.985 693.074L490.464 694.225L491.809 695.76L493.155 697.871L494.885 699.214L496.999 701.324L499.69 702.475L502.381 704.01L504.303 705.929L505.648 707.655L506.667 709.478ZM646.23 629.244L650.305 630.299L654.841 629.992L657.263 631.047L659.685 631.508L661.492 631.047L663.299 629.992L664.817 629.09L665.72 627.421L667.085 626.673L667.239 628.476L668.911 630.74L672.832 631.949L677.215 634.961L684.173 637.379L687.959 641.005L691.592 642.213L695.513 643.882L700.049 644.477L704.585 644.324L708.814 643.729H711.985L715.157 645.398L716.963 646.146L718.924 647.509L722.249 649.024L725.882 649.485L727.996 648.276L730.418 646.607L734.051 646.146H737.069L739.933 646.741L742.796 647.048L744.007 648.41L744.469 651.576L743.565 653.686L745.526 654.895L747.794 654.588L748.544 652.919L749.908 652.612L752.484 650.808L754.444 650.06L757.02 649.005L761.249 648.41L763.824 649.465L765.785 650.674V652.785L764.728 654.588L763.978 657.159L761.71 660.018L759.288 662.588L757.481 665.601L755.213 668.613L754.002 671.184L751.138 675.097L749.543 676.153L748.025 677.208L747.429 679.625L746.372 679.318V677.515L746.218 675.558L745.91 674.196L744.103 672.68L742.739 671.471L741.528 670.723L740.009 669.668H738.337L737.741 671.932L738.049 673.889V676.767V678.877L736.992 680.987L736.53 683.251L738.203 685.515L739.567 686.877V687.779L738.356 688.086L737.299 689.448L735.185 691.252L733.974 692L731.398 693.209L729.88 694.11L728.977 695.012L727.612 693.957L726.093 693.496L724.575 694.398L721.711 694.993L719.443 695.741L717.482 696.202L715.676 697.41L714.772 699.214L712.12 699.521L709.256 698.619L707.891 697.717L706.084 696.202L705.489 693.343L704.585 690.024L702.471 688.662L700.357 687.453L700.203 685.65L698.684 684.901L695.513 683.098L692.937 680.834L691.131 678.263L688.709 676.153L686.902 673.428L685.383 670.109L683.865 667.845L681.905 666.33L682.058 667.231L679.329 666.023L678.118 665.562L677.215 663.298L676.157 662.09L674.197 660.727L669.815 660.574L669.065 661.169L668.469 662.07L666.201 661.61L664.836 660.555L662.876 659.193L661.204 657.236L659.531 655.279L657.263 652.267L654.995 651.058L652.266 649.101L649.998 647.892L649.536 645.782L647.576 644.573L644.712 642.463L642.598 640.045L640.022 638.683L636.543 637.935L635.332 636.266L634.275 634.002L633.525 632.198L632.007 629.781L631.104 628.572L631.565 627.057L633.525 626.75L635.486 626.289L639.119 626.884L643.193 628.093L646.23 629.244ZM741.316 632.87L741.778 634.673L740.721 635.287L739.51 636.343H735.127L733.321 637.091L731.802 638.146L730.284 639.355L727.554 640.256L725.882 641.465L724.517 642.674L723.46 643.134L721.788 642.232L720.423 642.079L718.463 641.024L715.599 640.563L713.638 639.662H711.37L710.774 638.606L711.236 637.858L711.543 636.803L710.486 635.441L708.218 634.386L706.411 634.079L704.739 635.882L703.528 636.784L701.26 637.091L700.049 636.189L698.377 635.287L695.955 634.232L693.841 633.772L691.726 633.177L689.92 631.815L688.401 629.858L686.883 628.189L688.555 624.716L691.573 623.354L694.302 621.685L698.223 620.016L702.144 618.346L706.084 617.598L710.006 616.543H714.849H717.425L721.807 615.948L724.825 616.85L727.689 618.807L730.111 621.378L732.84 623.949L734.051 625.157L736.165 627.421L738.433 630.28L741.316 632.87ZM646.846 616.121L645.481 616.908L643.232 616.62L640.791 616.524L640.887 615.353L642.059 614.778L642.751 613.799L643.482 613.416L644.789 613.703L645.269 614.183L646.154 615.066L646.846 616.121ZM360.684 533.911L362.03 539.302L362.414 549.125L363.952 550.276L366.066 553.154L369.545 556.818L373.985 562.017L377.848 563.744L380.732 564.895L392.11 565.663L397.896 566.238L402.72 568.924L407.545 572.013L410.236 577.212L410.62 582.604L409.659 584.714L405.219 588.379L400.01 592.81L395.186 596.283L392.303 597.818L386.709 598.393L382.269 597.242L379.771 595.324L375.33 593.021L368.199 589.549L363.375 588.206L358.743 587.63L355.86 588.014L353.361 589.741L350.074 591.851L346.403 594.729L343.328 597.818L342.751 601.099L345.442 603.976L349.69 604.744L351.996 605.703H354.879L356.033 604.168L357.763 603.785L357.378 606.087L356.417 607.622L358.147 608.581L358.339 610.883L357.378 612.034L356.033 614.337L352.554 617.617L349.267 620.111L348.306 622.222L343.481 622.798L339.426 620.303L336.139 617.214L332.852 617.023L331.507 614.912L328.431 612.61L319.186 607.602L312.44 604.725L312.247 597.415L310.71 595.496L308.595 596.456L306.673 597.3L305.52 600.005L303.598 599.813L300.715 599.046L298.216 598.662L296.871 599.621L294.756 601.732L293.219 604.821L292.834 607.698L294.18 608.466L298.427 610.384L304.597 614.049L310.383 618.097L317.706 621.761L322.146 624.447L325.221 626.558L325.99 628.285L324.453 629.819L322.146 630.395L317.706 632.505L314.227 634.04L311.133 635.882L307.077 635.959L302.829 638.453L295.89 644.228L288.183 649.811L277.573 655.778L271.403 660.401L268.52 660.593L267.559 656.737L264.08 649.235L260.601 640.237L257.718 633.887L256.18 629.225L252.701 622.299H250.202L248.088 623.258L244.032 626.136L240.553 628.438L237.074 630.932L237.651 633.426L239.573 639.777L242.648 647.854L246.512 659.595L249.798 668.824L249.606 672.104L247.876 673.831L243.821 676.517L239.381 679.606L236.498 680.565L236.305 677.687L231.673 666.713L226.08 652.094L222.024 641.503L220.102 640.544L218.757 641.503L212.971 645.743L208.531 649.216L206.609 651.518L206.801 656.526L214.317 675.769L218.372 689.429L218.18 692.499L216.835 693.65L209.896 696.528L201.804 700.192L194.288 701.727L187.542 702.494L180.603 699.789L175.01 696.336L170.378 691.137L165.553 684.978L163.823 682.1L162.67 680.182L157.653 672.68L151.676 662.473L147.043 654.012L142.988 645.168L139.912 637.858L138.567 633.043L137.606 630.74L135.107 624.582L133.185 617.617L131.84 612.034L131.071 607.986L132.993 605.108L135.107 601.06L139.932 597.012L144.948 592.58L150.926 587.956L158.634 581.414L164.227 576.023L168.667 570.824L173.876 567.159L178.7 563.495L186.792 558.679L195.941 551.369L200.766 547.705L206.359 544.232L210.799 540.76L215.239 538.074L220.064 534.793L224.119 531.512L230.097 529.786L235.498 529.018L237.42 527.867L239.823 528.212L241.168 529.364L247.146 529.555L249.26 528.021L250.029 524.74L252.528 522.821L256.968 522.246H260.831L262.561 523.397L261.985 527.445L259.294 529.172L257.564 530.323L254.085 533.412L248.876 537.46L246.377 539.762L244.263 543.618L243.494 547.667L242.533 549.01L239.65 552.29L236.574 556.914L231.75 562.113L227.118 566.353L223.447 569.634L223.639 573.107L224.6 574.258L227.291 577.136L231.346 580.417L234.825 582.527L235.786 580.8L238.477 579.073L241.956 576.963L244.455 575.044L246.569 572.742L247.915 571.591L249.068 572.167L250.029 573.51L252.528 574.661L254.066 573.51L255.795 571.975H258.102L260.408 571.591L261.369 568.637L259.447 566.334L259.063 563.648L259.447 560.77L261.177 557.298L263.868 553.825L267.732 549.969L270.807 547.667L272.729 545.748L275.228 545.172L276.765 545.748L278.111 547.091L280.61 546.707L282.724 544.597L283.493 542.678L283.301 540.76L282.147 539.225L281.955 536.731L282.724 535.772L283.685 536.923L284.646 537.882L286.376 538.841H289.067L290.797 536.155L292.719 533.853L291.566 531.359L289.259 529.44L287.529 528.673V526.908L288.682 525.565L291.566 523.838L295.237 521.536L298.908 519.617L301.791 519.234L305.655 519.042L310.287 516.931L314.342 516.164L319.744 515.013L327.067 513.862L333.237 514.629L338.253 515.78L342.309 517.507L347.326 519.425L351.189 523.09L354.264 525.661L357.34 528.539L359.07 530.457L360.684 533.911ZM268.577 495.002H264.31L262.042 493.582L261.196 491.606V488.767L260.774 485.083L259.928 482.819L259.217 479.98L258.506 477.985L258.217 475.855L258.64 474.013L260.639 473.879L262.484 474.301L263.772 475.855L265.194 477.831L268.597 481.38L270.019 483.51L270.73 485.064L270.442 486.906L270.153 488.613L269.865 493.851L268.577 495.002ZM347.883 10.6999L350.785 12.2347L354.13 11.333L360.165 10.2586L363.394 7.47671L367.834 5.76919L370.717 6.19127L373.178 6.09535L374.369 9.18423L374.273 11.4098L376.253 12.5609L379.328 13.6928L380.789 15.4771L381.116 17.8945L382.25 20.638L384.518 22.5758L387.824 23.5926L391.015 24.5135L393.283 26.9309L395.397 28.0629L395.243 30.6529L392.495 32.9168L392.014 36.965L394.801 39.5359L399.472 39.7085L402.547 39.555L417.463 38.8068L420.999 36.658L421.711 36.447L424.94 37.7324L429.668 39.2481L434.608 42.4713L437.183 45.9055L439.759 46.3276L441.566 46.1933L446.14 45.8863L448.889 46.0398L450.657 44.102L452.426 42.8166L454.848 42.6631L458.865 41.7422L460.498 41.8765L461.978 42.4329L463.612 42.241L465.15 42.4713L466.534 42.548L467.726 42.1451L470.147 41.5695H471.993L472.819 41.9149L473.607 47.5363L476.529 56.6494L477.259 68.3143L472.877 75.2403L464.477 85.0825L453.886 95.27L452.426 111.674V121.861L453.521 136.442L449.139 142.639L444.026 153.211L445.852 163.763L448.409 180.166L454.252 192.177L462.286 204.187L469.225 211.477L472.877 220.59L476.164 230.778L480.911 242.443L483.467 253.379L488.945 263.585L493.328 270.492L494.423 280.699L495.519 298.177L496.98 309.113L504.649 319.665L515.24 331.33L523.274 341.172L528.752 343.724L533.865 346.64L538.247 351.014L539.343 359.379L535.306 363.753L527.637 364.847H519.238L518.142 373.212L511.934 374.67L506.821 378.315L500.978 382.69L494.769 384.512H486.735L479.431 383.073V394.738L480.527 398.748L484.179 404.216L488.196 408.59L497.691 416.245L509.742 423.9L517.777 433.013L528.002 441.033L536.402 445.772H547.358L551.375 450.146L559.409 455.979L567.809 461.082L577.669 466.55L586.799 468.353L588.625 474.915L587.53 481.457L583.878 488.019L581.321 493.851L584.243 501.506L589.356 505.151L591.912 511.713L593.373 518.274L594.834 527.752L596.294 538.304L599.581 544.501L607.616 551.408L615.65 553.96L620.032 551.043L628.067 551.408L633.545 553.595L641.214 553.96L649.978 553.595L652.9 557.969L653.631 564.531L647.787 569.634L644.135 573.279L639.753 579.476L638.292 585.309L640.118 591.141L643.405 597.338L648.153 601.348L650.363 602.422L647.787 606.547L642.559 606.375L640.214 607.43L639.253 609.157L637.504 610.711L634.717 610.538L632.103 610.193L629.835 607.929L626.779 605.588L618.264 597.185L615.419 596.993L615.708 600.216L624.511 608.715L624.645 612.188L623.531 613.205L622.05 614.183L619.11 614.087L617.437 613.109L615.285 610.768L613.42 608.523L611.863 607.737L611.075 604.897L608.73 602.557L606.078 600.6L605.386 598.547L603.425 597.281L600.677 596.897L599.216 595.631L598.736 593.962L597.851 591.717L596.583 590.163L593.834 588.897H590.797L589.24 588.014L588.568 586.997L586.011 586.729L585.319 587.995L584.339 589.165L583.551 590.144H581.494L579.937 588.973L576.516 587.304L572.499 584.963L570.25 584.273L567.348 581.759L561.274 578.249L556.084 575.505L548.838 571.207L541.688 566.814L536.498 564.07L535.133 563.591L534.807 564.301L529.752 572.589L524.562 581.376L518.104 591.352L513.894 599.372L508.013 609.636L506.052 609.732L492.155 600.849L479.239 592.254L458.576 578.958L443.2 569.097L439.182 566.066L436.741 564.013L431.744 562.056L428.227 559.907L426.266 558.641L427.054 556.684L429.995 552.674L440.47 535.618L441.931 533.565L446.333 532.875L450.158 533.469L453.983 535.426L467.687 545L467.668 546.343L466.707 546.458L466.995 549.969L468.552 551.235L470.609 552.31L473.838 554.171L478.528 554.267L480.008 553.633L481.757 552.022L482.929 549.969L484.698 549.489L486.562 550.276V556.818L490.445 559.619L492.29 560.674L495.461 560.425L496.538 559.159L498.594 559.255L500.651 560.617L502.419 561.212L505.841 561.116L507.993 556.415L510.05 552.022L511.319 549.873L511.703 547.609L491.098 534.601L477.163 525.431L480.777 518.792L481.469 513.631L482.064 510.216L481.372 509.487L479.085 508.125L477.24 507.511L474.953 505.228L472.819 501.89L468.283 496.172L464.612 493.486L464.323 488.939L461.825 485.429L459.326 480.728L458.442 475.586L456.231 471.039L454.329 469.716L451.984 467.221L449.197 464.574L445.833 462.444L442.796 461.389L437.606 460.775H432.59L428.765 461.063L424.209 460.909L420.538 461.792L420.826 463.557L421.711 464.881L425.978 466.051L428.592 465.284L435.934 465.783L439.778 467.356L443.315 468.123L444.045 470.291L448.581 473.399L449.504 475.682L448.312 477.639L448.466 480.287L450.369 481.169L450.081 482.052L449.639 484.393L453.022 485.851L454.482 489.669L455.809 494.062L458.288 498.129L458.749 501.698L450.965 501.851L444.353 502.734L435.396 502.887L426.131 500.393L416.137 497.458L407.468 495.846L396.743 493.506L388.516 491.165L380.578 488.517L376.022 486.752L370.429 486.599L369.545 487.923H366.892L365.566 489.534L364.528 490.417V487.194L365.989 475.164L367.162 462.694L367.892 457.552L369.064 449.916L371.409 445.369L377.368 439.767L381.981 433.397L382.961 430.097L381.231 428.984L378.733 428.697L375.215 428.984L372.716 430.443L371.333 433.685L368.123 440.093L361.991 445.427L360.665 447.326L359.492 452.314L358.32 460.526L357.436 464.344L357.147 469.313L356.994 471.25L356.11 473.15L356.033 479.596L355.514 482.493L354.476 485.141L354.034 486.503L349.613 483.875L343.597 479.769L336.831 473.764L330.373 468.622L326.106 465.533L321.397 465.092L317.725 464.497L314.054 464.209L309.653 464.363L307.75 467.145L305.539 468.181L301.272 468.622L300.1 470.828L299.658 474.646L298.485 477.735L298.139 483.798L298.062 484.527L298.024 484.91L296.14 486.791H283.647L283.358 481.361L281.302 479.021L276.9 478.291L273.671 475.951L270 472.728L268.154 469.677L266.194 468.027L260.312 466.991L258.102 468.449L255.315 469.332L252.97 472.114L251.932 475.778L250.894 478.867L251.048 481.515L251.49 484.297L253.085 486.043L252.912 492.182L248.991 492.662L246.05 493.391L239.957 494.753L235.479 494.695L230.962 496.115L222.831 495.866L221.794 486.043L220.025 478.119L219.583 471.231L218.853 466.531L217.084 464.766L216.066 463.288L214.163 461.389L211.664 462.272L210.78 464.919L209.319 466.818V471.519L210.203 476.354L210.645 485.601L211.818 501.007L209.473 502.619L206.59 503.271L205.071 504.23L201.977 503.636L187.273 487.347L186.235 478.982L184.601 472.363L178.892 472.229L171.8 473.725L170.224 475.74L170.82 484.239L172.28 494.81L185.793 509.622V511.674L180.622 516.03L176.817 519.713L169.167 525.584L163.285 531.301L159.172 526.313L156.385 522.936L154.174 522.495L150.638 525.143L143.872 531.014L142.411 527.503L136.587 520.577L134.492 519.291L130.283 514.917L127.534 511.041L125.42 508.777L124.766 506.36L127.188 504.422L128.803 502.485L128.956 500.547L128.226 498.456L125.074 495.041L122.479 491.319H119.404L117.789 492.777L115.367 494.388L113.753 494.235L110.216 491.932L109.12 489.745L111.485 488.709L119.096 480.306L125.573 472.21L130.436 467.835L132.551 465.725L134.492 463.308L135.146 458.933L132.877 456.995L130.456 456.343L128.034 456.823L125.919 457.629L122.844 460.545L119.442 463.787L116.04 468.315L113.291 470.253L111.023 473.169L109.735 474.781L108.448 475.913H106.506L104.238 473.802L101.97 471.059L99.5483 468.948L99.0678 466.531L100.529 463.288L102.316 461.504L105.718 458.588L109.447 454.712L114.964 447.537L115.271 445.254L113.138 442.971L110.389 440.093L107.352 438.712L103.642 441.378L99.2408 445.676L93.0901 451.336L86.7664 458.051L83.7295 455.461L80.2121 452.122L76.6946 449.993L73.7923 446.789L69.8328 444.199L57.416 454.885L55.6285 456.669L58.2233 458.78L68.0836 467.49L68.7179 469.639L85.2672 499.549L86.0937 504.23L98.4143 525.91L104.892 538.304L109.582 547.206L111.215 550.257L111.542 554.785L110.081 557.854L106.564 559.236L100.682 560.118L73.4655 560.598L47.5365 560.156L35.0621 559.312L25.5285 555.84L16.5907 550.084L10.5938 544.75L7.1917 537.786L6.38442 530.189L6 522.227L6.80728 510.581L8.71015 504.557L8.9408 502.811L11.2089 497.938L13.1886 491.702L15.1684 485.141L18.0708 478.445L20.6656 471.442L23.4142 463.826L26.009 455.921L28.4308 450.3L29.8916 444.621L44.5572 406.058L50.8809 388.58L56.2243 375.955L56.5511 371.85L60.4337 362.468L62.375 355.35L64.7969 349.038L63.8166 345.163L62.202 339.177L62.8556 333.997L64.9699 331.08L67.5647 329.296L71.4665 326.15L74.2151 326.38L75.1954 321.699L77.8863 316.077L79.9045 310.13L80.6541 308.537L81.6729 306.657L84.383 304.988L86.7856 302.666L90.1493 296.815L92.3597 292.939L94.5893 288.699L96.992 284.44L100.125 279.107L102.162 274.31L105.315 268.228L107.525 264.909L107.89 262.511L109.562 260.477L111.408 260.669H113.522L113.637 258.635L117.251 257.273L119.365 256.237L120.884 255.969V253.724L122.44 252.266L123.651 247.297L125.497 244.534L126.419 240.85L128.457 237.339L134.011 226.998L134.492 224.811L134.588 220.917L135.837 219.056L137.125 217.77L139.163 217.214L141.392 216.868L142.68 215.583L142.834 213.319L144.333 211.132L144.775 209.271L147.524 208.945L149.119 206.144L148.812 204.263L149.138 200.714L150.042 198.968L149.946 196.992L150.099 180.166L151.08 178.229L151.56 174.18L152.444 174.065V171.475L153.175 168.885L153.502 166.084L153.982 163.667L154.636 163.187L154.482 159.465L153.502 158.333L152.694 156.069L152.848 152.827L154.309 152.021L157.057 151.369L159.172 147.819L160.575 147.205L160.94 144.999L160.767 141.872L159.998 140.107L160.479 138.169L164.861 137.689L166.975 137.21L167.744 139.934L165.688 140.606L165.034 144.155L166.014 146.093L169.57 145.939L171.319 143.906L171.512 142.064L171.723 140.433L174.049 140.452L175.337 141.91L177.451 141.104L178.912 139.819L180.43 138.131L180.545 136.922L179.892 134.812L178.912 132.394L178.104 129.977L176.49 129.171L176.97 127.713L178.758 127.061L185.408 126.408L185.255 123.492L183.64 123.012L182.025 121.88L182.275 119.406L182.083 117.564L182.275 115.722L182.333 114.129L185.255 113.976L186.331 112.038L187.253 110.945L186.235 109.41L184.62 108.278L185.428 107.299L186.715 107.453L187.849 108.259L191.251 107.933L191.732 104.383L193.02 100.182L191.405 98.57L188.734 100.047V95.9991L190.271 95.0206L190.214 91.2027L190.752 89.1882L192.366 87.9028L195.615 87.4231L196.902 85.8115L198.152 84.0081L199.017 82.243L199.17 80.1326L200.631 79.1541L202.246 77.3699L204.033 77.5234L205.821 79.1349L209.069 78.003L210.857 77.6768L213.279 75.7391L214.97 72.8996L216.45 70.5014L219.103 69.2735L220.89 68.9474L222.505 69.2735L225.1 70.559L229.155 71.5375V66.6451L232.404 66.1655L234.191 67.4509L237.439 67.6044L238.573 64.2085L239.573 62.3284L241.976 61.772L244.09 62.5778L247.338 61.2923H250.894L253.873 59.4121L258.813 57.0331L263.119 53.3879L267.847 49.5124L274.728 43.7183L277.957 39.2097L282.263 37.272L286.472 36.6196L288.413 32.418L291.335 31.6122L291.181 27.4106L293.468 24.1874L299.927 19.6788L305.289 16.7434L310.96 12.2156L316.092 8.32088L320.608 7.24648L326.356 6.40232L333.813 4.29189L338.023 2.35415L345.807 1.87451L347.748 3.33261L347.595 7.20811L347.883 10.6999Z" fill="#F5F5F5"/>
<path d="M363.49 865.611V867.126L361.76 866.915L359.262 867.241L359.05 868.431L359.262 869.831L361.434 870.484L364.259 871.558L365.778 873.822L364.701 875.549L363.625 877.275L361.03 877.39L357.244 878.043L354.956 878.791L351.593 879.117L347.153 880.633L346.076 881.285L343.789 883.242L340.963 885.295L338.138 888H336.831L335.966 885.947L335.197 883.99L335.312 879.443V875.549L334.102 874.167L334.87 872.441L336.504 871.251L338.561 871.366L342.136 870.829L345.922 870.177L347.979 869.102L349.613 867.376L350.92 865.649L352.227 863.692L351.9 862.291L351.247 861.217V859.26L351.9 856.996L354.187 856.785L356.148 857.437L359.07 858.186L360.915 859.586L361.991 860.891L360.915 861.639L360.799 863.04L362.203 864.229L363.49 865.611ZM382.615 812.063L381.558 813.33L380.251 813.004L379.924 811.929L379.386 810.74L378.079 810.202V808.687H379.598L380.674 808.898L381.443 810.414L382.615 812.063ZM534.019 800.188L532.154 800.437L532 799.382L530.616 798.653L529.156 798.499L528.579 797.521L528.733 796.619L530.597 796.868L532.558 797.444L535.153 798.173L534.999 799.056L534.518 799.861L534.019 800.188ZM608.096 819.623L607.712 820.582L605.213 820.006L601.35 819.239L599.043 817.704L597.505 816.553L593.065 814.442L588.433 811.948L585.146 809.243L583.801 806.941L581.879 803.468L580.533 801.55L579.764 799.248L578.803 797.137V792.897L578.996 790.211L580.533 788.676L582.071 789.827L583.224 791.17L584.762 793.281L586.3 794.624L588.798 796.734L591.681 798.461L595.16 801.339L595.929 804.025L598.62 806.903L599.773 808.629L603.06 811.315L605.174 814.404L606.136 816.706L607.673 818.049L608.096 819.623ZM474.222 794.413L475.356 796.446L477.394 796.197L478.778 795.871L479.912 796.12L480.719 797.655L481.93 798.634L483.314 800.264L484.698 802.221L485.024 804.255L484.775 807.018L483.564 807.497L482.353 808.399L481.142 810.03L479.681 812.217L479.027 815.536L478.22 816.515L477.413 816.764L477.086 815.383L474.395 815.133L473.415 816.188L472.108 818.049L470.724 818.855L469.59 817.397L469.186 815.613L468.283 812.524L467.149 808.457L465.842 805.214L465.592 801.876L466.495 799.363L466.745 796.523L467.476 794.087L468.687 790.921L469.994 789.29L471.128 787.909L471.281 786.777L471.762 784.993L472.569 783.132L475.991 782.882L476.317 783.765L475.837 784.494L473.972 784.82L473.242 785.223L472.761 786.431L472.108 788.062L472.685 789.041L472.838 791.151L473.242 793.012L474.222 794.413ZM355.629 793.626L358.339 794.489L360.184 793.3L362.356 791.669L364.413 790.48L365.931 789.29L367.238 788.849L368.43 790.038L369.949 791.669V792.648L368.757 793.626H367.027L365.066 794.278L363.759 796.773L363.317 799.363L364.509 801.32L366.566 802.95L370.045 803.392L372.217 804.044L373.735 805.444L375.792 807.401L374.811 808.802L371.333 809.128L370.679 811.833L369.276 815.402L366.028 815.843L362.779 816.495L360.28 816.054L357.782 815.191L354.86 814.538L349.863 814.654H340.098L338.58 815.306L334.89 816.61L331.526 816.169L325.894 814.654L319.378 813.675L314.285 813.138L310.806 812.063L305.712 811.622L301.272 811.085L298.985 809.896L298.658 807.517L300.177 805.349L301.695 803.622L305.385 803.181L307.442 802.413L309.287 801.109L311.882 799.056L313.939 796.677L315.784 793.971L317.841 791.919L321.742 789.424L324.779 787.583L327.701 786.182L334.755 785.204L337.465 784.551L340.06 783.688L343.424 782.172L346.019 781.731L349.055 782.383L350.036 784.551L350.247 785.741L350.901 788.331L353.284 791.036L355.629 793.626ZM719.866 777.664L719.078 777.779L717.828 777.222V776.321L718.617 775.975L719.078 775.515L719.866 774.959L720.212 774.057L721 772.925L721.577 771.793L722.711 771.448L722.941 772.579L723.614 773.136L723.153 774.038L722.691 774.268L722.134 775.17L721.346 775.956L720.558 776.743L719.866 777.664ZM713.292 769.97L712.158 770.085L711.812 768.953L712.043 767.937L712.831 767.035L714.311 767.15L714.868 768.397L714.311 769.414L713.292 769.97ZM761.825 748.904L763.305 750.152L765.112 750.036L767.034 751.955L768.629 752.972L770.551 753.432L772.262 754.679L772.378 755.811L771.705 758.19L772.262 762.373L772.935 764.982L773.281 768.838L773.512 772.119L772.378 773.021L771.474 772.464L769.879 771.102L768.86 769.855L768.072 768.608L767.169 767.246L767.515 765.654L767.149 763.85L765.554 763.294L763.747 761.816L760.691 759.322L758.884 757.058L756.27 754.794L754.233 752.3L752.08 750.938L750.389 749.806L750.273 747.773L751.407 746.41L752.426 745.048L754.81 744.492L755.713 745.394L756.732 747.312L759 748.099L761.825 748.904ZM793.809 755.946L792.675 756.617L790.868 755.6L789.619 754.353L787.697 753.336L785.544 751.303L783.737 749.154L782.257 747.35L780.892 745.662L780.777 742.381L780.546 740.463L779.182 738.659L779.528 736.395L780.662 735.839L782.584 735.954L783.045 737.086L784.737 738.103L786.217 739.58L788.485 741.729L790.407 743.763L791.541 745.566L793.694 746.353L795.385 747.715L796.288 749.077L795.942 751.226L795.039 752.358L794.136 754.507L793.809 755.946ZM448.447 745.259L446.14 746.218L441.893 746.027L438.817 746.41L436.126 746.986L433.435 745.067L432.282 743.916L430.36 742.189L429.783 739.504L430.168 737.393L430.36 734.688L429.783 732.961L430.937 731.043L433.435 730.851L436.511 732.002L440.566 733.537L443.642 734.88L446.14 736.606L449.619 738.909L451.926 741.211L452.695 742.938L451.157 744.856L448.447 745.259ZM778.49 723.119L777.24 724.807L775.645 725.824L773.723 726.054L771.916 725.038L770.321 724.251L770.878 723.349L772.57 723.119L773.473 723.579L774.838 723.695L775.856 723.464L776.76 721.776L778.009 720.299L778.682 718.495L779.816 718.841V719.857V720.989L778.797 721.661L778.49 723.119ZM791.656 723.119L789.619 723.349L788.946 722.793L789.177 721.891L790.311 721.335L791.214 720.778L792.233 720.222L792.694 718.188L793.251 716.941L794.616 716.596L795.289 718.073L794.828 719.762L793.809 721.009L792.675 722.141L791.656 723.119ZM737.107 725.498L736.088 725.728L734.839 724.596L733.705 723.349L732.456 721.757L731.206 720.51L730.188 718.917L728.823 716.884L728.265 714.62L729.957 715.982L730.63 716.999L731.764 718.016L733.128 719.148L735.05 720.951L736.184 722.428L737.088 723.906V725.498H737.107ZM465.227 726.975L463.113 727.359L461.383 725.44V723.522L460.037 721.987L458.115 720.068L456.962 718.726L454.655 716.999L454.079 714.505L454.463 711.224L456.385 707.368L458.307 704.298L462.747 702.955L464.285 703.914L465.246 704.682L466.207 707.559L467.36 710.629L468.129 712.931L469.282 715.809L469.09 718.687L467.745 721.373L466.399 724.251L465.227 726.975ZM421.653 717.747L417.79 719.09L414.503 718.514L411.427 717.363L409.89 716.596L408.16 714.869L408.352 713.143L407.391 710.84L409.121 708.538L412.196 707.387L414.311 705.468L417.982 703.742L421.653 701.823L423.767 700.864L426.65 699.904H430.898L434.377 700.672L437.26 702.399L438.798 705.104L440.143 707.022L439.567 709.133L438.221 710.668L436.107 712.011L432.051 713.737L426.458 716.615L421.653 717.747ZM506.667 709.478L507.82 711.397L510.319 711.013L511.472 710.629L512.241 711.78L512.818 712.74L515.893 714.466L516.662 716.385L518.584 718.112L522.448 721.392L525.734 724.27L528.041 726.956L529.579 729.067L528.617 730.026L528.425 731.561L530.732 733.863L531.885 735.398L533.423 737.892L533.807 740.002L531.885 741.154L528.81 740.962L524.754 740.77L523.985 738.659L522.063 739.043L520.718 740.194L518.219 740.002L516.681 738.084L516.105 735.782L515.528 732.309L514.375 730.39L513.221 728.856L508.205 725.383L506.475 724.04L504.745 723.273L501.862 722.505L499.94 721.546H497.633L496.672 723.273L497.057 724.807L498.594 725.191L500.709 726.534L502.823 727.685L504.745 729.22L506.475 730.563L506.091 731.906L504.553 732.482L503.784 734.016L501.093 734.592L499.94 736.511L498.402 738.045L494.347 738.237L490.675 738.813L484.698 738.237L480.834 737.278L477.951 736.511L474.472 736.127L472.166 735.168L470.628 733.249L470.436 730.563L471.589 728.069L472.55 726.342L474.472 724.424L475.625 723.273L476.01 721.929L477.932 721.738L480.046 723.081L483.717 724.615L487.004 724.807L489.695 724.04L490.848 720.951L488.926 719.033H484.486L481.411 717.689L477.74 715.387L476.586 712.701L475.818 709.037L474.28 705.372L473.319 703.262L472.934 700.576L473.127 696.72V695.185L474.472 693.65L475.433 691.923L478.316 691.156L480.431 691.54L484.678 692.307L486.985 693.074L490.464 694.225L491.809 695.76L493.155 697.871L494.885 699.214L496.999 701.324L499.69 702.475L502.381 704.01L504.303 705.929L505.648 707.655L506.667 709.478ZM646.23 629.244L650.305 630.299L654.841 629.992L657.263 631.047L659.685 631.508L661.492 631.047L663.299 629.992L664.817 629.09L665.72 627.421L667.085 626.673L667.239 628.476L668.911 630.74L672.832 631.949L677.215 634.961L684.173 637.379L687.959 641.005L691.592 642.213L695.513 643.882L700.049 644.477L704.585 644.324L708.814 643.729H711.985L715.157 645.398L716.963 646.146L718.924 647.509L722.249 649.024L725.882 649.485L727.996 648.276L730.418 646.607L734.051 646.146H737.069L739.933 646.741L742.796 647.048L744.007 648.41L744.469 651.576L743.565 653.686L745.526 654.895L747.794 654.588L748.544 652.919L749.908 652.612L752.484 650.808L754.444 650.06L757.02 649.005L761.249 648.41L763.824 649.465L765.785 650.674V652.785L764.728 654.588L763.978 657.159L761.71 660.018L759.288 662.588L757.481 665.601L755.213 668.613L754.002 671.184L751.138 675.097L749.543 676.153L748.025 677.208L747.429 679.625L746.372 679.318V677.515L746.218 675.558L745.91 674.196L744.103 672.68L742.739 671.471L741.528 670.723L740.009 669.668H738.337L737.741 671.932L738.049 673.889V676.767V678.877L736.992 680.987L736.53 683.251L738.203 685.515L739.567 686.877V687.779L738.356 688.086L737.299 689.448L735.185 691.252L733.974 692L731.398 693.209L729.88 694.11L728.977 695.012L727.612 693.957L726.093 693.496L724.575 694.398L721.711 694.993L719.443 695.741L717.482 696.202L715.676 697.41L714.772 699.214L712.12 699.521L709.256 698.619L707.891 697.717L706.084 696.202L705.489 693.343L704.585 690.024L702.471 688.662L700.357 687.453L700.203 685.65L698.684 684.901L695.513 683.098L692.937 680.834L691.131 678.263L688.709 676.153L686.902 673.428L685.383 670.109L683.865 667.845L681.905 666.33L682.058 667.231L679.329 666.023L678.118 665.562L677.215 663.298L676.157 662.09L674.197 660.727L669.815 660.574L669.065 661.169L668.469 662.07L666.201 661.61L664.836 660.555L662.876 659.193L661.204 657.236L659.531 655.279L657.263 652.267L654.995 651.058L652.266 649.101L649.998 647.892L649.536 645.782L647.576 644.573L644.712 642.463L642.598 640.045L640.022 638.683L636.543 637.935L635.332 636.266L634.275 634.002L633.525 632.198L632.007 629.781L631.104 628.572L631.565 627.057L633.525 626.75L635.486 626.289L639.119 626.884L643.193 628.093L646.23 629.244ZM741.316 632.87L741.778 634.673L740.721 635.287L739.51 636.343H735.127L733.321 637.091L731.802 638.146L730.284 639.355L727.554 640.256L725.882 641.465L724.517 642.674L723.46 643.134L721.788 642.232L720.423 642.079L718.463 641.024L715.599 640.563L713.638 639.662H711.37L710.774 638.606L711.236 637.858L711.543 636.803L710.486 635.441L708.218 634.386L706.411 634.079L704.739 635.882L703.528 636.784L701.26 637.091L700.049 636.189L698.377 635.287L695.955 634.232L693.841 633.772L691.726 633.177L689.92 631.815L688.401 629.858L686.883 628.189L688.555 624.716L691.573 623.354L694.302 621.685L698.223 620.016L702.144 618.346L706.084 617.598L710.006 616.543H714.849H717.425L721.807 615.948L724.825 616.85L727.689 618.807L730.111 621.378L732.84 623.949L734.051 625.157L736.165 627.421L738.433 630.28L741.316 632.87ZM646.846 616.121L645.481 616.908L643.232 616.62L640.791 616.524L640.887 615.353L642.059 614.778L642.751 613.799L643.482 613.416L644.789 613.703L645.269 614.183L646.154 615.066L646.846 616.121ZM360.684 533.911L362.03 539.302L362.414 549.125L363.952 550.276L366.066 553.154L369.545 556.818L373.985 562.017L377.848 563.744L380.732 564.895L392.11 565.663L397.896 566.238L402.72 568.924L407.545 572.013L410.236 577.212L410.62 582.604L409.659 584.714L405.219 588.379L400.01 592.81L395.186 596.283L392.303 597.818L386.709 598.393L382.269 597.242L379.771 595.324L375.33 593.021L368.199 589.549L363.375 588.206L358.743 587.63L355.86 588.014L353.361 589.741L350.074 591.851L346.403 594.729L343.328 597.818L342.751 601.099L345.442 603.976L349.69 604.744L351.996 605.703H354.879L356.033 604.168L357.763 603.785L357.378 606.087L356.417 607.622L358.147 608.581L358.339 610.883L357.378 612.034L356.033 614.337L352.554 617.617L349.267 620.111L348.306 622.222L343.481 622.798L339.426 620.303L336.139 617.214L332.852 617.023L331.507 614.912L328.431 612.61L319.186 607.602L312.44 604.725L312.247 597.415L310.71 595.496L308.595 596.456L306.673 597.3L305.52 600.005L303.598 599.813L300.715 599.046L298.216 598.662L296.871 599.621L294.756 601.732L293.219 604.821L292.834 607.698L294.18 608.466L298.427 610.384L304.597 614.049L310.383 618.097L317.706 621.761L322.146 624.447L325.221 626.558L325.99 628.285L324.453 629.819L322.146 630.395L317.706 632.505L314.227 634.04L311.133 635.882L307.077 635.959L302.829 638.453L295.89 644.228L288.183 649.811L277.573 655.778L271.403 660.401L268.52 660.593L267.559 656.737L264.08 649.235L260.601 640.237L257.718 633.887L256.18 629.225L252.701 622.299H250.202L248.088 623.258L244.032 626.136L240.553 628.438L237.074 630.932L237.651 633.426L239.573 639.777L242.648 647.854L246.512 659.595L249.798 668.824L249.606 672.104L247.876 673.831L243.821 676.517L239.381 679.606L236.498 680.565L236.305 677.687L231.673 666.713L226.08 652.094L222.024 641.503L220.102 640.544L218.757 641.503L212.971 645.743L208.531 649.216L206.609 651.518L206.801 656.526L214.317 675.769L218.372 689.429L218.18 692.499L216.835 693.65L209.896 696.528L201.804 700.192L194.288 701.727L187.542 702.494L180.603 699.789L175.01 696.336L170.378 691.137L165.553 684.978L163.823 682.1L162.67 680.182L157.653 672.68L151.676 662.473L147.043 654.012L142.988 645.168L139.912 637.858L138.567 633.043L137.606 630.74L135.107 624.582L133.185 617.617L131.84 612.034L131.071 607.986L132.993 605.108L135.107 601.06L139.932 597.012L144.948 592.58L150.926 587.956L158.634 581.414L164.227 576.023L168.667 570.824L173.876 567.159L178.7 563.495L186.792 558.679L195.941 551.369L200.766 547.705L206.359 544.232L210.799 540.76L215.239 538.074L220.064 534.793L224.119 531.512L230.097 529.786L235.498 529.018L237.42 527.867L239.823 528.212L241.168 529.364L247.146 529.555L249.26 528.021L250.029 524.74L252.528 522.821L256.968 522.246H260.831L262.561 523.397L261.985 527.445L259.294 529.172L257.564 530.323L254.085 533.412L248.876 537.46L246.377 539.762L244.263 543.618L243.494 547.667L242.533 549.01L239.65 552.29L236.574 556.914L231.75 562.113L227.118 566.353L223.447 569.634L223.639 573.107L224.6 574.258L227.291 577.136L231.346 580.417L234.825 582.527L235.786 580.8L238.477 579.073L241.956 576.963L244.455 575.044L246.569 572.742L247.915 571.591L249.068 572.167L250.029 573.51L252.528 574.661L254.066 573.51L255.795 571.975H258.102L260.408 571.591L261.369 568.637L259.447 566.334L259.063 563.648L259.447 560.77L261.177 557.298L263.868 553.825L267.732 549.969L270.807 547.667L272.729 545.748L275.228 545.172L276.765 545.748L278.111 547.091L280.61 546.707L282.724 544.597L283.493 542.678L283.301 540.76L282.147 539.225L281.955 536.731L282.724 535.772L283.685 536.923L284.646 537.882L286.376 538.841H289.067L290.797 536.155L292.719 533.853L291.566 531.359L289.259 529.44L287.529 528.673V526.908L288.682 525.565L291.566 523.838L295.237 521.536L298.908 519.617L301.791 519.234L305.655 519.042L310.287 516.931L314.342 516.164L319.744 515.013L327.067 513.862L333.237 514.629L338.253 515.78L342.309 517.507L347.326 519.425L351.189 523.09L354.264 525.661L357.34 528.539L359.07 530.457L360.684 533.911ZM268.577 495.002H264.31L262.042 493.582L261.196 491.606V488.767L260.774 485.083L259.928 482.819L259.217 479.98L258.506 477.985L258.217 475.855L258.64 474.013L260.639 473.879L262.484 474.301L263.772 475.855L265.194 477.831L268.597 481.38L270.019 483.51L270.73 485.064L270.442 486.906L270.153 488.613L269.865 493.851L268.577 495.002ZM347.883 10.6999L350.785 12.2347L354.13 11.333L360.165 10.2586L363.394 7.47671L367.834 5.76919L370.717 6.19127L373.178 6.09535L374.369 9.18423L374.273 11.4098L376.253 12.5609L379.328 13.6928L380.789 15.4771L381.116 17.8945L382.25 20.638L384.518 22.5758L387.824 23.5926L391.015 24.5135L393.283 26.9309L395.397 28.0629L395.243 30.6529L392.495 32.9168L392.014 36.965L394.801 39.5359L399.472 39.7085L402.547 39.555L417.463 38.8068L420.999 36.658L421.711 36.447L424.94 37.7324L429.668 39.2481L434.608 42.4713L437.183 45.9055L439.759 46.3276L441.566 46.1933L446.14 45.8863L448.889 46.0398L450.657 44.102L452.426 42.8166L454.848 42.6631L458.865 41.7422L460.498 41.8765L461.978 42.4329L463.612 42.241L465.15 42.4713L466.534 42.548L467.726 42.1451L470.147 41.5695H471.993L472.819 41.9149L473.607 47.5363L476.529 56.6494L477.259 68.3143L472.877 75.2403L464.477 85.0825L453.886 95.27L452.426 111.674V121.861L453.521 136.442L449.139 142.639L444.026 153.211L445.852 163.763L448.409 180.166L454.252 192.177L462.286 204.187L469.225 211.477L472.877 220.59L476.164 230.778L480.911 242.443L483.467 253.379L488.945 263.585L493.328 270.492L494.423 280.699L495.519 298.177L496.98 309.113L504.649 319.665L515.24 331.33L523.274 341.172L528.752 343.724L533.865 346.64L538.247 351.014L539.343 359.379L535.306 363.753L527.637 364.847H519.238L518.142 373.212L511.934 374.67L506.821 378.315L500.978 382.69L494.769 384.512H486.735L479.431 383.073V394.738L480.527 398.748L484.179 404.216L488.196 408.59L497.691 416.245L509.742 423.9L517.777 433.013L528.002 441.033L536.402 445.772H547.358L551.375 450.146L559.409 455.979L567.809 461.082L577.669 466.55L586.799 468.353L588.625 474.915L587.53 481.457L583.878 488.019L581.321 493.851L584.243 501.506L589.356 505.151L591.912 511.713L593.373 518.274L594.834 527.752L596.294 538.304L599.581 544.501L607.616 551.408L615.65 553.96L620.032 551.043L628.067 551.408L633.545 553.595L641.214 553.96L649.978 553.595L652.9 557.969L653.631 564.531L647.787 569.634L644.135 573.279L639.753 579.476L638.292 585.309L640.118 591.141L643.405 597.338L648.153 601.348L650.363 602.422L647.787 606.547L642.559 606.375L640.214 607.43L639.253 609.157L637.504 610.711L634.717 610.538L632.103 610.193L629.835 607.929L626.779 605.588L618.264 597.185L615.419 596.993L615.708 600.216L624.511 608.715L624.645 612.188L623.531 613.205L622.05 614.183L619.11 614.087L617.437 613.109L615.285 610.768L613.42 608.523L611.863 607.737L611.075 604.897L608.73 602.557L606.078 600.6L605.386 598.547L603.425 597.281L600.677 596.897L599.216 595.631L598.736 593.962L597.851 591.717L596.583 590.163L593.834 588.897H590.797L589.24 588.014L588.568 586.997L586.011 586.729L585.319 587.995L584.339 589.165L583.551 590.144H581.494L579.937 588.973L576.516 587.304L572.499 584.963L570.25 584.273L567.348 581.759L561.274 578.249L556.084 575.505L548.838 571.207L541.688 566.814L536.498 564.07L535.133 563.591L534.807 564.301L529.752 572.589L524.562 581.376L518.104 591.352L513.894 599.372L508.013 609.636L506.052 609.732L492.155 600.849L479.239 592.254L458.576 578.958L443.2 569.097L439.182 566.066L436.741 564.013L431.744 562.056L428.227 559.907L426.266 558.641L427.054 556.684L429.995 552.674L440.47 535.618L441.931 533.565L446.333 532.875L450.158 533.469L453.983 535.426L467.687 545L467.668 546.343L466.707 546.458L466.995 549.969L468.552 551.235L470.609 552.31L473.838 554.171L478.528 554.267L480.008 553.633L481.757 552.022L482.929 549.969L484.698 549.489L486.562 550.276V556.818L490.445 559.619L492.29 560.674L495.461 560.425L496.538 559.159L498.594 559.255L500.651 560.617L502.419 561.212L505.841 561.116L507.993 556.415L510.05 552.022L511.319 549.873L511.703 547.609L491.098 534.601L477.163 525.431L480.777 518.792L481.469 513.631L482.064 510.216L481.372 509.487L479.085 508.125L477.24 507.511L474.953 505.228L472.819 501.89L468.283 496.172L464.612 493.486L464.323 488.939L461.825 485.429L459.326 480.728L458.442 475.586L456.231 471.039L454.329 469.716L451.984 467.221L449.197 464.574L445.833 462.444L442.796 461.389L437.606 460.775H432.59L428.765 461.063L424.209 460.909L420.538 461.792L420.826 463.557L421.711 464.881L425.978 466.051L428.592 465.284L435.934 465.783L439.778 467.356L443.315 468.123L444.045 470.291L448.581 473.399L449.504 475.682L448.312 477.639L448.466 480.287L450.369 481.169L450.081 482.052L449.639 484.393L453.022 485.851L454.482 489.669L455.809 494.062L458.288 498.129L458.749 501.698L450.965 501.851L444.353 502.734L435.396 502.887L426.131 500.393L416.137 497.458L407.468 495.846L396.743 493.506L388.516 491.165L380.578 488.517L376.022 486.752L370.429 486.599L369.545 487.923H366.892L365.566 489.534L364.528 490.417V487.194L365.989 475.164L367.162 462.694L367.892 457.552L369.064 449.916L371.409 445.369L377.368 439.767L381.981 433.397L382.961 430.097L381.231 428.984L378.733 428.697L375.215 428.984L372.716 430.443L371.333 433.685L368.123 440.093L361.991 445.427L360.665 447.326L359.492 452.314L358.32 460.526L357.436 464.344L357.147 469.313L356.994 471.25L356.11 473.15L356.033 479.596L355.514 482.493L354.476 485.141L354.034 486.503L349.613 483.875L343.597 479.769L336.831 473.764L330.373 468.622L326.106 465.533L321.397 465.092L317.725 464.497L314.054 464.209L309.653 464.363L307.75 467.145L305.539 468.181L301.272 468.622L300.1 470.828L299.658 474.646L298.485 477.735L298.139 483.798L298.062 484.527L298.024 484.91L296.14 486.791H283.647L283.358 481.361L281.302 479.021L276.9 478.291L273.671 475.951L270 472.728L268.154 469.677L266.194 468.027L260.312 466.991L258.102 468.449L255.315 469.332L252.97 472.114L251.932 475.778L250.894 478.867L251.048 481.515L251.49 484.297L253.085 486.043L252.912 492.182L248.991 492.662L246.05 493.391L239.957 494.753L235.479 494.695L230.962 496.115L222.831 495.866L221.794 486.043L220.025 478.119L219.583 471.231L218.853 466.531L217.084 464.766L216.066 463.288L214.163 461.389L211.664 462.272L210.78 464.919L209.319 466.818V471.519L210.203 476.354L210.645 485.601L211.818 501.007L209.473 502.619L206.59 503.271L205.071 504.23L201.977 503.636L187.273 487.347L186.235 478.982L184.601 472.363L178.892 472.229L171.8 473.725L170.224 475.74L170.82 484.239L172.28 494.81L185.793 509.622V511.674L180.622 516.03L176.817 519.713L169.167 525.584L163.285 531.301L159.172 526.313L156.385 522.936L154.174 522.495L150.638 525.143L143.872 531.014L142.411 527.503L136.587 520.577L134.492 519.291L130.283 514.917L127.534 511.041L125.42 508.777L124.766 506.36L127.188 504.422L128.803 502.485L128.956 500.547L128.226 498.456L125.074 495.041L122.479 491.319H119.404L117.789 492.777L115.367 494.388L113.753 494.235L110.216 491.932L109.12 489.745L111.485 488.709L119.096 480.306L125.573 472.21L130.436 467.835L132.551 465.725L134.492 463.308L135.146 458.933L132.877 456.995L130.456 456.343L128.034 456.823L125.919 457.629L122.844 460.545L119.442 463.787L116.04 468.315L113.291 470.253L111.023 473.169L109.735 474.781L108.448 475.913H106.506L104.238 473.802L101.97 471.059L99.5483 468.948L99.0678 466.531L100.529 463.288L102.316 461.504L105.718 458.588L109.447 454.712L114.964 447.537L115.271 445.254L113.138 442.971L110.389 440.093L107.352 438.712L103.642 441.378L99.2408 445.676L93.0901 451.336L86.7664 458.051L83.7295 455.461L80.2121 452.122L76.6946 449.993L73.7923 446.789L69.8328 444.199L57.416 454.885L55.6285 456.669L58.2233 458.78L68.0836 467.49L68.7179 469.639L85.2672 499.549L86.0937 504.23L98.4143 525.91L104.892 538.304L109.582 547.206L111.215 550.257L111.542 554.785L110.081 557.854L106.564 559.236L100.682 560.118L73.4655 560.598L47.5365 560.156L35.0621 559.312L25.5285 555.84L16.5907 550.084L10.5938 544.75L7.1917 537.786L6.38442 530.189L6 522.227L6.80728 510.581L8.71015 504.557L8.9408 502.811L11.2089 497.938L13.1886 491.702L15.1684 485.141L18.0708 478.445L20.6656 471.442L23.4142 463.826L26.009 455.921L28.4308 450.3L29.8916 444.621L44.5572 406.058L50.8809 388.58L56.2243 375.955L56.5511 371.85L60.4337 362.468L62.375 355.35L64.7969 349.038L63.8166 345.163L62.202 339.177L62.8556 333.997L64.9699 331.08L67.5647 329.296L71.4665 326.15L74.2151 326.38L75.1954 321.699L77.8863 316.077L79.9045 310.13L80.6541 308.537L81.6729 306.657L84.383 304.988L86.7856 302.666L90.1493 296.815L92.3597 292.939L94.5893 288.699L96.992 284.44L100.125 279.107L102.162 274.31L105.315 268.228L107.525 264.909L107.89 262.511L109.562 260.477L111.408 260.669H113.522L113.637 258.635L117.251 257.273L119.365 256.237L120.884 255.969V253.724L122.44 252.266L123.651 247.297L125.497 244.534L126.419 240.85L128.457 237.339L134.011 226.998L134.492 224.811L134.588 220.917L135.837 219.056L137.125 217.77L139.163 217.214L141.392 216.868L142.68 215.583L142.834 213.319L144.333 211.132L144.775 209.271L147.524 208.945L149.119 206.144L148.812 204.263L149.138 200.714L150.042 198.968L149.946 196.992L150.099 180.166L151.08 178.229L151.56 174.18L152.444 174.065V171.475L153.175 168.885L153.502 166.084L153.982 163.667L154.636 163.187L154.482 159.465L153.502 158.333L152.694 156.069L152.848 152.827L154.309 152.021L157.057 151.369L159.172 147.819L160.575 147.205L160.94 144.999L160.767 141.872L159.998 140.107L160.479 138.169L164.861 137.689L166.975 137.21L167.744 139.934L165.688 140.606L165.034 144.155L166.014 146.093L169.57 145.939L171.319 143.906L171.512 142.064L171.723 140.433L174.049 140.452L175.337 141.91L177.451 141.104L178.912 139.819L180.43 138.131L180.545 136.922L179.892 134.812L178.912 132.394L178.104 129.977L176.49 129.171L176.97 127.713L178.758 127.061L185.408 126.408L185.255 123.492L183.64 123.012L182.025 121.88L182.275 119.406L182.083 117.564L182.275 115.722L182.333 114.129L185.255 113.976L186.331 112.038L187.253 110.945L186.235 109.41L184.62 108.278L185.428 107.299L186.715 107.453L187.849 108.259L191.251 107.933L191.732 104.383L193.02 100.182L191.405 98.57L188.734 100.047V95.9991L190.271 95.0206L190.214 91.2027L190.752 89.1882L192.366 87.9028L195.615 87.4231L196.902 85.8115L198.152 84.0081L199.017 82.243L199.17 80.1326L200.631 79.1541L202.246 77.3699L204.033 77.5234L205.821 79.1349L209.069 78.003L210.857 77.6768L213.279 75.7391L214.97 72.8996L216.45 70.5014L219.103 69.2735L220.89 68.9474L222.505 69.2735L225.1 70.559L229.155 71.5375V66.6451L232.404 66.1655L234.191 67.4509L237.439 67.6044L238.573 64.2085L239.573 62.3284L241.976 61.772L244.09 62.5778L247.338 61.2923H250.894L253.873 59.4121L258.813 57.0331L263.119 53.3879L267.847 49.5124L274.728 43.7183L277.957 39.2097L282.263 37.272L286.472 36.6196L288.413 32.418L291.335 31.6122L291.181 27.4106L293.468 24.1874L299.927 19.6788L305.289 16.7434L310.96 12.2156L316.092 8.32088L320.608 7.24648L326.356 6.40232L333.813 4.29189L338.023 2.35415L345.807 1.87451L347.748 3.33261L347.595 7.20811L347.883 10.6999Z" stroke="#4B0082" stroke-width="2" mask="url(#path-1-inside-1_2695_380)"/>
</g>
<defs>
<filter id="filter0_d_2695_380" x="0.6" y="0.474512" width="801.089" height="896.926" filterUnits="userSpaceOnUse" color-interpolation-filters="sRGB">
<feFlood flood-opacity="0" result="BackgroundImageFix"/>
<feColorMatrix in="SourceAlpha" type="matrix" values="0 0 0 0 0 0 0 0 0 0 0 0 0 0 0 0 0 0 127 0" result="hardAlpha"/>
<feOffset dy="4"/>
<feGaussianBlur stdDeviation="2.7"/>
<feComposite in2="hardAlpha" operator="out"/>
<feColorMatrix type="matrix" values="0 0 0 0 0.4608 0 0 0 0 0.2592 0 0 0 0 0.4104 0 0 0 0.56 0"/>
<feBlend mode="hard-light" in2="BackgroundImageFix" result="effect1_dropShadow_2695_380"/>
<feBlend mode="normal" in="SourceGraphic" in2="effect1_dropShadow_2695_380" result="shape"/>
</filter>
</defs>
</svg>
