<svg width="770" height="508" viewBox="0 0 770 508" fill="none" xmlns="http://www.w3.org/2000/svg">
<g filter="url(#filter0_d_2695_379)">
<mask id="path-1-inside-1_2695_379" fill="white">
<path d="M443.959 129.015L448.199 130.399L450.713 130.264L456.757 132.935L461.554 134.203L466.275 135.702L471.436 136.355L473.797 137.853L477.231 138.507L477.423 138.833L481.76 140.927L484.734 143.022L488.572 145.116L493.292 149.669L498.185 153.877L502.906 160.89L505.88 165.962L506.935 170.688L509.027 175.415L510.6 179.795L511.483 192.226L510.965 199.584L510.255 205.195L510.428 205.329L510.255 225.522L515.321 225.868L520.751 228.135L525.471 231.113L521.634 240.911L515.34 255.436L506.801 275.956L499.624 292.632L494.386 305.409L486.173 322.912L478.824 340.78L476.195 347.082L475.677 350.579L474.449 354.786L477.078 358.821L481.453 359.878L485.482 360.223L489.857 359.532L496.324 358.302L500.699 357.956L503.328 357.265L506.475 356.746L509.794 355.343L515.397 353.941L518.544 354.287L522.037 355.343L526.239 356.746L529.559 358.494L532.015 360.07L534.816 362.164L537.445 363.048L541.283 363.739L543.739 365.315L547.941 366.545L551.606 369.177L551.683 371.463L551.875 376.747L551.05 380.474L549.802 382.126L549.764 382.184H549.668L547.653 384.028L542.952 385.277L538.942 386.526L535.277 387.352L530.441 388.947L525.817 391.233L522.094 393.174L518.506 394.077L515.129 395.46L511.118 396.843L508.01 398.092L505.937 398.784L500.008 399.379L490.107 400.551L482.873 400.167L476.771 396.766L469.172 393.097L456.968 388.659L444.86 391.329L437.53 393.904L435.093 381.704L433.577 379.071L444.572 354.46L442.27 354.056L437.933 364.662L433.865 372.001L431.889 379.129L427.821 380.09L418.86 379.552L413.909 381.127L412.01 382.088L410.11 383.183L408.882 382.645L408.594 379.994L406.234 379.84L404.603 382.837L402.051 382.049L394.375 382.241H391.746L390.442 383.548L388.043 382.453H386.508L384.321 383.337L383.227 384.432H378.852L377.547 385.969L375.148 386.622H372.961L370.332 387.928H365.324L365.209 388.332L361.87 387.871L359.28 388.486L358.071 390.003H355.634L353.178 391.291L351.355 392.655L348.918 392.962L348.457 394.326L345.56 394.173L341.453 395.249L339.016 397.381L335.16 399.706L328.827 400.801L324.452 401.685L320.308 403.222L317.468 404.97L313.534 405.412L310.694 406.296L307.202 407.18L302.174 408.275L299.987 409.37L296.706 411.772L294.307 413.078L288.186 413.731L281.643 415.038L276.73 413.866L274.217 417.67L271.127 416.229L270.935 416.21L268.096 415.614L265.313 417.44L261.955 417.286L257.695 418.362L255.412 420.648L252.514 420.341L250.231 420.494L246.47 419.783L244.071 420.879L241.443 421.762L238.392 422.416L235.916 424.74L231.369 425.701L229.085 426.008H225.727L223.444 426.777L221.621 428.602L219.645 428.448L215.941 428.045L215.385 429.371L211.739 430.139L208.151 430.543L204.447 431.638L202.145 434.424L199.094 435.039L196.522 436.153L194.834 438.535L190.881 438.689L187.389 439.765L184.645 440.226L179.924 440.38L176.605 440.879L171.673 441.705L165.782 444.338L160.985 445.433L155.305 447.181L150.873 450.217L147.822 453.656L143.255 456.711L136.712 459.497L133.603 461.629L130.495 463.109L127.54 464.915L123.318 466.528L121.15 465.049L119.672 465.203L116.391 466.836L112.131 471.101L110.174 473.56L107.891 474.54H106.259L104.456 474.367L102 475.52L101.251 477.48L98.6608 479.92L96.3774 482.36L92.271 486.01L88.8938 485.184H86.5912L84.3078 486.817L82.0052 489.123L79.549 491.582L78.2059 494.08L75.6346 495.194L74.6752 497.73L72.6796 497L70.0507 494.368L68.151 491.179L64.6396 488.623L61.9148 484.781L59.7849 481.88L57.8084 478.825L55.3715 475.021L53.5486 472.888L52.2054 468.296L49.4231 461.898L45.9883 455.827L45.854 446.144L46.4488 444.203L48.7898 443.857L50.4208 445.337L57.1368 445.663L59.593 444.837L61.5502 444.184L64.3325 443.531H69.8972L72.3533 444.683L77.4383 445.183L79.3955 443.05L78.8774 440.476L77.918 439.112L75.1549 437.536L71.6626 437.229L68.6116 434.174L65.7141 431.119L65.3112 423.223L62.3753 420.629L58.0963 420.744L59.5354 417.997L60.5716 414.999L60.9553 412.905L60.6867 409.927L60.514 408.486L61.4735 406.411L60.111 401.185L58.7487 398.169L56.8298 394.864L56.0047 392.117L57.9236 385.527L61.7613 382.51L65.0617 379.763L67.537 375.363L70.281 373.711L74.9438 371.79L76.594 366.026L73.2936 361.088L72.1998 351.751L63.9679 345.987L59.0173 338.571L52.7043 335.823L43.9159 333.076L40.6155 331.423L36.2213 324.007L32.6522 315.208L32.3836 306.696L31.0021 301.201L23.8639 299.549L13.9818 297.897L6.01855 297.628V290.481L12.3316 287.733L22.2137 287.176L25.7828 283.602L25.5141 277.839L23.5953 270.422L19.7576 262.18L15.632 257.78L15.9007 246.522L21.12 238.01L26.0706 229.211L29.0832 217.395L32.3836 208.883L37.3151 200.91L43.6281 197.894L50.4976 198.451L56.8106 199.546L65.599 201.198L72.2766 201.602L70.7031 204.311L67.0573 212.342L64.5052 220.373V231.324L68.151 238.26L74.7135 243.006L79.0885 248.481L79.4531 255.782L81.6406 260.163L86.3801 266.368L92.9426 267.829L98.776 270.019L104.974 272.209L117.734 272.939L121.38 276.955L123.203 284.986L122.109 291.192L126.12 295.937L131.224 300.683L138.88 303.603L145.807 311.999L153.463 318.205L162.213 326.601L166.588 333.172L169.14 339.012L175.338 343.028L174.974 348.869L171.328 354.709L173.515 361.645L176.796 366.026L182.63 366.756L192.838 365.296L203.776 363.836L213.619 362.74L224.192 363.105L227.109 360.185L227.838 356.535V351.059L224.557 348.869L220.911 344.853L224.921 339.012L228.567 336.092L226.015 330.616L230.39 325.871L234.401 325.141L239.14 323.681L244.609 318.935L250.078 315.65H258.827L264.296 314.189L267.194 310.558L267.136 308.253L266.042 307.369L265.659 304.429L262.934 301.355L261.13 299.895L258.329 299.722L257.542 295.764L255.163 295.399L254.357 292.287L254.433 290.923L249.617 290.461L246.624 289.578L248.619 283.871L255.182 284.602L262.109 286.062L269.765 287.887L279.973 286.792L293.079 285.697L299.277 285.332L304.746 288.982L309.121 292.998H314.954L322.975 290.807L329.537 284.967L335.735 280.221L342.298 274.015L348.496 269.635L353.964 267.079L364.537 264.889L371.1 262.334L371.829 253.938L371.1 245.907L368.912 238.241L365.631 234.59L364.537 229.115L367.454 227.289L374.016 222.179L379.12 218.163L383.131 213.418L390.058 206.482L394.433 199.181L396.985 196.261L402.818 193.34L404.277 186.404L402.089 180.199L397.714 177.643L391.881 172.533L387.506 167.057L385.683 161.581L384.8 155.817L387.985 153.07L389.943 149.727L391.017 148.689L392.073 148.094L396.237 143.502L399.652 140.562L400.746 136.835L403.97 135.336L405.466 132.973L407.826 132.109L411.683 131.033L417.037 130.283L420.088 131.033L425.211 129.534L429.471 131.513H432.1L435.765 129.88L438.259 129.265L441.138 128.977L443.959 129.015ZM331.437 106.171L330.42 106.459L329.269 106.306L327.829 105.441L324.222 101.675L320.173 98.0635L320.02 96.0461L318.139 93.5868L319.444 93.2986L321.325 94.7396L323.205 95.0278L324.932 95.8924L326.947 96.757L328.962 97.4871L328.808 99.0817L329.096 100.235L329.959 100.965L330.823 102.271L330.247 103.289V104.442L331.264 105.595L331.437 106.171ZM313.4 86.5165L312.67 87.2466L311.078 86.6702L310.061 85.0755L308.046 83.0582L305.59 81.0408L306.895 80.3107L307.47 80.5989L309.351 80.8871L310.656 81.7517L311.961 83.0582L312.69 85.0755L313.4 86.5165ZM559.454 63.9413L556.422 64.3832L554.158 63.6147L551.664 62.0969L548.517 59.5031L546.56 57.9853L544.506 55.3916L543.202 52.5673L542.434 49.9735L541.455 47.2645L542.645 45.6314L543.72 44.325L545.024 42.4805L546.751 40.1942L547.5 37.8118L548.689 35.3141L549.668 33.681L549.783 32.0479L549.035 31.1833L549.476 30.1074L550.244 29.2428L551.222 29.8961L551.549 32.0671L551.99 34.1229L553.064 35.1028L554.043 36.294L554.695 37.9271L557.612 38.5803L560.529 39.0222L563.35 40.0981L565.844 41.078L567.034 43.787L568.876 45.9581L571.581 49.3203L572.886 52.4712V54.9689L572.234 57.5627L571.581 59.8298L570.066 61.5589L567.475 61.7703L564.443 62.4235L561.527 63.192L559.454 63.9413ZM338.498 47.2261L339.842 48.3789H361.985L365.074 47.034L367.761 45.6891L370.063 44.9206L384.493 45.1127L386.796 44.3442H393.55L399.518 45.3048L405.294 46.2655L409.726 47.6104L413.583 48.3789L415.886 49.1474L418.956 49.3395L420.875 47.034L424.54 47.6104L428.397 48.3789H432.062L434.94 47.2261L436.859 46.4576L438.778 46.6497L439.545 49.5317L440.121 50.6844L442.615 50.3002L444.342 48.7631L445.494 47.8025L449.926 47.2261L450.694 49.1474L452.229 50.108L453.764 52.0293L453.572 53.9506L454.148 57.4282L454.915 59.3495L454.723 62.0393L455.299 64.7291L454.531 66.4582L453.38 69.5323L453.764 73.3941L455.875 75.1232L457.026 76.276L458.177 76.8524L457.602 78.1973L455.491 77.6209L452.21 76.6603L447.777 77.2367L445.666 78.5816L442.98 77.4288L439.315 78.5816L437.012 79.5422L435.477 80.3107H431.62L429.701 79.3501L426.612 78.5816L425.461 79.7343L423.734 80.3107L420.664 79.7343L417.382 78.9658L414.504 79.7343L410.839 79.9265L409.112 80.8871L406.618 82.4241L404.507 83.0005L403.931 84.5376L401.82 85.1139L398.75 85.8825L397.599 88.5723L397.215 90.8778L395.68 91.6463L393.761 92.607L392.418 94.3361L390.691 96.0653L387.813 96.6417L387.429 94.5283L384.935 94.3361L383.591 94.9125L383.016 96.2574L380.137 97.9866L376.472 98.3709L372.999 99.5236L369.718 100.292L365.286 101.637L361.045 103.174L356.037 103.943L351.796 104.327L349.685 105.864L346.404 105.48L344.869 102.79L343.526 99.5044L340.839 95.4505L338.153 93.7213L336.81 90.2438L334.699 86.9584L332.204 85.4214L328.923 84.845H323.723L321.612 82.5394L320.269 79.8496L319.31 77.3519L318.35 73.298L314.11 69.4362L310.253 68.0913L303.901 67.5149L300.428 65.5936L295.996 64.2487L292.906 62.7117L287.898 58.4657L285.787 56.5444L283.293 55.1995H281.758L278.88 55.968L275.215 55.0073H272.336L268.863 53.2782L268.479 51.9333L266.177 48.8592L264.642 47.13H262.147L260.612 48.8592L258.693 49.0513L256.966 47.8986L255.623 46.9379L254.472 45.593L253.32 43.8638L251.018 42.9032L248.715 40.4055L248.331 38.1L247.18 35.4102L246.796 32.9125L246.029 31.3755L246.221 28.6857L248.523 28.1093L252.956 27.1486L255.834 25.4195L257.561 23.8824L258.712 21.0005L265.064 20.4241L266.407 19.0792L267.175 16.5815L268.518 15.2366H270.437L274.677 16.3894L277.747 18.6949L281.604 19.8477L286.804 22.5375L293.348 25.0352L299.891 26.9565L306.818 28.3014L310.483 30.2227L312.786 31.9519L316.643 33.2967L317.41 34.8338V37.9078L321.075 41.1933L325.508 43.1145L328.386 43.8831L335.697 44.8437L338.498 47.2261ZM708.645 14.8716L715.38 17.3693L719.237 20.6547L722.71 22.9602L725.992 25.2658L730.04 28.3398L733.897 32.778L736.967 34.315L740.632 35.6599L743.319 37.9655L745.813 40.4632L748.692 42.0002L750.802 42.7687L752.913 45.4585L753.105 49.3203L755.599 52.3944L758.286 55.4684L759.245 58.0238L762.526 62.6541L763.678 66.1316L763.87 73.6438L762.335 77.6978L760.608 80.5797L760.416 84.2494L758.305 87.5348L757.537 90.2246L756.77 95.4313L755.81 97.5447L754.659 100.427L754.084 104.673L753.7 110.072L752.165 111.801L751.397 116.623L749.67 121.638L748.327 125.499L746.216 127.997L745.065 129.726L739.481 131.648L735.624 133.377L732.343 134.53L730.424 133.377L725.992 131.455L721.943 129.534L719.065 128.189L715.994 128.958L712.905 130.687L707.705 132.224L700.778 135.509L695.194 138.583L689.418 142.061L684.026 144.559L682.299 145.519L676.332 147.056L672.283 149.17L671.515 152.244L669.405 153.781L667.87 154.934L666.142 156.279L663.053 159.756L659.772 162.446L657.469 162.83L654.764 164.559L652.077 165.52L649.775 163.791L649.007 161.293L647.088 159.756L645.169 159.18L644.018 156.086L641.716 155.126L640.756 153.589L639.605 150.899L637.11 147.806L635 146.076L634.616 141.83L632.313 141.062V138.18L629.243 136.067L625.578 132.013L621.721 127.19L619.418 123.905L617.116 120.619L615.005 118.506H611.724L609.997 116.585L610.381 114.663L610.572 111.09L608.846 107.42L607.31 104.922L605.967 102.809L604.432 100.311L600.959 96.8338L598.081 94.9125L594.032 93.7598L592.305 89.7058L587.681 88.5531L584.207 87.4003L583.248 85.0947L581.905 81.8093L580.37 80.6566L579.027 79.5038L582.097 77.3904L582.672 75.6612L583.632 72.9714L585.167 69.1096L587.278 65.6321L588.621 63.1344L590.156 56.7749L588.813 52.1446L587.278 50.4155L585.359 46.9379L583.824 43.0761L582.864 38.2537L582.097 34.1998L581.521 29.5695L580.37 23.21L582.481 20.9044L584.591 20.5202L587.278 22.4415L589.388 23.0179L592.075 24.1706L594.78 24.5549H597.467H600.94L603.626 25.8998L606.313 25.5155L609.191 24.747L611.302 24.1706L613.988 23.0179L616.099 20.5202L619.764 17.0426L621.97 15.7362L623.506 13.8149V10.8177L625.233 9.0885L626.768 7.7436L627.727 6.01444L628.495 3.70889L630.222 3.32463L631.949 4.09314L633.1 5.82231L635.019 8.12785L637.225 9.85702L642.617 10.2413L644.536 8.89637L647.031 9.47276L649.525 11.9704L651.636 12.3547L655.109 12.9311L657.028 15.4288L659.331 15.813L661.249 14.4681L663.168 10.9906L664.703 9.45355L668.368 7.53226L669.136 3.86258L672.59 2.32556L676.831 2.90194L679.133 3.28621L681.244 5.01537L684.717 6.16814L689.341 7.12879L693.006 8.47368L698.207 9.62646L701.872 11.5477L708.645 14.8716Z"/>
</mask>
<path d="M443.959 129.015L448.199 130.399L450.713 130.264L456.757 132.935L461.554 134.203L466.275 135.702L471.436 136.355L473.797 137.853L477.231 138.507L477.423 138.833L481.76 140.927L484.734 143.022L488.572 145.116L493.292 149.669L498.185 153.877L502.906 160.89L505.88 165.962L506.935 170.688L509.027 175.415L510.6 179.795L511.483 192.226L510.965 199.584L510.255 205.195L510.428 205.329L510.255 225.522L515.321 225.868L520.751 228.135L525.471 231.113L521.634 240.911L515.34 255.436L506.801 275.956L499.624 292.632L494.386 305.409L486.173 322.912L478.824 340.78L476.195 347.082L475.677 350.579L474.449 354.786L477.078 358.821L481.453 359.878L485.482 360.223L489.857 359.532L496.324 358.302L500.699 357.956L503.328 357.265L506.475 356.746L509.794 355.343L515.397 353.941L518.544 354.287L522.037 355.343L526.239 356.746L529.559 358.494L532.015 360.07L534.816 362.164L537.445 363.048L541.283 363.739L543.739 365.315L547.941 366.545L551.606 369.177L551.683 371.463L551.875 376.747L551.05 380.474L549.802 382.126L549.764 382.184H549.668L547.653 384.028L542.952 385.277L538.942 386.526L535.277 387.352L530.441 388.947L525.817 391.233L522.094 393.174L518.506 394.077L515.129 395.46L511.118 396.843L508.01 398.092L505.937 398.784L500.008 399.379L490.107 400.551L482.873 400.167L476.771 396.766L469.172 393.097L456.968 388.659L444.86 391.329L437.53 393.904L435.093 381.704L433.577 379.071L444.572 354.46L442.27 354.056L437.933 364.662L433.865 372.001L431.889 379.129L427.821 380.09L418.86 379.552L413.909 381.127L412.01 382.088L410.11 383.183L408.882 382.645L408.594 379.994L406.234 379.84L404.603 382.837L402.051 382.049L394.375 382.241H391.746L390.442 383.548L388.043 382.453H386.508L384.321 383.337L383.227 384.432H378.852L377.547 385.969L375.148 386.622H372.961L370.332 387.928H365.324L365.209 388.332L361.87 387.871L359.28 388.486L358.071 390.003H355.634L353.178 391.291L351.355 392.655L348.918 392.962L348.457 394.326L345.56 394.173L341.453 395.249L339.016 397.381L335.16 399.706L328.827 400.801L324.452 401.685L320.308 403.222L317.468 404.97L313.534 405.412L310.694 406.296L307.202 407.18L302.174 408.275L299.987 409.37L296.706 411.772L294.307 413.078L288.186 413.731L281.643 415.038L276.73 413.866L274.217 417.67L271.127 416.229L270.935 416.21L268.096 415.614L265.313 417.44L261.955 417.286L257.695 418.362L255.412 420.648L252.514 420.341L250.231 420.494L246.47 419.783L244.071 420.879L241.443 421.762L238.392 422.416L235.916 424.74L231.369 425.701L229.085 426.008H225.727L223.444 426.777L221.621 428.602L219.645 428.448L215.941 428.045L215.385 429.371L211.739 430.139L208.151 430.543L204.447 431.638L202.145 434.424L199.094 435.039L196.522 436.153L194.834 438.535L190.881 438.689L187.389 439.765L184.645 440.226L179.924 440.38L176.605 440.879L171.673 441.705L165.782 444.338L160.985 445.433L155.305 447.181L150.873 450.217L147.822 453.656L143.255 456.711L136.712 459.497L133.603 461.629L130.495 463.109L127.54 464.915L123.318 466.528L121.15 465.049L119.672 465.203L116.391 466.836L112.131 471.101L110.174 473.56L107.891 474.54H106.259L104.456 474.367L102 475.52L101.251 477.48L98.6608 479.92L96.3774 482.36L92.271 486.01L88.8938 485.184H86.5912L84.3078 486.817L82.0052 489.123L79.549 491.582L78.2059 494.08L75.6346 495.194L74.6752 497.73L72.6796 497L70.0507 494.368L68.151 491.179L64.6396 488.623L61.9148 484.781L59.7849 481.88L57.8084 478.825L55.3715 475.021L53.5486 472.888L52.2054 468.296L49.4231 461.898L45.9883 455.827L45.854 446.144L46.4488 444.203L48.7898 443.857L50.4208 445.337L57.1368 445.663L59.593 444.837L61.5502 444.184L64.3325 443.531H69.8972L72.3533 444.683L77.4383 445.183L79.3955 443.05L78.8774 440.476L77.918 439.112L75.1549 437.536L71.6626 437.229L68.6116 434.174L65.7141 431.119L65.3112 423.223L62.3753 420.629L58.0963 420.744L59.5354 417.997L60.5716 414.999L60.9553 412.905L60.6867 409.927L60.514 408.486L61.4735 406.411L60.111 401.185L58.7487 398.169L56.8298 394.864L56.0047 392.117L57.9236 385.527L61.7613 382.51L65.0617 379.763L67.537 375.363L70.281 373.711L74.9438 371.79L76.594 366.026L73.2936 361.088L72.1998 351.751L63.9679 345.987L59.0173 338.571L52.7043 335.823L43.9159 333.076L40.6155 331.423L36.2213 324.007L32.6522 315.208L32.3836 306.696L31.0021 301.201L23.8639 299.549L13.9818 297.897L6.01855 297.628V290.481L12.3316 287.733L22.2137 287.176L25.7828 283.602L25.5141 277.839L23.5953 270.422L19.7576 262.18L15.632 257.78L15.9007 246.522L21.12 238.01L26.0706 229.211L29.0832 217.395L32.3836 208.883L37.3151 200.91L43.6281 197.894L50.4976 198.451L56.8106 199.546L65.599 201.198L72.2766 201.602L70.7031 204.311L67.0573 212.342L64.5052 220.373V231.324L68.151 238.26L74.7135 243.006L79.0885 248.481L79.4531 255.782L81.6406 260.163L86.3801 266.368L92.9426 267.829L98.776 270.019L104.974 272.209L117.734 272.939L121.38 276.955L123.203 284.986L122.109 291.192L126.12 295.937L131.224 300.683L138.88 303.603L145.807 311.999L153.463 318.205L162.213 326.601L166.588 333.172L169.14 339.012L175.338 343.028L174.974 348.869L171.328 354.709L173.515 361.645L176.796 366.026L182.63 366.756L192.838 365.296L203.776 363.836L213.619 362.74L224.192 363.105L227.109 360.185L227.838 356.535V351.059L224.557 348.869L220.911 344.853L224.921 339.012L228.567 336.092L226.015 330.616L230.39 325.871L234.401 325.141L239.14 323.681L244.609 318.935L250.078 315.65H258.827L264.296 314.189L267.194 310.558L267.136 308.253L266.042 307.369L265.659 304.429L262.934 301.355L261.13 299.895L258.329 299.722L257.542 295.764L255.163 295.399L254.357 292.287L254.433 290.923L249.617 290.461L246.624 289.578L248.619 283.871L255.182 284.602L262.109 286.062L269.765 287.887L279.973 286.792L293.079 285.697L299.277 285.332L304.746 288.982L309.121 292.998H314.954L322.975 290.807L329.537 284.967L335.735 280.221L342.298 274.015L348.496 269.635L353.964 267.079L364.537 264.889L371.1 262.334L371.829 253.938L371.1 245.907L368.912 238.241L365.631 234.59L364.537 229.115L367.454 227.289L374.016 222.179L379.12 218.163L383.131 213.418L390.058 206.482L394.433 199.181L396.985 196.261L402.818 193.34L404.277 186.404L402.089 180.199L397.714 177.643L391.881 172.533L387.506 167.057L385.683 161.581L384.8 155.817L387.985 153.07L389.943 149.727L391.017 148.689L392.073 148.094L396.237 143.502L399.652 140.562L400.746 136.835L403.97 135.336L405.466 132.973L407.826 132.109L411.683 131.033L417.037 130.283L420.088 131.033L425.211 129.534L429.471 131.513H432.1L435.765 129.88L438.259 129.265L441.138 128.977L443.959 129.015ZM331.437 106.171L330.42 106.459L329.269 106.306L327.829 105.441L324.222 101.675L320.173 98.0635L320.02 96.0461L318.139 93.5868L319.444 93.2986L321.325 94.7396L323.205 95.0278L324.932 95.8924L326.947 96.757L328.962 97.4871L328.808 99.0817L329.096 100.235L329.959 100.965L330.823 102.271L330.247 103.289V104.442L331.264 105.595L331.437 106.171ZM313.4 86.5165L312.67 87.2466L311.078 86.6702L310.061 85.0755L308.046 83.0582L305.59 81.0408L306.895 80.3107L307.47 80.5989L309.351 80.8871L310.656 81.7517L311.961 83.0582L312.69 85.0755L313.4 86.5165ZM559.454 63.9413L556.422 64.3832L554.158 63.6147L551.664 62.0969L548.517 59.5031L546.56 57.9853L544.506 55.3916L543.202 52.5673L542.434 49.9735L541.455 47.2645L542.645 45.6314L543.72 44.325L545.024 42.4805L546.751 40.1942L547.5 37.8118L548.689 35.3141L549.668 33.681L549.783 32.0479L549.035 31.1833L549.476 30.1074L550.244 29.2428L551.222 29.8961L551.549 32.0671L551.99 34.1229L553.064 35.1028L554.043 36.294L554.695 37.9271L557.612 38.5803L560.529 39.0222L563.35 40.0981L565.844 41.078L567.034 43.787L568.876 45.9581L571.581 49.3203L572.886 52.4712V54.9689L572.234 57.5627L571.581 59.8298L570.066 61.5589L567.475 61.7703L564.443 62.4235L561.527 63.192L559.454 63.9413ZM338.498 47.2261L339.842 48.3789H361.985L365.074 47.034L367.761 45.6891L370.063 44.9206L384.493 45.1127L386.796 44.3442H393.55L399.518 45.3048L405.294 46.2655L409.726 47.6104L413.583 48.3789L415.886 49.1474L418.956 49.3395L420.875 47.034L424.54 47.6104L428.397 48.3789H432.062L434.94 47.2261L436.859 46.4576L438.778 46.6497L439.545 49.5317L440.121 50.6844L442.615 50.3002L444.342 48.7631L445.494 47.8025L449.926 47.2261L450.694 49.1474L452.229 50.108L453.764 52.0293L453.572 53.9506L454.148 57.4282L454.915 59.3495L454.723 62.0393L455.299 64.7291L454.531 66.4582L453.38 69.5323L453.764 73.3941L455.875 75.1232L457.026 76.276L458.177 76.8524L457.602 78.1973L455.491 77.6209L452.21 76.6603L447.777 77.2367L445.666 78.5816L442.98 77.4288L439.315 78.5816L437.012 79.5422L435.477 80.3107H431.62L429.701 79.3501L426.612 78.5816L425.461 79.7343L423.734 80.3107L420.664 79.7343L417.382 78.9658L414.504 79.7343L410.839 79.9265L409.112 80.8871L406.618 82.4241L404.507 83.0005L403.931 84.5376L401.82 85.1139L398.75 85.8825L397.599 88.5723L397.215 90.8778L395.68 91.6463L393.761 92.607L392.418 94.3361L390.691 96.0653L387.813 96.6417L387.429 94.5283L384.935 94.3361L383.591 94.9125L383.016 96.2574L380.137 97.9866L376.472 98.3709L372.999 99.5236L369.718 100.292L365.286 101.637L361.045 103.174L356.037 103.943L351.796 104.327L349.685 105.864L346.404 105.48L344.869 102.79L343.526 99.5044L340.839 95.4505L338.153 93.7213L336.81 90.2438L334.699 86.9584L332.204 85.4214L328.923 84.845H323.723L321.612 82.5394L320.269 79.8496L319.31 77.3519L318.35 73.298L314.11 69.4362L310.253 68.0913L303.901 67.5149L300.428 65.5936L295.996 64.2487L292.906 62.7117L287.898 58.4657L285.787 56.5444L283.293 55.1995H281.758L278.88 55.968L275.215 55.0073H272.336L268.863 53.2782L268.479 51.9333L266.177 48.8592L264.642 47.13H262.147L260.612 48.8592L258.693 49.0513L256.966 47.8986L255.623 46.9379L254.472 45.593L253.32 43.8638L251.018 42.9032L248.715 40.4055L248.331 38.1L247.18 35.4102L246.796 32.9125L246.029 31.3755L246.221 28.6857L248.523 28.1093L252.956 27.1486L255.834 25.4195L257.561 23.8824L258.712 21.0005L265.064 20.4241L266.407 19.0792L267.175 16.5815L268.518 15.2366H270.437L274.677 16.3894L277.747 18.6949L281.604 19.8477L286.804 22.5375L293.348 25.0352L299.891 26.9565L306.818 28.3014L310.483 30.2227L312.786 31.9519L316.643 33.2967L317.41 34.8338V37.9078L321.075 41.1933L325.508 43.1145L328.386 43.8831L335.697 44.8437L338.498 47.2261ZM708.645 14.8716L715.38 17.3693L719.237 20.6547L722.71 22.9602L725.992 25.2658L730.04 28.3398L733.897 32.778L736.967 34.315L740.632 35.6599L743.319 37.9655L745.813 40.4632L748.692 42.0002L750.802 42.7687L752.913 45.4585L753.105 49.3203L755.599 52.3944L758.286 55.4684L759.245 58.0238L762.526 62.6541L763.678 66.1316L763.87 73.6438L762.335 77.6978L760.608 80.5797L760.416 84.2494L758.305 87.5348L757.537 90.2246L756.77 95.4313L755.81 97.5447L754.659 100.427L754.084 104.673L753.7 110.072L752.165 111.801L751.397 116.623L749.67 121.638L748.327 125.499L746.216 127.997L745.065 129.726L739.481 131.648L735.624 133.377L732.343 134.53L730.424 133.377L725.992 131.455L721.943 129.534L719.065 128.189L715.994 128.958L712.905 130.687L707.705 132.224L700.778 135.509L695.194 138.583L689.418 142.061L684.026 144.559L682.299 145.519L676.332 147.056L672.283 149.17L671.515 152.244L669.405 153.781L667.87 154.934L666.142 156.279L663.053 159.756L659.772 162.446L657.469 162.83L654.764 164.559L652.077 165.52L649.775 163.791L649.007 161.293L647.088 159.756L645.169 159.18L644.018 156.086L641.716 155.126L640.756 153.589L639.605 150.899L637.11 147.806L635 146.076L634.616 141.83L632.313 141.062V138.18L629.243 136.067L625.578 132.013L621.721 127.19L619.418 123.905L617.116 120.619L615.005 118.506H611.724L609.997 116.585L610.381 114.663L610.572 111.09L608.846 107.42L607.31 104.922L605.967 102.809L604.432 100.311L600.959 96.8338L598.081 94.9125L594.032 93.7598L592.305 89.7058L587.681 88.5531L584.207 87.4003L583.248 85.0947L581.905 81.8093L580.37 80.6566L579.027 79.5038L582.097 77.3904L582.672 75.6612L583.632 72.9714L585.167 69.1096L587.278 65.6321L588.621 63.1344L590.156 56.7749L588.813 52.1446L587.278 50.4155L585.359 46.9379L583.824 43.0761L582.864 38.2537L582.097 34.1998L581.521 29.5695L580.37 23.21L582.481 20.9044L584.591 20.5202L587.278 22.4415L589.388 23.0179L592.075 24.1706L594.78 24.5549H597.467H600.94L603.626 25.8998L606.313 25.5155L609.191 24.747L611.302 24.1706L613.988 23.0179L616.099 20.5202L619.764 17.0426L621.97 15.7362L623.506 13.8149V10.8177L625.233 9.0885L626.768 7.7436L627.727 6.01444L628.495 3.70889L630.222 3.32463L631.949 4.09314L633.1 5.82231L635.019 8.12785L637.225 9.85702L642.617 10.2413L644.536 8.89637L647.031 9.47276L649.525 11.9704L651.636 12.3547L655.109 12.9311L657.028 15.4288L659.331 15.813L661.249 14.4681L663.168 10.9906L664.703 9.45355L668.368 7.53226L669.136 3.86258L672.59 2.32556L676.831 2.90194L679.133 3.28621L681.244 5.01537L684.717 6.16814L689.341 7.12879L693.006 8.47368L698.207 9.62646L701.872 11.5477L708.645 14.8716Z" fill="#F5F5F5"/>
<path d="M443.959 129.015L448.199 130.399L450.713 130.264L456.757 132.935L461.554 134.203L466.275 135.702L471.436 136.355L473.797 137.853L477.231 138.507L477.423 138.833L481.76 140.927L484.734 143.022L488.572 145.116L493.292 149.669L498.185 153.877L502.906 160.89L505.88 165.962L506.935 170.688L509.027 175.415L510.6 179.795L511.483 192.226L510.965 199.584L510.255 205.195L510.428 205.329L510.255 225.522L515.321 225.868L520.751 228.135L525.471 231.113L521.634 240.911L515.34 255.436L506.801 275.956L499.624 292.632L494.386 305.409L486.173 322.912L478.824 340.78L476.195 347.082L475.677 350.579L474.449 354.786L477.078 358.821L481.453 359.878L485.482 360.223L489.857 359.532L496.324 358.302L500.699 357.956L503.328 357.265L506.475 356.746L509.794 355.343L515.397 353.941L518.544 354.287L522.037 355.343L526.239 356.746L529.559 358.494L532.015 360.07L534.816 362.164L537.445 363.048L541.283 363.739L543.739 365.315L547.941 366.545L551.606 369.177L551.683 371.463L551.875 376.747L551.05 380.474L549.802 382.126L549.764 382.184H549.668L547.653 384.028L542.952 385.277L538.942 386.526L535.277 387.352L530.441 388.947L525.817 391.233L522.094 393.174L518.506 394.077L515.129 395.46L511.118 396.843L508.01 398.092L505.937 398.784L500.008 399.379L490.107 400.551L482.873 400.167L476.771 396.766L469.172 393.097L456.968 388.659L444.86 391.329L437.53 393.904L435.093 381.704L433.577 379.071L444.572 354.46L442.27 354.056L437.933 364.662L433.865 372.001L431.889 379.129L427.821 380.09L418.86 379.552L413.909 381.127L412.01 382.088L410.11 383.183L408.882 382.645L408.594 379.994L406.234 379.84L404.603 382.837L402.051 382.049L394.375 382.241H391.746L390.442 383.548L388.043 382.453H386.508L384.321 383.337L383.227 384.432H378.852L377.547 385.969L375.148 386.622H372.961L370.332 387.928H365.324L365.209 388.332L361.87 387.871L359.28 388.486L358.071 390.003H355.634L353.178 391.291L351.355 392.655L348.918 392.962L348.457 394.326L345.56 394.173L341.453 395.249L339.016 397.381L335.16 399.706L328.827 400.801L324.452 401.685L320.308 403.222L317.468 404.97L313.534 405.412L310.694 406.296L307.202 407.18L302.174 408.275L299.987 409.37L296.706 411.772L294.307 413.078L288.186 413.731L281.643 415.038L276.73 413.866L274.217 417.67L271.127 416.229L270.935 416.21L268.096 415.614L265.313 417.44L261.955 417.286L257.695 418.362L255.412 420.648L252.514 420.341L250.231 420.494L246.47 419.783L244.071 420.879L241.443 421.762L238.392 422.416L235.916 424.74L231.369 425.701L229.085 426.008H225.727L223.444 426.777L221.621 428.602L219.645 428.448L215.941 428.045L215.385 429.371L211.739 430.139L208.151 430.543L204.447 431.638L202.145 434.424L199.094 435.039L196.522 436.153L194.834 438.535L190.881 438.689L187.389 439.765L184.645 440.226L179.924 440.38L176.605 440.879L171.673 441.705L165.782 444.338L160.985 445.433L155.305 447.181L150.873 450.217L147.822 453.656L143.255 456.711L136.712 459.497L133.603 461.629L130.495 463.109L127.54 464.915L123.318 466.528L121.15 465.049L119.672 465.203L116.391 466.836L112.131 471.101L110.174 473.56L107.891 474.54H106.259L104.456 474.367L102 475.52L101.251 477.48L98.6608 479.92L96.3774 482.36L92.271 486.01L88.8938 485.184H86.5912L84.3078 486.817L82.0052 489.123L79.549 491.582L78.2059 494.08L75.6346 495.194L74.6752 497.73L72.6796 497L70.0507 494.368L68.151 491.179L64.6396 488.623L61.9148 484.781L59.7849 481.88L57.8084 478.825L55.3715 475.021L53.5486 472.888L52.2054 468.296L49.4231 461.898L45.9883 455.827L45.854 446.144L46.4488 444.203L48.7898 443.857L50.4208 445.337L57.1368 445.663L59.593 444.837L61.5502 444.184L64.3325 443.531H69.8972L72.3533 444.683L77.4383 445.183L79.3955 443.05L78.8774 440.476L77.918 439.112L75.1549 437.536L71.6626 437.229L68.6116 434.174L65.7141 431.119L65.3112 423.223L62.3753 420.629L58.0963 420.744L59.5354 417.997L60.5716 414.999L60.9553 412.905L60.6867 409.927L60.514 408.486L61.4735 406.411L60.111 401.185L58.7487 398.169L56.8298 394.864L56.0047 392.117L57.9236 385.527L61.7613 382.51L65.0617 379.763L67.537 375.363L70.281 373.711L74.9438 371.79L76.594 366.026L73.2936 361.088L72.1998 351.751L63.9679 345.987L59.0173 338.571L52.7043 335.823L43.9159 333.076L40.6155 331.423L36.2213 324.007L32.6522 315.208L32.3836 306.696L31.0021 301.201L23.8639 299.549L13.9818 297.897L6.01855 297.628V290.481L12.3316 287.733L22.2137 287.176L25.7828 283.602L25.5141 277.839L23.5953 270.422L19.7576 262.18L15.632 257.78L15.9007 246.522L21.12 238.01L26.0706 229.211L29.0832 217.395L32.3836 208.883L37.3151 200.91L43.6281 197.894L50.4976 198.451L56.8106 199.546L65.599 201.198L72.2766 201.602L70.7031 204.311L67.0573 212.342L64.5052 220.373V231.324L68.151 238.26L74.7135 243.006L79.0885 248.481L79.4531 255.782L81.6406 260.163L86.3801 266.368L92.9426 267.829L98.776 270.019L104.974 272.209L117.734 272.939L121.38 276.955L123.203 284.986L122.109 291.192L126.12 295.937L131.224 300.683L138.88 303.603L145.807 311.999L153.463 318.205L162.213 326.601L166.588 333.172L169.14 339.012L175.338 343.028L174.974 348.869L171.328 354.709L173.515 361.645L176.796 366.026L182.63 366.756L192.838 365.296L203.776 363.836L213.619 362.74L224.192 363.105L227.109 360.185L227.838 356.535V351.059L224.557 348.869L220.911 344.853L224.921 339.012L228.567 336.092L226.015 330.616L230.39 325.871L234.401 325.141L239.14 323.681L244.609 318.935L250.078 315.65H258.827L264.296 314.189L267.194 310.558L267.136 308.253L266.042 307.369L265.659 304.429L262.934 301.355L261.13 299.895L258.329 299.722L257.542 295.764L255.163 295.399L254.357 292.287L254.433 290.923L249.617 290.461L246.624 289.578L248.619 283.871L255.182 284.602L262.109 286.062L269.765 287.887L279.973 286.792L293.079 285.697L299.277 285.332L304.746 288.982L309.121 292.998H314.954L322.975 290.807L329.537 284.967L335.735 280.221L342.298 274.015L348.496 269.635L353.964 267.079L364.537 264.889L371.1 262.334L371.829 253.938L371.1 245.907L368.912 238.241L365.631 234.59L364.537 229.115L367.454 227.289L374.016 222.179L379.12 218.163L383.131 213.418L390.058 206.482L394.433 199.181L396.985 196.261L402.818 193.34L404.277 186.404L402.089 180.199L397.714 177.643L391.881 172.533L387.506 167.057L385.683 161.581L384.8 155.817L387.985 153.07L389.943 149.727L391.017 148.689L392.073 148.094L396.237 143.502L399.652 140.562L400.746 136.835L403.97 135.336L405.466 132.973L407.826 132.109L411.683 131.033L417.037 130.283L420.088 131.033L425.211 129.534L429.471 131.513H432.1L435.765 129.88L438.259 129.265L441.138 128.977L443.959 129.015ZM331.437 106.171L330.42 106.459L329.269 106.306L327.829 105.441L324.222 101.675L320.173 98.0635L320.02 96.0461L318.139 93.5868L319.444 93.2986L321.325 94.7396L323.205 95.0278L324.932 95.8924L326.947 96.757L328.962 97.4871L328.808 99.0817L329.096 100.235L329.959 100.965L330.823 102.271L330.247 103.289V104.442L331.264 105.595L331.437 106.171ZM313.4 86.5165L312.67 87.2466L311.078 86.6702L310.061 85.0755L308.046 83.0582L305.59 81.0408L306.895 80.3107L307.47 80.5989L309.351 80.8871L310.656 81.7517L311.961 83.0582L312.69 85.0755L313.4 86.5165ZM559.454 63.9413L556.422 64.3832L554.158 63.6147L551.664 62.0969L548.517 59.5031L546.56 57.9853L544.506 55.3916L543.202 52.5673L542.434 49.9735L541.455 47.2645L542.645 45.6314L543.72 44.325L545.024 42.4805L546.751 40.1942L547.5 37.8118L548.689 35.3141L549.668 33.681L549.783 32.0479L549.035 31.1833L549.476 30.1074L550.244 29.2428L551.222 29.8961L551.549 32.0671L551.99 34.1229L553.064 35.1028L554.043 36.294L554.695 37.9271L557.612 38.5803L560.529 39.0222L563.35 40.0981L565.844 41.078L567.034 43.787L568.876 45.9581L571.581 49.3203L572.886 52.4712V54.9689L572.234 57.5627L571.581 59.8298L570.066 61.5589L567.475 61.7703L564.443 62.4235L561.527 63.192L559.454 63.9413ZM338.498 47.2261L339.842 48.3789H361.985L365.074 47.034L367.761 45.6891L370.063 44.9206L384.493 45.1127L386.796 44.3442H393.55L399.518 45.3048L405.294 46.2655L409.726 47.6104L413.583 48.3789L415.886 49.1474L418.956 49.3395L420.875 47.034L424.54 47.6104L428.397 48.3789H432.062L434.94 47.2261L436.859 46.4576L438.778 46.6497L439.545 49.5317L440.121 50.6844L442.615 50.3002L444.342 48.7631L445.494 47.8025L449.926 47.2261L450.694 49.1474L452.229 50.108L453.764 52.0293L453.572 53.9506L454.148 57.4282L454.915 59.3495L454.723 62.0393L455.299 64.7291L454.531 66.4582L453.38 69.5323L453.764 73.3941L455.875 75.1232L457.026 76.276L458.177 76.8524L457.602 78.1973L455.491 77.6209L452.21 76.6603L447.777 77.2367L445.666 78.5816L442.98 77.4288L439.315 78.5816L437.012 79.5422L435.477 80.3107H431.62L429.701 79.3501L426.612 78.5816L425.461 79.7343L423.734 80.3107L420.664 79.7343L417.382 78.9658L414.504 79.7343L410.839 79.9265L409.112 80.8871L406.618 82.4241L404.507 83.0005L403.931 84.5376L401.82 85.1139L398.75 85.8825L397.599 88.5723L397.215 90.8778L395.68 91.6463L393.761 92.607L392.418 94.3361L390.691 96.0653L387.813 96.6417L387.429 94.5283L384.935 94.3361L383.591 94.9125L383.016 96.2574L380.137 97.9866L376.472 98.3709L372.999 99.5236L369.718 100.292L365.286 101.637L361.045 103.174L356.037 103.943L351.796 104.327L349.685 105.864L346.404 105.48L344.869 102.79L343.526 99.5044L340.839 95.4505L338.153 93.7213L336.81 90.2438L334.699 86.9584L332.204 85.4214L328.923 84.845H323.723L321.612 82.5394L320.269 79.8496L319.31 77.3519L318.35 73.298L314.11 69.4362L310.253 68.0913L303.901 67.5149L300.428 65.5936L295.996 64.2487L292.906 62.7117L287.898 58.4657L285.787 56.5444L283.293 55.1995H281.758L278.88 55.968L275.215 55.0073H272.336L268.863 53.2782L268.479 51.9333L266.177 48.8592L264.642 47.13H262.147L260.612 48.8592L258.693 49.0513L256.966 47.8986L255.623 46.9379L254.472 45.593L253.32 43.8638L251.018 42.9032L248.715 40.4055L248.331 38.1L247.18 35.4102L246.796 32.9125L246.029 31.3755L246.221 28.6857L248.523 28.1093L252.956 27.1486L255.834 25.4195L257.561 23.8824L258.712 21.0005L265.064 20.4241L266.407 19.0792L267.175 16.5815L268.518 15.2366H270.437L274.677 16.3894L277.747 18.6949L281.604 19.8477L286.804 22.5375L293.348 25.0352L299.891 26.9565L306.818 28.3014L310.483 30.2227L312.786 31.9519L316.643 33.2967L317.41 34.8338V37.9078L321.075 41.1933L325.508 43.1145L328.386 43.8831L335.697 44.8437L338.498 47.2261ZM708.645 14.8716L715.38 17.3693L719.237 20.6547L722.71 22.9602L725.992 25.2658L730.04 28.3398L733.897 32.778L736.967 34.315L740.632 35.6599L743.319 37.9655L745.813 40.4632L748.692 42.0002L750.802 42.7687L752.913 45.4585L753.105 49.3203L755.599 52.3944L758.286 55.4684L759.245 58.0238L762.526 62.6541L763.678 66.1316L763.87 73.6438L762.335 77.6978L760.608 80.5797L760.416 84.2494L758.305 87.5348L757.537 90.2246L756.77 95.4313L755.81 97.5447L754.659 100.427L754.084 104.673L753.7 110.072L752.165 111.801L751.397 116.623L749.67 121.638L748.327 125.499L746.216 127.997L745.065 129.726L739.481 131.648L735.624 133.377L732.343 134.53L730.424 133.377L725.992 131.455L721.943 129.534L719.065 128.189L715.994 128.958L712.905 130.687L707.705 132.224L700.778 135.509L695.194 138.583L689.418 142.061L684.026 144.559L682.299 145.519L676.332 147.056L672.283 149.17L671.515 152.244L669.405 153.781L667.87 154.934L666.142 156.279L663.053 159.756L659.772 162.446L657.469 162.83L654.764 164.559L652.077 165.52L649.775 163.791L649.007 161.293L647.088 159.756L645.169 159.18L644.018 156.086L641.716 155.126L640.756 153.589L639.605 150.899L637.11 147.806L635 146.076L634.616 141.83L632.313 141.062V138.18L629.243 136.067L625.578 132.013L621.721 127.19L619.418 123.905L617.116 120.619L615.005 118.506H611.724L609.997 116.585L610.381 114.663L610.572 111.09L608.846 107.42L607.31 104.922L605.967 102.809L604.432 100.311L600.959 96.8338L598.081 94.9125L594.032 93.7598L592.305 89.7058L587.681 88.5531L584.207 87.4003L583.248 85.0947L581.905 81.8093L580.37 80.6566L579.027 79.5038L582.097 77.3904L582.672 75.6612L583.632 72.9714L585.167 69.1096L587.278 65.6321L588.621 63.1344L590.156 56.7749L588.813 52.1446L587.278 50.4155L585.359 46.9379L583.824 43.0761L582.864 38.2537L582.097 34.1998L581.521 29.5695L580.37 23.21L582.481 20.9044L584.591 20.5202L587.278 22.4415L589.388 23.0179L592.075 24.1706L594.78 24.5549H597.467H600.94L603.626 25.8998L606.313 25.5155L609.191 24.747L611.302 24.1706L613.988 23.0179L616.099 20.5202L619.764 17.0426L621.97 15.7362L623.506 13.8149V10.8177L625.233 9.0885L626.768 7.7436L627.727 6.01444L628.495 3.70889L630.222 3.32463L631.949 4.09314L633.1 5.82231L635.019 8.12785L637.225 9.85702L642.617 10.2413L644.536 8.89637L647.031 9.47276L649.525 11.9704L651.636 12.3547L655.109 12.9311L657.028 15.4288L659.331 15.813L661.249 14.4681L663.168 10.9906L664.703 9.45355L668.368 7.53226L669.136 3.86258L672.59 2.32556L676.831 2.90194L679.133 3.28621L681.244 5.01537L684.717 6.16814L689.341 7.12879L693.006 8.47368L698.207 9.62646L701.872 11.5477L708.645 14.8716Z" stroke="#4B0082" stroke-width="2" mask="url(#path-1-inside-1_2695_379)"/>
</g>
<defs>
<filter id="filter0_d_2695_379" x="0.618555" y="0.925561" width="768.651" height="506.205" filterUnits="userSpaceOnUse" color-interpolation-filters="sRGB">
<feFlood flood-opacity="0" result="BackgroundImageFix"/>
<feColorMatrix in="SourceAlpha" type="matrix" values="0 0 0 0 0 0 0 0 0 0 0 0 0 0 0 0 0 0 127 0" result="hardAlpha"/>
<feOffset dy="4"/>
<feGaussianBlur stdDeviation="2.7"/>
<feComposite in2="hardAlpha" operator="out"/>
<feColorMatrix type="matrix" values="0 0 0 0 0.4608 0 0 0 0 0.2592 0 0 0 0 0.4104 0 0 0 0.56 0"/>
<feBlend mode="hard-light" in2="BackgroundImageFix" result="effect1_dropShadow_2695_379"/>
<feBlend mode="normal" in="SourceGraphic" in2="effect1_dropShadow_2695_379" result="shape"/>
</filter>
</defs>
</svg>
